<svg xmlns="http://www.w3.org/2000/svg" viewBox="0 0 245.91 118.42"><defs><style>.cls-1{isolation:isolate;}.cls-2{fill:#d1d3d4;}.cls-3{fill:#69d8ff;}.cls-4{fill:#3a3a3a;}.cls-5{fill:#414042;}.cls-6{fill:#231f20;}.cls-7{fill:#ffce00;}.cls-8{fill:#fff;}.cls-9{fill:#8dc63f;}.cls-10,.cls-11,.cls-43{fill:#fab480;}.cls-11,.cls-13,.cls-24,.cls-27,.cls-34,.cls-36,.cls-41,.cls-43{mix-blend-mode:multiply;}.cls-12,.cls-13,.cls-41{fill:#fda16f;}.cls-13{opacity:0.35;}.cls-14{fill:#ff8955;}.cls-15{fill:#fff6f0;}.cls-16{fill:#ede6ff;}.cls-17{fill:#a09bb2;}.cls-18{fill:#f6f3ff;}.cls-19,.cls-24{fill:#d0c5ed;}.cls-20{fill:#e8e3fc;}.cls-21{fill:#6f6b77;}.cls-22{fill:#1fb4e8;}.cls-23{fill:#ff0606;}.cls-25{fill:#faf8ff;}.cls-26,.cls-27{fill:#ff6e86;}.cls-28{fill:#fffdfd;}.cls-29{fill:#f7f9ac;}.cls-30{fill:#8343b5;}.cls-31{fill:#d4d2d8;}.cls-32{fill:#a0f2f0;}.cls-33,.cls-34{fill:#ffb797;}.cls-34{opacity:0.39;}.cls-35{fill:#ffdbc2;}.cls-36,.cls-37{fill:#f79f63;}.cls-36,.cls-41{opacity:0.46;}.cls-38{fill:#ebfffe;}.cls-39{fill:#8c8b8b;}.cls-40{fill:#d8e6ef;}.cls-42{fill:#ffcca9;}.cls-43{opacity:0.54;}</style></defs><title>資產 1</title><g class="cls-1"><g id="圖層_2" data-name="圖層 2"><g id="Layer_1" data-name="Layer 1"><path class="cls-2" d="M114.6,65.91h-3a.7.7,0,0,1,0-1.4h3a.7.7,0,0,1,0,1.4Zm-5,0h0a12.25,12.25,0,0,1-3.12-.62.7.7,0,1,1,.45-1.32,10.81,10.81,0,0,0,2.75.54.7.7,0,0,1,0,1.4Zm-4.76-1.39a.71.71,0,0,1-.34-.08A12.4,12.4,0,0,1,102,62.53a.7.7,0,1,1,1-1,10.49,10.49,0,0,0,2.26,1.67.69.69,0,0,1,.27,1A.68.68,0,0,1,104.84,64.5Zm-3.71-3.28a.7.7,0,0,1-.57-.29,12.34,12.34,0,0,1-1.51-2.79.7.7,0,1,1,1.31-.5,10.52,10.52,0,0,0,1.33,2.47.7.7,0,0,1-.15,1A.71.71,0,0,1,101.13,61.22Zm-2-4.56a.7.7,0,0,1-.69-.57,11.68,11.68,0,0,1-.21-2.22V53a.7.7,0,0,1,1.4,0v.89a10.87,10.87,0,0,0,.19,2,.69.69,0,0,1-.56.81Zm-.2-5a.71.71,0,0,1-.7-.7V48a.7.7,0,0,1,1.4,0v3A.7.7,0,0,1,99,51.68Zm0-5a.71.71,0,0,1-.7-.7V43a.7.7,0,0,1,1.4,0v3A.7.7,0,0,1,99,46.68Zm0-5a.71.71,0,0,1-.7-.7V38a.7.7,0,0,1,1.4,0v3A.7.7,0,0,1,99,41.68Zm0-5a.71.71,0,0,1-.7-.7V33a.7.7,0,0,1,1.4,0v3A.7.7,0,0,1,99,36.68Zm0-5a.71.71,0,0,1-.7-.7V28a.7.7,0,0,1,1.4,0v3A.7.7,0,0,1,99,31.68Zm0-5a.71.71,0,0,1-.7-.7v-.45A11,11,0,0,0,98,23.16a.7.7,0,0,1,1.36-.32,12.19,12.19,0,0,1,.3,2.69V26A.7.7,0,0,1,99,26.68Zm-.89-4.88a.69.69,0,0,1-.65-.43A10.87,10.87,0,0,0,96,19a.69.69,0,0,1,.12-1,.7.7,0,0,1,1,.11,12.21,12.21,0,0,1,1.62,2.74.7.7,0,0,1-.37.91A.66.66,0,0,1,98.08,21.8Zm-2.9-4a.69.69,0,0,1-.46-.18A11,11,0,0,0,92.4,16a.71.71,0,0,1-.32-.94.69.69,0,0,1,.94-.31,11.71,11.71,0,0,1,2.63,1.78.71.71,0,0,1,.06,1A.72.72,0,0,1,95.18,17.77Zm-4.33-2.41-.2,0a10.33,10.33,0,0,0-2.77-.43.7.7,0,0,1,0-1.4,11.89,11.89,0,0,1,3.14.49.7.7,0,0,1-.2,1.37ZM85.9,14.9h-3a.7.7,0,0,1,0-1.4h3a.7.7,0,0,1,0,1.4Zm-5,0h-3a.7.7,0,0,1,0-1.4h3a.7.7,0,0,1,0,1.4Zm-5,0h-3a.7.7,0,0,1,0-1.4h3a.7.7,0,0,1,0,1.4Zm-5,0h-3a.7.7,0,0,1,0-1.4h3a.7.7,0,0,1,0,1.4Zm-5,0h-3a.7.7,0,0,1,0-1.4h3a.7.7,0,0,1,0,1.4Zm-5,0h-3a.7.7,0,0,1,0-1.4h3a.7.7,0,1,1,0,1.4Zm-5,0h-3a.7.7,0,0,1,0-1.4h3a.7.7,0,1,1,0,1.4Zm-5,0h-3a.7.7,0,0,1,0-1.4h3a.7.7,0,1,1,0,1.4Zm-5,0h-3a.7.7,0,1,1,0-1.4h3a.7.7,0,0,1,0,1.4Z"/><circle class="cls-3" cx="42.9" cy="14.2" r="14.2"/><path class="cls-2" d="M142.35,108.61h-1.48a.7.7,0,1,1,0-1.4h1.48a.7.7,0,0,1,0,1.4Zm-3.48,0h-3a.7.7,0,1,1,0-1.4h3a.7.7,0,1,1,0,1.4Zm-5,0h-3a.7.7,0,1,1,0-1.4h3a.7.7,0,1,1,0,1.4Zm-5,0h-3a.7.7,0,0,1,0-1.4h3a.7.7,0,1,1,0,1.4Zm-5,0h-2a6.3,6.3,0,0,1-1.15-.1.7.7,0,0,1-.58-.8.72.72,0,0,1,.81-.58,5.62,5.62,0,0,0,.92.08h2a.7.7,0,1,1,0,1.4Zm-4.88-.72a.76.76,0,0,1-.33-.08,7.05,7.05,0,0,1-2.48-2.19.7.7,0,0,1,1.15-.8,5.64,5.64,0,0,0,2,1.75.71.71,0,0,1,.3,1A.72.72,0,0,1,119,107.89Zm-3.1-3.76a.71.71,0,0,1-.67-.5,7.11,7.11,0,0,1-.29-2,6,6,0,0,0-.09-1,.69.69,0,0,1,.55-.82.7.7,0,0,1,.82.56,7.15,7.15,0,0,1,.12,1.3,5.73,5.73,0,0,0,.23,1.6.7.7,0,0,1-.47.87A.64.64,0,0,1,115.89,104.13Zm-1-4.84a.71.71,0,0,1-.62-.36A5.55,5.55,0,0,0,112.44,97a.69.69,0,0,1-.19-1,.71.71,0,0,1,1-.2,7.14,7.14,0,0,1,2.24,2.43.7.7,0,0,1-.27,1A.72.72,0,0,1,114.85,99.29Zm-3.83-3-.19,0a5.55,5.55,0,0,0-1.47-.2H108a.7.7,0,0,1,0-1.4h1.32a6.75,6.75,0,0,1,1.84.25.7.7,0,0,1-.18,1.37Zm-5-.22h-3a.7.7,0,0,1,0-1.4h3a.7.7,0,1,1,0,1.4Zm-5,0H98a.7.7,0,0,1,0-1.4h3a.7.7,0,1,1,0,1.4Zm-5,0H93a.7.7,0,0,1,0-1.4h3a.7.7,0,1,1,0,1.4Zm-5,0H88a.7.7,0,0,1,0-1.4h3a.7.7,0,1,1,0,1.4Zm-5,0H83a.7.7,0,0,1,0-1.4h3a.7.7,0,1,1,0,1.4Zm-5,0H78a.7.7,0,0,1,0-1.4h3a.7.7,0,1,1,0,1.4Zm-5,0H73a.7.7,0,0,1,0-1.4h3a.7.7,0,1,1,0,1.4Zm-5,0H68a.7.7,0,0,1,0-1.4h3a.7.7,0,1,1,0,1.4Zm-5,0H63a.7.7,0,1,1,0-1.4h3a.7.7,0,1,1,0,1.4Zm-5,0H58a.7.7,0,1,1,0-1.4h3a.7.7,0,0,1,0,1.4Zm-5,0H53a.7.7,0,1,1,0-1.4h3a.7.7,0,0,1,0,1.4Zm-5,0H48a.7.7,0,1,1,0-1.4h3a.7.7,0,0,1,0,1.4Zm-5,0H43a.7.7,0,1,1,0-1.4h3a.7.7,0,0,1,0,1.4Zm-5,0H38a.7.7,0,1,1,0-1.4h3a.7.7,0,0,1,0,1.4Zm-5,0H33a.7.7,0,0,1,0-1.4h3a.7.7,0,0,1,0,1.4Zm-5,0H28a.7.7,0,1,1,0-1.4h3a.7.7,0,0,1,0,1.4Zm-5-.22-.19,0A6.92,6.92,0,0,1,23,94.2a.7.7,0,1,1,1-1,5.57,5.57,0,0,0,2.3,1.28.7.7,0,0,1-.18,1.38Zm-3.83-3a.7.7,0,0,1-.61-.37,7,7,0,0,1-.87-3.18.7.7,0,0,1,1.4,0,5.7,5.7,0,0,0,.7,2.55.71.71,0,0,1-.28.95A.67.67,0,0,1,22.23,92.83ZM21.45,88a.7.7,0,0,1-.7-.7v-3a.7.7,0,1,1,1.4,0v3A.7.7,0,0,1,21.45,88Zm0-5a.7.7,0,0,1-.7-.7v-3a.7.7,0,1,1,1.4,0v3A.7.7,0,0,1,21.45,83Zm0-5a.7.7,0,0,1-.7-.7v-3a.7.7,0,1,1,1.4,0v3A.7.7,0,0,1,21.45,78Zm0-5a.7.7,0,0,1-.7-.7v-3a.7.7,0,1,1,1.4,0v3A.7.7,0,0,1,21.45,73Zm0-5a.7.7,0,0,1-.7-.7v-3a.7.7,0,1,1,1.4,0v3A.7.7,0,0,1,21.45,68Zm0-5a.7.7,0,0,1-.7-.7v-3a.7.7,0,0,1,1.4,0v3A.7.7,0,0,1,21.45,63Zm0-5a.7.7,0,0,1-.7-.7v-3a.7.7,0,0,1,1.4,0v3A.7.7,0,0,1,21.45,58Z"/><circle class="cls-3" cx="72.37" cy="91.81" r="26.61"/><circle class="cls-4" cx="21.45" cy="54.26" r="21.45" transform="translate(-36.31 62.54) rotate(-76.59)"/><path class="cls-2" d="M131.51,45.51a.71.71,0,0,1-.7-.65,4.82,4.82,0,0,0-.89-2.42.69.69,0,0,1,1.12-.82,6,6,0,0,1,1.17,3.13.7.7,0,0,1-.65.75ZM129,41.37a.76.76,0,0,1-.38-.11,4.67,4.67,0,0,0-2.47-.74.7.7,0,0,1-.68-.71.69.69,0,0,1,.71-.69,6.08,6.08,0,0,1,3.2,1,.71.71,0,0,1,.21,1A.69.69,0,0,1,129,41.37Zm-4.83-.85h-3a.7.7,0,1,1,0-1.4h3a.7.7,0,1,1,0,1.4Zm-5,0h-3a.7.7,0,1,1,0-1.4h3a.7.7,0,1,1,0,1.4Zm-5,0h-3a.7.7,0,1,1,0-1.4h3a.7.7,0,1,1,0,1.4Zm-5,0h-3a.7.7,0,1,1,0-1.4h3a.7.7,0,1,1,0,1.4Zm-5,0h-3a.7.7,0,1,1,0-1.4h3a.7.7,0,1,1,0,1.4Zm-5,0h-3a.7.7,0,1,1,0-1.4h3a.7.7,0,1,1,0,1.4Zm-5,0h-3a.7.7,0,1,1,0-1.4h3a.7.7,0,1,1,0,1.4Zm-5,0h-3a.7.7,0,1,1,0-1.4h3a.7.7,0,1,1,0,1.4Zm-5,0h-3a.7.7,0,1,1,0-1.4h3a.7.7,0,1,1,0,1.4Zm-5,0h-3a.7.7,0,1,1,0-1.4h3a.7.7,0,1,1,0,1.4Z"/><circle class="cls-5" cx="75.05" cy="39.97" r="15.81"/><path class="cls-6" d="M217.9,78.69c-7.16,0-12.37,1.56-16.38,4.92l-1.8,1.5A29.43,29.43,0,0,1,180.87,92H132.39a4.3,4.3,0,1,1,0-8.6h42.73a1,1,0,0,0,0-2H124.61a4.7,4.7,0,0,1,0-9.4h50.51a1,1,0,0,0,0-2H122.06a5.77,5.77,0,1,1,0-11.54h53.06a1,1,0,0,0,0-2H126.47a5.09,5.09,0,1,1,0-10.18h57.14a1,1,0,0,0,0-2H126.47a7.09,7.09,0,0,0-4.92,12.2A7.77,7.77,0,0,0,120.1,71.7a6.7,6.7,0,0,0,4.51,11.65h3.18a6.3,6.3,0,0,0,4.6,10.6h48.48A31.42,31.42,0,0,0,201,86.64l1.79-1.5c3.64-3,8.43-4.45,15.1-4.45h28v-2Z"/><path class="cls-6" d="M218.81,49.9c-7.26,0-13.29-4.71-16.24-7.52l-4.39-4.19-.05,0a1,1,0,1,0-1.37,1.45l4.43,4.23c3.17,3,9.67,8.07,17.62,8.07h27.1v-2Z"/><path class="cls-7" d="M135.2,14h28.24l20.33,19.22H155.72s-3.77-12-20.52-11.68Z"/><path class="cls-6" d="M183.77,34.19H155.72a1,1,0,0,1-.95-.7,15.5,15.5,0,0,0-3.8-5.63A18.17,18.17,0,0,0,145,24.08a25.34,25.34,0,0,0-9.82-1.57,1,1,0,0,1-.72-.29,1,1,0,0,1-.3-.71V14a1,1,0,0,1,1-1h28.24a1,1,0,0,1,.69.27l20.33,19.23a1,1,0,0,1,.24,1.09A1,1,0,0,1,183.77,34.19Zm-27.36-2h24.85L163,15H136.2V20.5a26.69,26.69,0,0,1,9.64,1.75,19.82,19.82,0,0,1,6.6,4.25A18,18,0,0,1,156.41,32.19Z"/><rect class="cls-8" x="127.85" y="13.97" width="7.34" height="7.54"/><path class="cls-6" d="M135.2,22.51h-7.35a1,1,0,0,1-1-1V14a1,1,0,0,1,1-1h7.35a1,1,0,0,1,1,1v7.54A1,1,0,0,1,135.2,22.51Zm-6.35-2h5.35V15h-5.35Z"/><rect class="cls-5" x="155.72" y="33.19" width="13.37" height="10.17"/><path class="cls-6" d="M169.09,44.36H155.72a1,1,0,0,1-1-1V33.19a1,1,0,0,1,1-1h13.37a1,1,0,0,1,1,1V43.36A1,1,0,0,1,169.09,44.36Zm-12.37-2h11.37V34.19H156.72Z"/><path class="cls-8" d="M155.72,33.19l-16.38,5.09Z"/><path class="cls-6" d="M139.34,39.28a1,1,0,0,1-.3-2l16.38-5.08a1,1,0,1,1,.6,1.91l-16.38,5.08A1,1,0,0,1,139.34,39.28Z"/><path class="cls-3" d="M176.06,114.09H148.75a6.39,6.39,0,0,1-6.4-6.39V76.82A35.18,35.18,0,0,1,146.66,60l9.06-16.59h13.37l9.17,17a35.25,35.25,0,0,1,4.2,16.67V107.7A6.4,6.4,0,0,1,176.06,114.09Z"/><path class="cls-6" d="M176.06,115.09H148.75a7.4,7.4,0,0,1-7.4-7.39V76.82a36.3,36.3,0,0,1,4.43-17.35l9.06-16.59a1,1,0,0,1,.88-.52h13.37a1,1,0,0,1,.88.53l9.17,17a36.4,36.4,0,0,1,4.32,17.15V107.7A7.4,7.4,0,0,1,176.06,115.09ZM156.31,44.36l-8.77,16.07a34.26,34.26,0,0,0-4.19,16.39V107.7a5.4,5.4,0,0,0,5.4,5.39h27.31a5.4,5.4,0,0,0,5.4-5.39V77.08a34.28,34.28,0,0,0-4.08-16.2l-8.89-16.52Z"/><rect class="cls-9" x="142.55" y="73.09" width="39.91" height="22.27"/><path class="cls-6" d="M182.46,96.36H142.55a1,1,0,0,1-1-1V73.09a1,1,0,0,1,1-1h39.91a1,1,0,0,1,1,1V95.36A1,1,0,0,1,182.46,96.36Zm-38.91-2h37.91V74.09H143.55Z"/><path class="cls-8" d="M110,17.94h0Z"/><path class="cls-6" d="M119.76,18.94H110a1,1,0,0,1,0-2h9.79a1,1,0,1,1,0,2Z"/><path class="cls-8" d="M110,9.09l9.79,2.26Z"/><path class="cls-6" d="M119.76,12.35l-.23,0-9.79-2.26a1,1,0,0,1,.45-2L120,10.38a1,1,0,0,1-.22,2Z"/><path class="cls-8" d="M110,27.24,119.76,25Z"/><path class="cls-6" d="M110,28.24a1,1,0,0,1-.23-2L119.53,24A1,1,0,1,1,120,26l-9.79,2.26Z"/><path class="cls-8" d="M197.45,38.88a17.14,17.14,0,0,0-8.55-4.37l-24.16-4.69a5.6,5.6,0,0,0-7.83,2.38h0a5.61,5.61,0,0,0,1.83,7.07l24.87,6Z"/><path class="cls-6" d="M183.61,46.23a.91.91,0,0,1-.23,0l-24.88-6a1.14,1.14,0,0,1-.34-.15,6.6,6.6,0,0,1,6.93-11.22l24,4.65a18.15,18.15,0,0,1,9,4.63,1,1,0,0,1-1.37,1.45,16.13,16.13,0,0,0-8-4.11L164.55,30.8a.91.91,0,0,1-.31-.12,4.6,4.6,0,0,0-5.08,7.66l24.68,5.92a1,1,0,0,1-.23,2Z"/><path class="cls-8" d="M27.41,106.66h0Z"/><path class="cls-9" d="M37.4,107.06h-10a.4.4,0,0,1-.4-.4.39.39,0,0,1,.4-.4h10a.39.39,0,0,1,.4.4A.39.39,0,0,1,37.4,107.06Z"/><path class="cls-8" d="M23.24,109.16h0Z"/><path class="cls-9" d="M29.84,109.56h-6.6a.4.4,0,0,1,0-.8h6.6a.4.4,0,0,1,0,.8Z"/><path class="cls-8" d="M186.22,12.72h0Z"/><path class="cls-9" d="M186.22,13.12h-4.28a.4.4,0,0,1-.4-.4.39.39,0,0,1,.4-.4h4.28a.39.39,0,0,1,.4.4A.4.4,0,0,1,186.22,13.12Z"/><path class="cls-8" d="M178.69,15.22h0Z"/><path class="cls-9" d="M183,15.62h-4.29a.4.4,0,0,1,0-.8H183a.4.4,0,1,1,0,.8Z"/><path class="cls-8" d="M59.24,53h0Z"/><path class="cls-9" d="M59.24,53.41H55a.4.4,0,0,1-.4-.4.39.39,0,0,1,.4-.4h4.29a.39.39,0,0,1,.4.4A.4.4,0,0,1,59.24,53.41Z"/><path class="cls-8" d="M51.71,55.51h0Z"/><path class="cls-9" d="M56,55.91H51.71a.4.4,0,0,1,0-.8H56a.4.4,0,0,1,0,.8Z"/><polygon class="cls-8" points="16.49 14.53 18.24 13.62 17.91 15.56 19.32 16.94 17.37 17.22 16.49 19 15.62 17.22 13.66 16.94 15.08 15.56 14.74 13.62 16.49 14.53"/><path class="cls-9" d="M16.49,19.4a.41.41,0,0,1-.36-.23l-.78-1.58-1.74-.25a.43.43,0,0,1-.33-.28.42.42,0,0,1,.11-.41l1.26-1.23-.3-1.74a.42.42,0,0,1,.16-.39.4.4,0,0,1,.42,0l1.56.82,1.57-.82a.4.4,0,0,1,.42,0,.42.42,0,0,1,.16.39l-.3,1.74,1.26,1.23a.4.4,0,0,1,.1.41.4.4,0,0,1-.32.28l-1.75.25-.78,1.58A.4.4,0,0,1,16.49,19.4Zm-2-2.74,1.16.17a.4.4,0,0,1,.3.22l.51,1,.52-1a.4.4,0,0,1,.3-.22l1.15-.17-.83-.81a.4.4,0,0,1-.12-.36l.2-1.14-1,.54a.4.4,0,0,1-.37,0l-1-.54.19,1.14a.4.4,0,0,1-.11.36Z"/><polygon class="cls-8" points="105.44 79.83 106.02 77.95 107.16 79.56 109.14 79.53 107.96 81.12 108.59 82.99 106.72 82.35 105.14 83.53 105.16 81.56 103.55 80.42 105.44 79.83"/><path class="cls-9" d="M105.14,83.93a.37.37,0,0,1-.18,0,.4.4,0,0,1-.22-.36l0-1.77-1.44-1a.37.37,0,0,1-.16-.38.39.39,0,0,1,.27-.32l1.69-.53.52-1.68a.4.4,0,0,1,.32-.28.42.42,0,0,1,.39.16l1,1.45,1.76,0a.4.4,0,0,1,.33.64l-1.06,1.42.57,1.67a.4.4,0,0,1-.1.41.41.41,0,0,1-.41.1l-1.67-.57-1.41,1A.37.37,0,0,1,105.14,83.93Zm-.7-3.37,1,.67a.38.38,0,0,1,.17.33v1.17l.93-.7a.41.41,0,0,1,.37-.06l1.1.38-.37-1.11a.39.39,0,0,1,.06-.36l.69-.94-1.16,0a.39.39,0,0,1-.33-.17l-.68-1L105.82,80a.4.4,0,0,1-.26.26Z"/><path class="cls-10" d="M82,34a6.61,6.61,0,0,1,1.66.86c.25.31.59.74.44,1.15s-2.36-.26-2.36-.26Z"/><path class="cls-10" d="M81,32.88s.82.29.82.45-.09.77-1.13.58S81,32.88,81,32.88Z"/><path class="cls-11" d="M82,34a6.61,6.61,0,0,1,1.66.86c.25.31.59.74.44,1.15s-2.36-.26-2.36-.26Z"/><path class="cls-11" d="M81,32.88s.82.29.82.45-.09.77-1.13.58S81,32.88,81,32.88Z"/><path class="cls-12" d="M65.25,44.14s4.86-1.51,6.28-2.7S73,37.84,73.67,37a3.48,3.48,0,0,0,.85-2.06c0-.32.23-2.38.23-2.38s-.08-2.66.49-2.66.92,1.24.73,2.29-.42,4.59-.19,4.59.65-3,.65-3l1.11-3s.84-2.06,1.65-1.79-.39,2.43-.39,2.43a3.39,3.39,0,0,1-.3,1.56,16.53,16.53,0,0,0-1,3.6A28.29,28.29,0,0,0,79,33.74l1-1.51s1.19-2.2,1.8-2.2.65.83.42,1.47a3.47,3.47,0,0,1-.87,1.28c-.43.51-.6,2.23-1.12,2.85A10.21,10.21,0,0,0,79.13,38s1.2-2,1.41-2.24.63-.92.63-.92l1.17-1.41c.29-.35.81-1.07,1.12-1.07s.61.07.61.79S83,35.13,82.26,36a27.12,27.12,0,0,0-1.58,2.44c-.22.26-1.47,1.37-.89,2.06s1-.7,1.32-1.06a2.06,2.06,0,0,1,2.12-.55c.75.37.71.53.41.89s-1.55.86-1.93,1.58-1.68.94-2.09,1.44S78.93,45.08,77,44.7,69.68,47,69.51,47.83,64.65,44.86,65.25,44.14Z"/><path class="cls-12" d="M83.64,39.79c-.31.36-1.55.86-1.93,1.58s-1.68.94-2.09,1.44S78.93,45.08,77,44.7,69.68,47,69.51,47.83c0,.17-.25.16-.57,0-1.27-.56-4.17-3.12-3.69-3.7,0,0,1.76-.55,3.48-1.24a12.08,12.08,0,0,0,2.8-1.46,3.25,3.25,0,0,0,.41-.42c1-1.27,1.1-3.27,1.73-4a3.48,3.48,0,0,0,.85-2.06c0-.32.23-2.38.23-2.38s-.1-2.71.53-2.65.88,1.26.69,2.28-.42,4.58-.19,4.58.65-3,.65-3l1.11-3s.85-2.13,1.69-1.77-.43,2.41-.43,2.41a3.39,3.39,0,0,1-.3,1.56,17.07,17.07,0,0,0-1,3.55v.05A29.47,29.47,0,0,0,79,33.74l1-1.51s1.19-2.2,1.8-2.2.66.81.42,1.47a3.47,3.47,0,0,1-.87,1.28c-.43.51-.6,2.23-1.12,2.85a8.83,8.83,0,0,0-1,2.14h0l-.09.25.06-.09h0c1.71-2.83.94-1.47,2-3.06l1.17-1.41c.29-.35.81-1.07,1.12-1.07s.61.17.61.79S83,35.13,82.26,36a27.12,27.12,0,0,0-1.58,2.44c-.27.32-1.46,1.38-.89,2.06s1-.7,1.32-1.06a2.06,2.06,0,0,1,2.12-.55C84,39.27,83.94,39.43,83.64,39.79Z"/><path class="cls-13" d="M78.67,44.31A1.7,1.7,0,0,1,77,44.7c-1.89-.38-7.35,2.27-7.52,3.13,0,.17-.25.16-.57,0a12.63,12.63,0,0,1-.21-4.94,12.08,12.08,0,0,0,2.8-1.46,3.25,3.25,0,0,0,.41-.42Z"/><path class="cls-13" d="M76,32.18a24.29,24.29,0,0,0-.25,4.49,10,10,0,0,1-.23-3.26,9.44,9.44,0,0,0,0-2.91,1.3,1.3,0,0,0-.21-.6C75.83,30,76.16,31.16,76,32.18Z"/><path class="cls-13" d="M78.8,31.36a3.39,3.39,0,0,1-.3,1.56,17.07,17.07,0,0,0-1,3.55c0-.36.16-2.45.16-2.77A13,13,0,0,1,78.52,31,21.11,21.11,0,0,0,79.23,29C80,29.29,78.8,31.36,78.8,31.36Z"/><polygon class="cls-13" points="79.19 37.94 79.19 37.94 79.19 37.95 79.19 37.94"/><polygon class="cls-13" points="79.19 37.94 79.19 37.93 79.19 37.94 79.19 37.94"/><path class="cls-13" d="M82.21,31.5a3.47,3.47,0,0,1-.87,1.28c-.43.51-.6,2.23-1.12,2.85a8.83,8.83,0,0,0-1,2.14c.12-.65.58-2.93.82-3.59a3.92,3.92,0,0,1,1.42-2c.58-.42.64-1.45.63-2C82.41,30.35,82.39,31,82.21,31.5Z"/><path class="cls-13" d="M84.07,33.19c0,.72-1.08,1.94-1.81,2.82a27.12,27.12,0,0,0-1.58,2.44c-.19.23-1.18,1.11-1,1.79a.1.1,0,0,1,0-.05c-.33-.77.91-2,1.45-3.27s.51-.94,1.06-1.36a19.25,19.25,0,0,0,1.56-2.3.76.76,0,0,0,.18-.75A.88.88,0,0,1,84.07,33.19Z"/><path class="cls-14" d="M77.54,31.15a1.63,1.63,0,0,0,.93.33A.72.72,0,0,1,77.54,31.15Z"/><path class="cls-14" d="M80.21,32.05a2.94,2.94,0,0,0,.26.6.76.76,0,0,0,.46.36C80.5,33.09,80.2,32.51,80.21,32.05Z"/><path class="cls-14" d="M82.42,33.86a.73.73,0,0,0,.57.56l.12,0A.53.53,0,0,1,82.42,33.86Z"/><path class="cls-14" d="M80.93,35.77a2.53,2.53,0,0,0,.65.31A.53.53,0,0,1,80.93,35.77Z"/><path class="cls-14" d="M74.88,31.82c.29.05.48.13.72,0C75.47,32.09,75.07,32,74.88,31.82Z"/><path class="cls-14" d="M74.74,33.86a1,1,0,0,0,.76-.32A.53.53,0,0,1,74.74,33.86Z"/><polygon class="cls-14" points="82.61 40.51 82.42 40.24 83.48 39.38 83.77 39.76 82.61 40.51"/><path class="cls-15" d="M71.63,34a1.14,1.14,0,0,1,1.64-.14.94.94,0,0,1,1.4.16,1.46,1.46,0,0,1,0,1.81,1.06,1.06,0,0,1-.54.33,1.91,1.91,0,0,1-.44,1.36,1.32,1.32,0,0,1-1.27.46,1.15,1.15,0,0,1-.26.53.84.84,0,0,1-1.35,0,1.31,1.31,0,0,1-.14-1.35,1.32,1.32,0,0,1,0-1.6.91.91,0,0,1,.55-.31A1.74,1.74,0,0,1,71.63,34Z"/><path class="cls-15" d="M78.36,32.43a1,1,0,0,1,.21,1.07.81.81,0,0,1,.06.93.54.54,0,0,1-.84.14.76.76,0,0,1-.2-.32.71.71,0,0,1-.66-.17,1,1,0,0,1-.32-.8.47.47,0,0,1-.27-.12.72.72,0,0,1-.11-.89.49.49,0,0,1,.61-.21.48.48,0,0,1,.74-.12.72.72,0,0,1,.19.34A.62.62,0,0,1,78.36,32.43Z"/><path class="cls-15" d="M79.93,38.25a1,1,0,0,1,.21,1.07.81.81,0,0,1,.06.93.54.54,0,0,1-.84.14.7.7,0,0,1-.2-.32.71.71,0,0,1-.66-.17,1,1,0,0,1-.32-.79.49.49,0,0,1-.27-.13.72.72,0,0,1-.1-.89.49.49,0,0,1,.6-.21.48.48,0,0,1,.74-.11.58.58,0,0,1,.19.33A.65.65,0,0,1,79.93,38.25Z"/><path class="cls-15" d="M77.38,37.46a1.13,1.13,0,0,1-1.62.24.94.94,0,0,1-1.4-.07,1.47,1.47,0,0,1,0-1.81,1,1,0,0,1,.52-.36,2,2,0,0,1,.38-1.38,1.3,1.3,0,0,1,1.24-.52A1.25,1.25,0,0,1,76.7,33,.84.84,0,0,1,78,33a1.32,1.32,0,0,1,.19,1.34,1.29,1.29,0,0,1,0,1.59.94.94,0,0,1-.53.34A1.74,1.74,0,0,1,77.38,37.46Z"/><path class="cls-15" d="M69.39,35.61a.56.56,0,0,1,.78-.21.46.46,0,0,1,.69,0,.72.72,0,0,1,.09.87.59.59,0,0,1-.24.21,1,1,0,0,1-.14.69.69.69,0,0,1-.58.33.71.71,0,0,1-.09.28.41.41,0,0,1-.65.09.62.62,0,0,1-.15-.64.63.63,0,0,1-.08-.77.48.48,0,0,1,.25-.2A.81.81,0,0,1,69.39,35.61Z"/><path class="cls-15" d="M70.28,34.05a.46.46,0,0,1-.41.5.51.51,0,0,1,0-1A.46.46,0,0,1,70.28,34.05Z"/><ellipse class="cls-15" cx="71.91" cy="32.84" rx="0.45" ry="0.54"/><path class="cls-15" d="M78.75,36.92a.32.32,0,0,1-.28.34.31.31,0,0,1-.28-.34.31.31,0,0,1,.28-.33A.31.31,0,0,1,78.75,36.92Z"/><path class="cls-15" d="M73.42,29.7a.32.32,0,1,1-.63,0,.32.32,0,1,1,.63,0Z"/><path class="cls-15" d="M79,40.05a.33.33,0,0,1-.3.37.34.34,0,0,1-.31-.37.35.35,0,0,1,.31-.37A.34.34,0,0,1,79,40.05Z"/><path class="cls-15" d="M78,38.48c0,.21-.12.38-.26.38s-.26-.17-.26-.38.11-.37.26-.37S78,38.28,78,38.48Z"/><path class="cls-15" d="M70.39,38.67a.48.48,0,1,1-.47-.56A.52.52,0,0,1,70.39,38.67Z"/><path class="cls-10" d="M81.45,40.35c-.61.73-2.21,3.68-2.7,4.26s-1.66-.18-2.61,1S74.85,51,74.85,51s-5.31-.07-5.48-1.38c0,0,1.1-5.95,1.1-7.54a5.05,5.05,0,0,1,.3-2.15S73,34.7,73.34,34.27c.17-.2,1.24-1.22,1.29-.67a11.68,11.68,0,0,1-.9,2.79l1.21-2.31,2.11-2L76.4,34s-.55,3-.33,2.88a13,13,0,0,0,1.24-2.93.92.92,0,0,1,.29-.58c.1-.13,1-.93,1-.93l1.18.11L79,33.83l-1,2.93,2.18-2.54,1.74-.15-1,1.31s-2.75,3.93-2.37,4.38,2-.5,2.07-.59a5.43,5.43,0,0,1,.51-1.31c.17-.31.39-.69.64-1.07C82.11,36.79,82.06,39.61,81.45,40.35Z"/><path class="cls-12" d="M68.93,47.84c.32.14.54.16.58,0Z"/><path class="cls-16" d="M34.2,13.72H32.74V9a4.58,4.58,0,0,1,4.35-4.78h4.57v1.6H37.09A3,3,0,0,0,34.2,9Z"/><path class="cls-17" d="M33.57,9v4.72h.63V9a3,3,0,0,1,2.89-3.18h-.64A3,3,0,0,0,33.57,9Z"/><rect class="cls-17" x="39.8" y="5.82" width="1.85" height="1.14"/><rect class="cls-18" x="40.73" y="5.82" width="0.59" height="1.14"/><path class="cls-19" d="M37.32,13.72H34.85a1.53,1.53,0,0,0-1.38-1,1.68,1.68,0,0,0,0,3.34,1.48,1.48,0,0,0,1.24-.72h2.61a.77.77,0,0,0,.74-.81A.78.78,0,0,0,37.32,13.72Z"/><path class="cls-20" d="M33.36,12.92a1.57,1.57,0,0,1,1.44,1h2.57a.78.78,0,0,1,.66.39.76.76,0,0,0-.71-.58H34.85a1.53,1.53,0,0,0-1.38-1,1.49,1.49,0,0,0-1.21.66A1.54,1.54,0,0,1,33.36,12.92Z"/><path class="cls-21" d="M34.47,14.4a1,1,0,1,1-1-1.1A1.05,1.05,0,0,1,34.47,14.4Z"/><path class="cls-22" d="M32.84,14.4a.66.66,0,0,0,.61.68V13.72A.66.66,0,0,0,32.84,14.4Z"/><path class="cls-23" d="M33.47,13.72h0v1.36h0a.68.68,0,0,0,0-1.36Z"/><path class="cls-16" d="M55.61,17.5v.05H32.27V15.73H54A1.7,1.7,0,0,1,55.61,17.5Z"/><path class="cls-19" d="M53.92,17.55a4.21,4.21,0,0,1-4,4.39H34.47V17.55Z"/><path class="cls-24" d="M53.92,17.55a4.58,4.58,0,0,1-.17,1.24c-4-.36-14-.86-16,3.15H34.47V17.55Z"/><polygon class="cls-25" points="47.72 15.73 46.69 17.55 45.54 17.55 46.56 15.73 47.72 15.73"/><polygon class="cls-25" points="45.93 15.73 44.9 17.55 43.75 17.55 44.77 15.73 45.93 15.73"/><polygon class="cls-25" points="44.28 15.73 43.25 17.55 42.56 17.55 43.59 15.73 44.28 15.73"/><path class="cls-26" d="M46.85,15.73H44.47a7.74,7.74,0,0,1,0-4.83.69.69,0,0,1,.65-.48H46.2a.69.69,0,0,1,.65.48A7.67,7.67,0,0,1,46.85,15.73Z"/><path class="cls-27" d="M46.85,15.73H44.47a5.73,5.73,0,0,1-.27-1.05,3.12,3.12,0,0,0,1.4-1c.72-.95.43-2.5.22-3.28h.38a.69.69,0,0,1,.65.48A7.67,7.67,0,0,1,46.85,15.73Z"/><path class="cls-28" d="M46.79,13.29c0,1.06-.47,1.92-1,1.92s-.82-.48-1-1.18a3.36,3.36,0,0,1-.08-.74c0-1,.46-1.88,1-1.92h0C46.32,11.37,46.79,12.23,46.79,13.29Z"/><path class="cls-29" d="M46.79,13.29c0,1.06-.47,1.92-1,1.92s-.82-.48-1-1.18a1,1,0,0,1,.29-.45c.54-.52,1.19-.74.84-1.82a1.57,1.57,0,0,0-.19-.39h0C46.32,11.37,46.79,12.23,46.79,13.29Z"/><path class="cls-29" d="M45.72,12a.09.09,0,0,1-.08.09.09.09,0,0,1,0-.18A.09.09,0,0,1,45.72,12Z"/><path class="cls-29" d="M45.78,12.73a.09.09,0,1,1-.18,0,.09.09,0,1,1,.18,0Z"/><path class="cls-29" d="M45.55,12.32a.09.09,0,0,1-.08.09.09.09,0,0,1,0-.18A.09.09,0,0,1,45.55,12.32Z"/><path class="cls-29" d="M45.87,12.47a.09.09,0,1,1-.18,0,.09.09,0,1,1,.18,0Z"/><path class="cls-29" d="M45.2,13.3a.12.12,0,1,1-.24,0,.12.12,0,1,1,.24,0Z"/><path class="cls-29" d="M45.78,13.26a.18.18,0,0,1-.17.19.17.17,0,0,1-.17-.19.18.18,0,0,1,.17-.19A.19.19,0,0,1,45.78,13.26Z"/><path class="cls-29" d="M45.17,13.81a.16.16,0,1,1-.16-.17A.17.17,0,0,1,45.17,13.81Z"/><path class="cls-30" d="M45.74,15.26c-.61,0-1.1-.88-1.1-2s.49-2,1.1-2,1.09.88,1.09,2S46.34,15.26,45.74,15.26Zm0-3.84c-.56,0-1,.84-1,1.87s.46,1.88,1,1.88,1-.84,1-1.88S46.3,11.42,45.74,11.42Z"/><rect class="cls-8" x="45.09" y="9.48" width="1.18" height="0.95"/><rect class="cls-8" x="45.4" y="7.68" width="0.6" height="1.8"/><rect class="cls-31" x="45.4" y="9.34" width="0.6" height="0.14"/><path class="cls-8" d="M45.18,7.06a.52.52,0,0,0,.7.43c.36-.13.7-.83,1.64-.31a1.33,1.33,0,0,1,.26.21l-.16.34a3.1,3.1,0,0,0-.78-.08,1.77,1.77,0,0,0-.45.18,1.37,1.37,0,0,1-.7.2,1.15,1.15,0,0,1-1-.61Z"/><rect class="cls-32" x="40.36" y="6.96" width="0.96" height="8.76"/><path class="cls-32" d="M42.2,14.69a.18.18,0,1,1-.18-.2A.19.19,0,0,1,42.2,14.69Z"/><path class="cls-8" d="M40,15.35a.18.18,0,1,1-.36,0,.18.18,0,1,1,.36,0Z"/><path class="cls-32" d="M42.47,10.58a.14.14,0,1,1-.28,0,5,5,0,0,1,.11-.52A3.52,3.52,0,0,1,42.47,10.58Z"/><path class="cls-32" d="M40.11,13a.16.16,0,1,1-.31,0,4.48,4.48,0,0,1,.16-.58A4.71,4.71,0,0,1,40.11,13Z"/><path class="cls-8" d="M41.23,14.19a.2.2,0,0,1-.2.21.2.2,0,0,1-.19-.21,4.47,4.47,0,0,1,.19-.65A4.31,4.31,0,0,1,41.23,14.19Z"/><path class="cls-33" d="M38.65,59.31c-.5,1.91-2.63,3.47-3.89,4.25-.56.34-.95.53-.95.53s-.74-1.29-1.66-2.73-2.28-3.36-3-3.73C27.82,56.94,24,52.5,23.54,52s-1.67-1.3-2.09-1.71A12.76,12.76,0,0,1,20.38,49s-.87-.45-.79-1.06,2.05.44,2.05.44l1.65,1.22a5.2,5.2,0,0,0,1.4.9c.37,0-2.47-2.75-2.47-2.75l-.51-.32-1.55-1A9.51,9.51,0,0,1,18.77,46c-.89-.31-.94-1-.49-1.31s2.65.48,2.65.48L23.1,46.2a12.09,12.09,0,0,0,2.48,2.1c.32.1-2.19-3-2.19-3-1.17-.07-2.43-2-2.43-2s-1.69,0-2.11-.42a1.08,1.08,0,0,1,.2-1.57c.52-.34,3.2.82,3.2.82l2.56,1.48,2.63,3.18L25.36,43.6c-.68,0-1.93-1.4-1.93-1.4a7.76,7.76,0,0,1-1.86-1.08c-.55-.55-.36-.81.15-1.16s3.11,1,4.72,2a13.15,13.15,0,0,1,3.78,4.87c.2.83,2.48,2.09,2,1.61s-1.8-3-1.69-3.78.19-2.43.93-2.38a1,1,0,0,1,.51.2,6,6,0,0,1,1.56,2.21s0,0,0,.06a26.12,26.12,0,0,0,3.4,4.55c.67.65-.28,5.58-.42,6.74S38.65,59.31,38.65,59.31Z"/><path class="cls-34" d="M38.65,59.31c-.5,1.91-2.63,3.47-3.89,4.25-.56.34-.95.53-.95.53s-.74-1.29-1.66-2.73-2.28-3.36-3-3.73C27.82,56.94,24,52.5,23.54,52s-1.67-1.3-2.09-1.71A12.76,12.76,0,0,1,20.38,49s-.87-.45-.79-1.06,2.05.44,2.05.44l1.65,1.22a5.2,5.2,0,0,0,1.4.9c.37,0-2.47-2.75-2.47-2.75l-.51-.32-1.55-1A9.51,9.51,0,0,1,18.77,46c-.89-.31-.94-1-.49-1.31s2.65.48,2.65.48L23.1,46.2a12.09,12.09,0,0,0,2.48,2.1c.32.1-2.19-3-2.19-3-1.17-.07-2.43-2-2.43-2s-1.69,0-2.11-.42a1.08,1.08,0,0,1,.2-1.57c.52-.34,3.2.82,3.2.82l2.56,1.48,2.63,3.18L25.36,43.6c-.68,0-1.93-1.4-1.93-1.4a7.76,7.76,0,0,1-1.86-1.08c-.55-.55-.36-.81.15-1.16s3.11,1,4.72,2a13.15,13.15,0,0,1,3.78,4.87c.2.83,2.48,2.09,2,1.61s-1.8-3-1.69-3.78.19-2.43.93-2.38a1,1,0,0,1,.51.2,6,6,0,0,1,1.56,2.21s0,0,0,.06a26.12,26.12,0,0,0,3.4,4.55c.67.65-.28,5.58-.42,6.74S38.65,59.31,38.65,59.31Z"/><path class="cls-10" d="M35.44,62.8c-.08.07-2.62,3.31-6,3.83,0,0-2.48-1.92-3.91-1.83h-.22c-1.7.13-7.29.7-8,.16a34.33,34.33,0,0,0-5.47-2.89A7.89,7.89,0,0,1,9,60.63a.61.61,0,0,1-.15-.33c0-.61,1.95-.64,2.94-.7a13.41,13.41,0,0,1,4.58,1.48c.58.42-.91-1.47-1.91-1.66a16.91,16.91,0,0,1-5.87-3.21c-1.27-1.34-2.81-3.5-2.37-3.91a1,1,0,0,1,1.43-.09,6.18,6.18,0,0,1,1.28,1.54s1.62,1.06,1.66,1.62l3.91,1.78-3.64-2.36-1.93-2S7.57,50.57,8,50.16s1.06-.13,1.55.22a3.71,3.71,0,0,1,.84,1.52,6.58,6.58,0,0,1,1.9,1.28L16.4,56l.08-.06c0-.61-2.66-2.36-2.66-2.36l-1.23-1.8s-.91-1.81-.52-2.18a1,1,0,0,1,1.59.44,5.38,5.38,0,0,1,.44,1.14l1.61,1.72,3.45,2.41s.64.32.62,0-1.84-1.51-1.84-1.51l-1.45-1.37s-1.23-1.65-.48-1.7a1.69,1.69,0,0,1,1.27.68,16.41,16.41,0,0,1,1.63.91c.49.35,1.48,1.35,2,1.75s5.89,3.62,6.71,4.73a2.16,2.16,0,0,0,.44.41h0A58.88,58.88,0,0,0,35.44,62.8Z"/><path class="cls-35" d="M33.51,44.72a.63.63,0,0,1-.63,0,10.56,10.56,0,0,1-1.37-2.06l.44-.19A6,6,0,0,1,33.51,44.72Z"/><path class="cls-36" d="M26.77,51.16a1.54,1.54,0,0,0,1.42-.9,1.27,1.27,0,0,0,.06-.44,1.12,1.12,0,0,0,1.09-.54,1.9,1.9,0,0,0,.28-.64,2.55,2.55,0,0,1-.52.78,1,1,0,0,1-.9.25l-.11,0a1.17,1.17,0,0,1-.84,1.25,1.91,1.91,0,0,1-.65.13s.25.7-1.46,1.34C25.86,52.2,26.72,51.77,26.77,51.16Z"/><path class="cls-36" d="M25.92,53.56c1.74-1.48,3.7-3.41,4.72-4.09A23.23,23.23,0,0,0,25.92,53.56Z"/><path class="cls-36" d="M31.53,55.8a6,6,0,0,1,0-2.67,7,7,0,0,1,.74-2.64,7.86,7.86,0,0,1,1-1.29c.16-.31-.68-.62-1.06-.74a2.35,2.35,0,0,1,1,.57c.06.1,0,.19-.11.27a5.51,5.51,0,0,0-1.76,3.81,5.84,5.84,0,0,0,.08,2.73,2.78,2.78,0,0,0,2.83,1.1,4.09,4.09,0,0,1-1.61-.23A1.81,1.81,0,0,1,31.53,55.8Z"/><path class="cls-35" d="M11.82,61.16c0,.23-.27.54-.5.74A5.67,5.67,0,0,1,9,60.63l.37-.37S11.8,60.79,11.82,61.16Z"/><path class="cls-37" d="M25.22,62.16a3,3,0,0,0-2.06-1.46,19.61,19.61,0,0,0-4.58.93l1.83-.37c2.53-.5,2.83-.53,3.54-.16A4.36,4.36,0,0,1,25.22,62.16Z"/><path class="cls-37" d="M18.91,57.62a3,3,0,0,0,1.58-.24,5.74,5.74,0,0,0,1.24-1,8,8,0,0,1-1.32.88,3.42,3.42,0,0,1-1.6.19l-.15,0a.59.59,0,0,1,.05.37A1.9,1.9,0,0,1,17,59C18.06,59,19,58.22,18.91,57.62Z"/><path class="cls-37" d="M19.26,58.51c1.55-.58,3.29-1.41,4.1-1.56A11.81,11.81,0,0,0,19.26,58.51Z"/><path class="cls-37" d="M28.1,59.24h0c-.18,1-1,1.69-1.07,2.28s.08,1.14-.07,1.63a3.26,3.26,0,0,1-1.42,1.65h-.21a3.44,3.44,0,0,0,1.3-1.71,1.67,1.67,0,0,0,0-.5,2.39,2.39,0,0,1,.53-2.17A3.53,3.53,0,0,0,27.85,59Z"/><path class="cls-32" d="M18.64,32.77l1.52,23.56a10.77,10.77,0,0,1-2.68.88c-.93.06-1.78.46-1.73,1.14s-1.36.24-1.3,1.07,1.94,1.2,1.89.39a2.49,2.49,0,0,1,1-1.83c.39-.37,1.56-.46,1.91-.78s1,.08,2.09-.29.11.64,1.62,1-.93,1.46-2,1.83S15,61.2,14.63,62.21A6.59,6.59,0,0,0,14.24,64s-.53,2.42.22,3.39,1.13.18,1.08-.58S14,64.06,14.7,63.44s0-1.44.59-1.48,3.1-.15,4.1-1.07,3.66-.33,4.15-.78,3.56-.7,4.43-1-4.58-3.42-5.44-4-2-22.46-2-22.46Z"/><path class="cls-32" d="M16.57,69.06c0,.17-.15.32-.36.34a.36.36,0,0,1-.4-.29c0-.17.2-2,.2-2S16.56,68.89,16.57,69.06Z"/><path class="cls-38" d="M20.5,40.14c0,.19-.17.36-.41.38a.41.41,0,0,1-.46-.33c0-.19.29-2.33.29-2.33S20.49,39.94,20.5,40.14Z"/><path class="cls-38" d="M21.32,46.07a.39.39,0,0,1-.41.38.4.4,0,0,1-.46-.32c0-.2.29-2.34.29-2.34S21.31,45.87,21.32,46.07Z"/><path class="cls-32" d="M23,51.77a.41.41,0,0,1-.42.38.4.4,0,0,1-.46-.33c0-.19.29-2.33.29-2.33S23,51.57,23,51.77Z"/><path class="cls-38" d="M22.6,58.13a.36.36,0,0,1-.36.34.36.36,0,0,1-.4-.29.35.35,0,0,1,.36-.33A.34.34,0,0,1,22.6,58.13Z"/><ellipse class="cls-38" cx="18.99" cy="56.05" rx="0.44" ry="0.36" transform="translate(-3.55 1.33) rotate(-3.67)"/><path class="cls-38" d="M23.13,55a.35.35,0,0,1-.36.33.32.32,0,1,1,0-.62A.36.36,0,0,1,23.13,55Z"/><path class="cls-38" d="M23.7,53c0,.16-.13.29-.33.31a.33.33,0,0,1-.37-.27.32.32,0,0,1,.34-.3A.31.31,0,0,1,23.7,53Z"/><polygon class="cls-39" points="60.95 83.93 58.12 80.64 62.19 80.29 63.42 81.2 63.69 82.08 60.95 83.93"/><path class="cls-39" d="M74,80.55c0-.17,1.92-3.58,1.92-3.58l-4.39.91-3.27,2.26a11.73,11.73,0,0,0,1.06,1,7.58,7.58,0,0,1,.89.69Z"/><path class="cls-28" d="M78.86,77.75s-3.12,2.37-3.92,5.34,1.85,6.07,1.85,6.07,4.66,18.06,3.23,18.5-6.7,1.28-6.7,1.28l-.53-.34-6.39,2.45-2.9-.18L62,98.06l-3.95-2.23.31-3.18-4.2.69s-2.81-4.3-1.79-5.85A16.3,16.3,0,0,1,53.51,86c.86-1,1.79-2,2-2.28l.05,0,0,0s0,2.37.66,2.17,5.45-2.9,6.37-4.31a.48.48,0,0,0,.08-.18h0c.36-1.18-4.61-.69-4.61-.69s2-.93,4.58-1.93c.59-.23,1.22-.46,1.87-.68a26.13,26.13,0,0,1,7.73-1.72c5,0,3.31.93,3.31.93s-7.86,1.88-6.51,3.48S78.86,77.75,78.86,77.75Z"/><path class="cls-40" d="M65.93,90.7s-7.49-2.42-8.59-2.88S53.51,86,53.51,86c.63-.78,1.45-1.66,2.09-2.32l0,0s0,2.37.66,2.17Z"/><path class="cls-40" d="M62.73,81.33c.36-1.18-4.61-.69-4.61-.69s2-.93,4.58-1.93l6.56,11.82-6.53-9.2Z"/><path class="cls-40" d="M75.61,77.24s-7.86,1.88-6.51,3.48l4.61,9.82L64.57,78a26.13,26.13,0,0,1,7.73-1.72C77.29,76.33,75.61,77.24,75.61,77.24Z"/><polygon class="cls-40" points="70.52 94.15 73.32 108.94 72.79 108.6 70.52 94.15"/><path class="cls-12" d="M97.24,99c-.36.65-.63,1.06-.63,1.06s-7.51-3.16-10.08-3.49S64.7,93.05,64.7,93.05s1.8-6.83,4.49-7.65a25.51,25.51,0,0,1,8.58-.81c2.14.22,5.71,1.9,8.11,2.35s10,.66,12.07,2.24C100.93,91.51,98.5,96.71,97.24,99Z"/><path class="cls-41" d="M97.24,99c-.36.65-.63,1.06-.63,1.06s-7.51-3.16-10.08-3.49S64.7,93.05,64.7,93.05s1.8-6.83,4.49-7.65a25.51,25.51,0,0,1,8.58-.81A28.55,28.55,0,0,1,83,86.12c3.92,4.42,9.65,10.64,11.56,11.45A20,20,0,0,1,97.24,99Z"/><path class="cls-10" d="M78.74,109.54c.19-2.47-1.43-6.34-4-7.4a92.61,92.61,0,0,1-9.06-4.66,29.39,29.39,0,0,0-2.78-2.12,9.32,9.32,0,0,1-1.57-1.73c-.11-.37-.17-.79.31-1,.2-.12.83-.3,1-.18,0,0,0,0,0,0a7.24,7.24,0,0,0-2-2.17c-1.3-.89-1-1.37-.6-2,.32-.45,1.13-.23,1.31-.17h0s-1.89-1.36-1.53-1.9a2.26,2.26,0,0,1,1.84-1,5.21,5.21,0,0,1,2.09.79c-.17-.19-.39-.56-.24-.79s.36-1.14,2.46-1A4.75,4.75,0,0,1,68.8,85s3.27,1.69,3.7,1.56c.83-.26,3.69.28,4.5.44,2.82.56,7.6,5,8.46,7.85s5.11,11.45,5.12,11.47C92.42,108.68,78.55,112,78.74,109.54Z"/><path class="cls-42" d="M64.77,84.36l1.94,1.06a1.22,1.22,0,0,1-.77,1c-.1,0-2.21-.81-2.21-.81S64.07,84.45,64.77,84.36Z"/><path class="cls-42" d="M61,85.71l1.87,1.15a1.27,1.27,0,0,1-.83.94c-.1,0-1.94-1.22-1.94-1.22S60.27,85.77,61,85.71Z"/><path class="cls-42" d="M60.67,88.23l1.87,1.15a1.25,1.25,0,0,1-.83.94c-.09,0-1.94-1.22-1.94-1.22S60,88.29,60.67,88.23Z"/><path class="cls-42" d="M62.12,92.84l1,.6a1.18,1.18,0,0,1-.7.78,8.6,8.6,0,0,1-1-.76A.89.89,0,0,1,62.12,92.84Z"/><path class="cls-43" d="M86,96.3c-4-.31-7,2.39-7.73,2.1-.39-.16-.58-3.08-1.94-6.34,0,0-.65-1.2-.79-1.53-.66-1.6-2.15-2.87-2.6-4A21.27,21.27,0,0,1,77,87c2.82.56,7.6,5,8.46,7.85C85.59,95.29,85.82,95.91,86,96.3Z"/><path class="cls-43" d="M75.93,91.86c0,.12-.3.07-.86-.07h0c-2-.52-7-2.35-7-2.35s-4.7-3.52-7.2-4.11a2.4,2.4,0,0,1,.86-.18,5.21,5.21,0,0,1,2.09.79s2,1.47,2.37,1.61,3.43,2.15,3.43,2.15,4.14.69,4.59.88l.46.22C75.16,91.06,75.81,91.48,75.93,91.86Z"/><path class="cls-43" d="M74,95.43c-.24.38-10.29-4.37-11.51-5.41-.72-.61-1.71-1.35-2.4-1.85.32-.45,1.13-.23,1.31-.17h0a10.37,10.37,0,0,0,2.21,1.37,20.14,20.14,0,0,1,4.13,2.57A29.46,29.46,0,0,0,72,94.35C72.39,94.52,74.22,95.06,74,95.43Z"/><path class="cls-43" d="M66,95.67c-.69-.3-2.51-2.25-4.3-3.09.2-.12.83-.3,1-.18,0,0,0,0,0,0l3,2.46s4.43,1.15,5.11,1.81S66.85,96,66,95.67Z"/><path class="cls-39" d="M85.2,95.74a25.68,25.68,0,0,1-3.69-.28c0-.18.37-.63,1.49-1a5,5,0,0,0,1.44-.6Z"/><path class="cls-15" d="M79.15,86.77a10.82,10.82,0,0,0,3.09.81c2.33.19,7.28,5.2,7.28,5.2s-7.3,1.59-8,2.68c0,0-5.22-8.58-6.17-8.72A5.64,5.64,0,0,1,79.15,86.77Z"/></g></g></g></svg>