<svg xmlns="http://www.w3.org/2000/svg" xmlns:xlink="http://www.w3.org/1999/xlink" viewBox="0 0 560.42 500"><defs><style>.cls-1{fill:none;}.cls-2{fill:#7ab483;}.cls-3{fill:#cbe4cb;}.cls-4{opacity:0.88;font-size:44.96px;font-family:Quicksand-Bold, Quicksand;font-weight:700;letter-spacing:0.1em;}.cls-4,.cls-9{fill:#fff;}.cls-5{letter-spacing:0.1em;}.cls-6{letter-spacing:0.1em;}.cls-7{clip-path:url(#clip-path);}.cls-8{opacity:0.78;}.cls-10{fill:#8fd4dd;}.cls-11{fill:#a6b9ba;}.cls-12{fill:#3b99ae;}.cls-13{fill:#ebece7;}.cls-14{fill:#e4e3e1;}.cls-15{opacity:0.33;}.cls-16{fill:#828888;}.cls-17{fill:#f3f9f9;}.cls-18{fill:#727273;}.cls-19{fill:#85c4d5;}.cls-20{fill:#38595a;opacity:0.27;}.cls-21{fill:#b0cbca;}.cls-22{fill:#97c5d1;}.cls-23{fill:#9cd0d1;}.cls-24{fill:#779f9f;}.cls-25{clip-path:url(#clip-path-2);}.cls-26{clip-path:url(#clip-path-3);}.cls-27{clip-path:url(#clip-path-4);}.cls-28{clip-path:url(#clip-path-5);}.cls-29{clip-path:url(#clip-path-6);}.cls-30{clip-path:url(#clip-path-7);}.cls-31{fill:#331c16;}.cls-32{fill:#99b7e0;}.cls-33{fill:#f5d5cf;}.cls-34{fill:#6fc3be;}.cls-35{fill:#d0a49c;}.cls-36{fill:#d7a39a;}.cls-37{fill:#be847b;}.cls-38{clip-path:url(#clip-path-8);}.cls-39{fill:#e9b3a6;}.cls-40{fill:#5b3c33;}.cls-41{fill:#ef8f76;}.cls-42,.cls-43{fill:#d0e8d4;}.cls-43{stroke:#caeaf4;stroke-miterlimit:10;}.cls-44{fill:#74aa75;}.cls-45{fill:#706a65;}.cls-46{fill:#8887af;}.cls-47{fill:#588b60;opacity:0.77;}</style><clipPath id="clip-path" transform="translate(26.56)"><rect class="cls-1" width="500.06" height="343.54"/></clipPath><clipPath id="clip-path-2" transform="translate(26.56)"><polygon class="cls-1" points="412 252.67 394.14 252.67 390.31 210.06 415.62 210.06 412 252.67"/></clipPath><clipPath id="clip-path-3" transform="translate(26.56)"><polygon class="cls-1" points="382.83 252.67 364.97 252.67 361.14 210.06 386.45 210.06 382.83 252.67"/></clipPath><clipPath id="clip-path-4" transform="translate(26.56)"><polygon class="cls-1" points="127.54 86.96 109.68 86.96 105.86 44.34 131.16 44.34 127.54 86.96"/></clipPath><clipPath id="clip-path-5" transform="translate(26.56)"><polygon class="cls-1" points="353.65 252.67 335.8 252.67 331.97 210.06 357.28 210.06 353.65 252.67"/></clipPath><clipPath id="clip-path-6" transform="translate(26.56)"><polygon class="cls-1" points="324.48 252.67 306.62 252.67 302.8 210.06 328.11 210.06 324.48 252.67"/></clipPath><clipPath id="clip-path-7" transform="translate(26.56)"><polygon class="cls-1" points="295.31 252.67 277.45 252.67 273.63 210.06 298.94 210.06 295.31 252.67"/></clipPath><clipPath id="clip-path-8" transform="translate(26.56)"><path class="cls-1" d="M356.46,133.06c-21.45,0-38.84,15.93-38.84,35.59v16.74c0,19.66,17.39,37.72,38.84,37.72s38.84-18.06,38.84-37.72V168.65C395.3,149,377.91,133.06,356.46,133.06Z"/></clipPath></defs><title>資產 2</title><g id="圖層_2" data-name="圖層 2"><g id="OBJECTS"><rect class="cls-2" x="26.56" y="70.11" width="500" height="429.89"/><rect class="cls-3" x="26.56" width="500" height="369.33"/><text class="cls-4" transform="translate(140.78 437.77)">PHARM<tspan class="cls-5" x="178.34" y="0">A</tspan><tspan class="cls-6" x="211.33" y="0">CY</tspan></text><g class="cls-7"><g class="cls-8"><rect class="cls-9" x="277.69" y="26.81" width="7.75" height="322.55"/><rect class="cls-9" x="92.05" y="26.81" width="7.75" height="322.55"/><rect class="cls-9" x="461.46" y="26.81" width="7.75" height="322.55"/><rect class="cls-9" y="95.85" width="560.42" height="8.44"/><rect class="cls-9" y="22.59" width="560.42" height="8.44"/><rect class="cls-9" x="54.05" y="293.93" width="26.15" height="49.9"/><path class="cls-10" d="M28.05,300.84a28.23,28.23,0,0,1,25.59,16.31V293.93H27.49v6.92Z" transform="translate(26.56)"/><rect class="cls-11" x="58.87" y="323.8" width="16.52" height="2.75" rx="1.23"/><rect class="cls-11" x="58.87" y="328.67" width="16.52" height="2.75" rx="1.23"/><rect class="cls-11" x="58.87" y="333.64" width="16.52" height="2.75" rx="1.23"/><rect class="cls-9" x="16.33" y="293.93" width="26.15" height="49.9"/><path class="cls-10" d="M-9.67,300.84a28.23,28.23,0,0,1,25.59,16.31V293.93H-10.23v6.92Z" transform="translate(26.56)"/><rect class="cls-11" x="21.15" y="323.8" width="16.52" height="2.75" rx="1.23"/><rect class="cls-11" x="21.15" y="328.67" width="16.52" height="2.75" rx="1.23"/><rect class="cls-11" x="21.15" y="333.64" width="16.52" height="2.75" rx="1.23"/><rect class="cls-9" x="379.02" y="128" width="26.15" height="49.9"/><path class="cls-10" d="M353,134.91a28.23,28.23,0,0,1,25.59,16.31V128H352.46v6.92Z" transform="translate(26.56)"/><rect class="cls-11" x="383.84" y="157.87" width="16.52" height="2.75" rx="1.23"/><rect class="cls-11" x="383.84" y="162.74" width="16.52" height="2.75" rx="1.23"/><rect class="cls-11" x="383.84" y="167.71" width="16.52" height="2.75" rx="1.23"/><rect class="cls-9" x="116.25" y="295.27" width="26.15" height="49.9"/><path class="cls-10" d="M90.25,302.18a28.22,28.22,0,0,1,25.59,16.3V295.27H89.69v6.92Z" transform="translate(26.56)"/><rect class="cls-11" x="121.07" y="325.13" width="16.52" height="2.75" rx="1.23"/><rect class="cls-11" x="121.07" y="330.01" width="16.52" height="2.75" rx="1.23"/><rect class="cls-11" x="121.07" y="334.97" width="16.52" height="2.75" rx="1.23"/><rect class="cls-9" x="345.99" y="128" width="26.15" height="49.9"/><path class="cls-10" d="M320,134.91a28.23,28.23,0,0,1,25.59,16.31V128H319.43v6.92Z" transform="translate(26.56)"/><rect class="cls-11" x="350.81" y="157.87" width="16.52" height="2.75" rx="1.23"/><rect class="cls-11" x="350.81" y="162.74" width="16.52" height="2.75" rx="1.23"/><rect class="cls-11" x="350.81" y="167.71" width="16.52" height="2.75" rx="1.23"/><rect class="cls-9" x="312.96" y="128" width="26.15" height="49.9"/><path class="cls-10" d="M287,134.91a28.24,28.24,0,0,1,25.59,16.31V128H286.4v6.92Z" transform="translate(26.56)"/><rect class="cls-11" x="317.78" y="157.87" width="16.52" height="2.75" rx="1.23"/><rect class="cls-11" x="317.78" y="162.74" width="16.52" height="2.75" rx="1.23"/><rect class="cls-11" x="317.78" y="167.71" width="16.52" height="2.75" rx="1.23"/><rect class="cls-12" x="200.65" y="294.35" width="26.15" height="49.9"/><path class="cls-13" d="M174.65,301.26a28.24,28.24,0,0,1,25.59,16.31V294.35H174.09v6.92Z" transform="translate(26.56)"/><rect class="cls-13" x="205.47" y="324.21" width="16.52" height="2.75" rx="1.23"/><rect class="cls-13" x="205.47" y="329.09" width="16.52" height="2.75" rx="1.23"/><rect class="cls-13" x="205.47" y="334.05" width="16.52" height="2.75" rx="1.23"/><rect class="cls-12" x="497" y="294.35" width="26.15" height="49.9"/><path class="cls-13" d="M471,301.26a28.21,28.21,0,0,1,25.58,16.31V294.35H470.44v6.92Z" transform="translate(26.56)"/><rect class="cls-13" x="501.81" y="324.21" width="16.52" height="2.75" rx="1.23"/><rect class="cls-13" x="501.81" y="329.09" width="16.52" height="2.75" rx="1.23"/><rect class="cls-13" x="501.81" y="334.05" width="16.52" height="2.75" rx="1.23"/><rect class="cls-12" x="482.92" y="46.49" width="26.15" height="49.9"/><path class="cls-13" d="M456.92,53.4a28.24,28.24,0,0,1,25.59,16.31V46.49H456.36v6.93Z" transform="translate(26.56)"/><rect class="cls-13" x="487.73" y="76.36" width="16.52" height="2.75" rx="1.23"/><rect class="cls-13" x="487.73" y="81.23" width="16.52" height="2.75" rx="1.23"/><rect class="cls-13" x="487.73" y="86.2" width="16.52" height="2.75" rx="1.23"/><rect class="cls-12" x="160.87" y="294.35" width="26.15" height="49.9"/><path class="cls-13" d="M134.88,301.26a28.21,28.21,0,0,1,25.58,16.31V294.35H134.32v6.92Z" transform="translate(26.56)"/><rect class="cls-13" x="165.69" y="324.21" width="16.52" height="2.75" rx="1.23"/><rect class="cls-13" x="165.69" y="329.09" width="16.52" height="2.75" rx="1.23"/><rect class="cls-13" x="165.69" y="334.05" width="16.52" height="2.75" rx="1.23"/><rect class="cls-14" x="330.35" y="286.08" width="33.3" height="58.51" rx="5.66"/><g class="cls-15"><line class="cls-11" x1="347.02" y1="292.45" x2="347.02" y2="338.39"/><path class="cls-16" d="M320.46,339.17a.79.79,0,0,1-.79-.78V292.45a.79.79,0,0,1,1.58,0v45.94A.78.78,0,0,1,320.46,339.17Z" transform="translate(26.56)"/></g><path class="cls-10" d="M315.17,295.34a3.05,3.05,0,1,1-3.05-3A3,3,0,0,1,315.17,295.34Z" transform="translate(26.56)"/><path class="cls-16" d="M312.12,299a3.64,3.64,0,1,1,3.64-3.64A3.64,3.64,0,0,1,312.12,299Zm0-6.1a2.46,2.46,0,1,0,2.46,2.46A2.46,2.46,0,0,0,312.12,292.88Z" transform="translate(26.56)"/><path class="cls-10" d="M331.6,295.34a3.05,3.05,0,1,1-3.05-3A3,3,0,0,1,331.6,295.34Z" transform="translate(26.56)"/><path class="cls-16" d="M328.55,299a3.64,3.64,0,1,1,3.64-3.64A3.65,3.65,0,0,1,328.55,299Zm0-6.1a2.46,2.46,0,1,0,2.46,2.46A2.47,2.47,0,0,0,328.55,292.88Z" transform="translate(26.56)"/><path class="cls-10" d="M315.17,308.34a3.05,3.05,0,1,1-3.05-3A3,3,0,0,1,315.17,308.34Z" transform="translate(26.56)"/><path class="cls-16" d="M312.12,312a3.64,3.64,0,1,1,3.64-3.64A3.64,3.64,0,0,1,312.12,312Zm0-6.1a2.46,2.46,0,1,0,2.46,2.46A2.46,2.46,0,0,0,312.12,305.88Z" transform="translate(26.56)"/><path class="cls-10" d="M331.6,308.34a3.05,3.05,0,1,1-3.05-3A3,3,0,0,1,331.6,308.34Z" transform="translate(26.56)"/><path class="cls-16" d="M328.55,312a3.64,3.64,0,1,1,3.64-3.64A3.65,3.65,0,0,1,328.55,312Zm0-6.1a2.46,2.46,0,1,0,2.46,2.46A2.47,2.47,0,0,0,328.55,305.88Z" transform="translate(26.56)"/><path class="cls-10" d="M315.17,321.34a3.05,3.05,0,1,1-3.05-3A3,3,0,0,1,315.17,321.34Z" transform="translate(26.56)"/><path class="cls-16" d="M312.12,325a3.64,3.64,0,1,1,3.64-3.64A3.64,3.64,0,0,1,312.12,325Zm0-6.1a2.46,2.46,0,1,0,2.46,2.46A2.46,2.46,0,0,0,312.12,318.88Z" transform="translate(26.56)"/><path class="cls-10" d="M331.6,321.34a3.05,3.05,0,1,1-3.05-3A3,3,0,0,1,331.6,321.34Z" transform="translate(26.56)"/><path class="cls-16" d="M328.55,325a3.64,3.64,0,1,1,3.64-3.64A3.65,3.65,0,0,1,328.55,325Zm0-6.1a2.46,2.46,0,1,0,2.46,2.46A2.47,2.47,0,0,0,328.55,318.88Z" transform="translate(26.56)"/><path class="cls-10" d="M315.17,334.34a3.05,3.05,0,1,1-3.05-3A3,3,0,0,1,315.17,334.34Z" transform="translate(26.56)"/><path class="cls-16" d="M312.12,338a3.65,3.65,0,1,1,3.64-3.65A3.65,3.65,0,0,1,312.12,338Zm0-6.11a2.46,2.46,0,1,0,2.46,2.46A2.46,2.46,0,0,0,312.12,331.88Z" transform="translate(26.56)"/><path class="cls-10" d="M331.6,334.34a3.05,3.05,0,1,1-3.05-3A3,3,0,0,1,331.6,334.34Z" transform="translate(26.56)"/><path class="cls-16" d="M328.55,338a3.65,3.65,0,1,1,3.64-3.65A3.66,3.66,0,0,1,328.55,338Zm0-6.11a2.46,2.46,0,1,0,2.46,2.46A2.47,2.47,0,0,0,328.55,331.88Z" transform="translate(26.56)"/><circle class="cls-17" cx="339.45" cy="294.08" r="0.77"/><circle class="cls-17" cx="355.89" cy="294.08" r="0.77"/><path class="cls-17" d="M313.67,307.34a.78.78,0,0,1-.78.78.78.78,0,1,1,.78-.78Z" transform="translate(26.56)"/><path class="cls-17" d="M330.1,307.34a.78.78,0,1,1-.77-.77A.78.78,0,0,1,330.1,307.34Z" transform="translate(26.56)"/><path class="cls-17" d="M313.67,320.22a.78.78,0,0,1-.78.77.78.78,0,0,1,0-1.55A.78.78,0,0,1,313.67,320.22Z" transform="translate(26.56)"/><path class="cls-17" d="M330.1,320.22a.78.78,0,1,1-.77-.78A.78.78,0,0,1,330.1,320.22Z" transform="translate(26.56)"/><path class="cls-17" d="M313.67,333.09a.78.78,0,0,1-.78.78.77.77,0,0,1-.77-.78.76.76,0,0,1,.77-.77A.77.77,0,0,1,313.67,333.09Z" transform="translate(26.56)"/><path class="cls-17" d="M330.1,333.09a.78.78,0,1,1-.77-.77A.77.77,0,0,1,330.1,333.09Z" transform="translate(26.56)"/><rect class="cls-14" x="217.71" y="37.31" width="33.3" height="58.51" rx="5.66"/><g class="cls-15"><line class="cls-11" x1="234.38" y1="43.68" x2="234.38" y2="89.61"/><path class="cls-16" d="M207.82,90.4a.78.78,0,0,1-.78-.79V43.68a.79.79,0,1,1,1.57,0V89.61A.79.79,0,0,1,207.82,90.4Z" transform="translate(26.56)"/></g><circle class="cls-12" cx="226.04" cy="46.57" r="3.05"/><path class="cls-16" d="M199.48,50.21a3.64,3.64,0,1,1,3.64-3.64A3.64,3.64,0,0,1,199.48,50.21Zm0-6.1a2.46,2.46,0,1,0,2.46,2.46A2.46,2.46,0,0,0,199.48,44.11Z" transform="translate(26.56)"/><circle class="cls-12" cx="242.48" cy="46.57" r="3.05"/><path class="cls-16" d="M215.92,50.21a3.64,3.64,0,1,1,3.64-3.64A3.64,3.64,0,0,1,215.92,50.21Zm0-6.1a2.46,2.46,0,1,0,2.46,2.46A2.46,2.46,0,0,0,215.92,44.11Z" transform="translate(26.56)"/><circle class="cls-12" cx="226.04" cy="59.57" r="3.05"/><path class="cls-16" d="M199.48,63.21a3.64,3.64,0,1,1,3.64-3.64A3.64,3.64,0,0,1,199.48,63.21Zm0-6.1a2.46,2.46,0,1,0,2.46,2.46A2.46,2.46,0,0,0,199.48,57.11Z" transform="translate(26.56)"/><circle class="cls-12" cx="242.48" cy="59.57" r="3.05"/><path class="cls-16" d="M215.92,63.21a3.64,3.64,0,1,1,3.64-3.64A3.64,3.64,0,0,1,215.92,63.21Zm0-6.1a2.46,2.46,0,1,0,2.46,2.46A2.46,2.46,0,0,0,215.92,57.11Z" transform="translate(26.56)"/><circle class="cls-12" cx="226.04" cy="72.57" r="3.05"/><path class="cls-16" d="M199.48,76.21a3.64,3.64,0,1,1,3.64-3.64A3.64,3.64,0,0,1,199.48,76.21Zm0-6.1a2.46,2.46,0,1,0,2.46,2.46A2.46,2.46,0,0,0,199.48,70.11Z" transform="translate(26.56)"/><circle class="cls-12" cx="242.48" cy="72.57" r="3.05"/><path class="cls-16" d="M215.92,76.21a3.64,3.64,0,1,1,3.64-3.64A3.64,3.64,0,0,1,215.92,76.21Zm0-6.1a2.46,2.46,0,1,0,2.46,2.46A2.46,2.46,0,0,0,215.92,70.11Z" transform="translate(26.56)"/><path class="cls-12" d="M202.53,85.57a3,3,0,1,1-3.05-3A3,3,0,0,1,202.53,85.57Z" transform="translate(26.56)"/><path class="cls-16" d="M199.48,89.21a3.64,3.64,0,1,1,3.64-3.64A3.64,3.64,0,0,1,199.48,89.21Zm0-6.1a2.46,2.46,0,1,0,2.46,2.46A2.46,2.46,0,0,0,199.48,83.11Z" transform="translate(26.56)"/><path class="cls-12" d="M219,85.57a3,3,0,1,1-3.05-3A3,3,0,0,1,219,85.57Z" transform="translate(26.56)"/><path class="cls-16" d="M215.92,89.21a3.64,3.64,0,1,1,3.64-3.64A3.64,3.64,0,0,1,215.92,89.21Zm0-6.1a2.46,2.46,0,1,0,2.46,2.46A2.46,2.46,0,0,0,215.92,83.11Z" transform="translate(26.56)"/><path class="cls-17" d="M201,45.3a.78.78,0,1,1-.77-.77A.77.77,0,0,1,201,45.3Z" transform="translate(26.56)"/><path class="cls-17" d="M217.47,45.3a.78.78,0,0,1-.78.78.77.77,0,0,1-.77-.78.76.76,0,0,1,.77-.77A.77.77,0,0,1,217.47,45.3Z" transform="translate(26.56)"/><path class="cls-17" d="M201,58.57a.78.78,0,1,1-.77-.77A.77.77,0,0,1,201,58.57Z" transform="translate(26.56)"/><path class="cls-17" d="M217.47,58.57a.77.77,0,0,1-.78.77.77.77,0,0,1,0-1.54A.77.77,0,0,1,217.47,58.57Z" transform="translate(26.56)"/><path class="cls-17" d="M201,71.44a.78.78,0,1,1-.77-.77A.78.78,0,0,1,201,71.44Z" transform="translate(26.56)"/><path class="cls-17" d="M217.47,71.44a.78.78,0,0,1-.78.78.78.78,0,1,1,.78-.78Z" transform="translate(26.56)"/><path class="cls-17" d="M201,84.32a.78.78,0,0,1-1.55,0,.78.78,0,1,1,1.55,0Z" transform="translate(26.56)"/><path class="cls-17" d="M217.47,84.32a.77.77,0,0,1-.78.77.76.76,0,0,1-.77-.77.77.77,0,0,1,.77-.78A.78.78,0,0,1,217.47,84.32Z" transform="translate(26.56)"/><rect class="cls-14" x="172.15" y="37.31" width="33.3" height="58.51" rx="5.66"/><g class="cls-15"><line class="cls-11" x1="188.82" y1="43.68" x2="188.82" y2="89.61"/><path class="cls-16" d="M162.27,90.4a.79.79,0,0,1-.79-.79V43.68a.79.79,0,1,1,1.57,0V89.61A.78.78,0,0,1,162.27,90.4Z" transform="translate(26.56)"/></g><circle class="cls-12" cx="180.48" cy="46.57" r="3.05"/><path class="cls-16" d="M153.92,50.21a3.64,3.64,0,1,1,3.64-3.64A3.64,3.64,0,0,1,153.92,50.21Zm0-6.1a2.46,2.46,0,1,0,2.46,2.46A2.46,2.46,0,0,0,153.92,44.11Z" transform="translate(26.56)"/><circle class="cls-12" cx="196.92" cy="46.57" r="3.05"/><path class="cls-16" d="M170.36,50.21A3.64,3.64,0,1,1,174,46.57,3.64,3.64,0,0,1,170.36,50.21Zm0-6.1a2.46,2.46,0,1,0,2.46,2.46A2.46,2.46,0,0,0,170.36,44.11Z" transform="translate(26.56)"/><circle class="cls-12" cx="180.48" cy="59.57" r="3.05"/><path class="cls-16" d="M153.92,63.21a3.64,3.64,0,1,1,3.64-3.64A3.64,3.64,0,0,1,153.92,63.21Zm0-6.1a2.46,2.46,0,1,0,2.46,2.46A2.46,2.46,0,0,0,153.92,57.11Z" transform="translate(26.56)"/><circle class="cls-12" cx="196.92" cy="59.57" r="3.05"/><path class="cls-16" d="M170.36,63.21A3.64,3.64,0,1,1,174,59.57,3.64,3.64,0,0,1,170.36,63.21Zm0-6.1a2.46,2.46,0,1,0,2.46,2.46A2.46,2.46,0,0,0,170.36,57.11Z" transform="translate(26.56)"/><circle class="cls-12" cx="180.48" cy="72.57" r="3.05"/><path class="cls-16" d="M153.92,76.21a3.64,3.64,0,1,1,3.64-3.64A3.64,3.64,0,0,1,153.92,76.21Zm0-6.1a2.46,2.46,0,1,0,2.46,2.46A2.46,2.46,0,0,0,153.92,70.11Z" transform="translate(26.56)"/><circle class="cls-12" cx="196.92" cy="72.57" r="3.05"/><path class="cls-16" d="M170.36,76.21A3.64,3.64,0,1,1,174,72.57,3.64,3.64,0,0,1,170.36,76.21Zm0-6.1a2.46,2.46,0,1,0,2.46,2.46A2.46,2.46,0,0,0,170.36,70.11Z" transform="translate(26.56)"/><path class="cls-12" d="M157,85.57a3,3,0,1,1-3.05-3A3,3,0,0,1,157,85.57Z" transform="translate(26.56)"/><path class="cls-16" d="M153.92,89.21a3.64,3.64,0,1,1,3.64-3.64A3.64,3.64,0,0,1,153.92,89.21Zm0-6.1a2.46,2.46,0,1,0,2.46,2.46A2.46,2.46,0,0,0,153.92,83.11Z" transform="translate(26.56)"/><path class="cls-12" d="M173.41,85.57a3,3,0,1,1-3-3A3,3,0,0,1,173.41,85.57Z" transform="translate(26.56)"/><path class="cls-16" d="M170.36,89.21A3.64,3.64,0,1,1,174,85.57,3.64,3.64,0,0,1,170.36,89.21Zm0-6.1a2.46,2.46,0,1,0,2.46,2.46A2.46,2.46,0,0,0,170.36,83.11Z" transform="translate(26.56)"/><path class="cls-17" d="M155.47,45.3a.78.78,0,1,1-.77-.77A.77.77,0,0,1,155.47,45.3Z" transform="translate(26.56)"/><path class="cls-17" d="M171.91,45.3a.78.78,0,0,1-.78.78.77.77,0,0,1-.77-.78.76.76,0,0,1,.77-.77A.77.77,0,0,1,171.91,45.3Z" transform="translate(26.56)"/><path class="cls-17" d="M155.47,58.57a.78.78,0,1,1-.77-.77A.77.77,0,0,1,155.47,58.57Z" transform="translate(26.56)"/><path class="cls-17" d="M171.91,58.57a.77.77,0,0,1-.78.77.77.77,0,0,1,0-1.54A.77.77,0,0,1,171.91,58.57Z" transform="translate(26.56)"/><path class="cls-17" d="M155.47,71.44a.78.78,0,1,1-.77-.77A.78.78,0,0,1,155.47,71.44Z" transform="translate(26.56)"/><path class="cls-17" d="M171.91,71.44a.78.78,0,0,1-.78.78.78.78,0,1,1,.78-.78Z" transform="translate(26.56)"/><path class="cls-17" d="M155.47,84.32a.78.78,0,0,1-1.55,0,.78.78,0,1,1,1.55,0Z" transform="translate(26.56)"/><path class="cls-17" d="M171.91,84.32a.77.77,0,0,1-.78.77.76.76,0,0,1-.77-.77.77.77,0,0,1,.77-.78A.78.78,0,0,1,171.91,84.32Z" transform="translate(26.56)"/><rect class="cls-14" x="47.75" y="117.7" width="33.3" height="58.51" rx="5.66"/><g class="cls-15"><line class="cls-11" x1="64.42" y1="124.07" x2="64.42" y2="170"/><path class="cls-16" d="M37.86,170.79a.79.79,0,0,1-.78-.79V124.07a.79.79,0,1,1,1.57,0V170A.79.79,0,0,1,37.86,170.79Z" transform="translate(26.56)"/></g><path class="cls-12" d="M32.57,127a3.05,3.05,0,1,1-3.05-3.06A3,3,0,0,1,32.57,127Z" transform="translate(26.56)"/><path class="cls-16" d="M29.52,130.6A3.65,3.65,0,1,1,33.16,127,3.65,3.65,0,0,1,29.52,130.6Zm0-6.11A2.47,2.47,0,1,0,32,127,2.47,2.47,0,0,0,29.52,124.49Z" transform="translate(26.56)"/><path class="cls-12" d="M49,127a3.05,3.05,0,1,1-3-3.06A3.06,3.06,0,0,1,49,127Z" transform="translate(26.56)"/><path class="cls-16" d="M46,130.6A3.65,3.65,0,1,1,49.6,127,3.65,3.65,0,0,1,46,130.6Zm0-6.11A2.47,2.47,0,1,0,48.42,127,2.47,2.47,0,0,0,46,124.49Z" transform="translate(26.56)"/><path class="cls-12" d="M32.57,140a3.05,3.05,0,1,1-3.05-3.06A3,3,0,0,1,32.57,140Z" transform="translate(26.56)"/><path class="cls-16" d="M29.52,143.6A3.65,3.65,0,1,1,33.16,140,3.65,3.65,0,0,1,29.52,143.6Zm0-6.1A2.46,2.46,0,1,0,32,140,2.46,2.46,0,0,0,29.52,137.5Z" transform="translate(26.56)"/><circle class="cls-12" cx="72.52" cy="139.96" r="3.05"/><path class="cls-16" d="M46,143.6A3.65,3.65,0,1,1,49.6,140,3.65,3.65,0,0,1,46,143.6Zm0-6.1A2.46,2.46,0,1,0,48.42,140,2.46,2.46,0,0,0,46,137.5Z" transform="translate(26.56)"/><path class="cls-12" d="M32.57,153a3.05,3.05,0,1,1-3.05-3.05A3,3,0,0,1,32.57,153Z" transform="translate(26.56)"/><path class="cls-16" d="M29.52,156.6A3.65,3.65,0,1,1,33.16,153,3.65,3.65,0,0,1,29.52,156.6Zm0-6.1A2.46,2.46,0,1,0,32,153,2.46,2.46,0,0,0,29.52,150.5Z" transform="translate(26.56)"/><circle class="cls-12" cx="72.52" cy="152.96" r="3.05"/><path class="cls-16" d="M46,156.6A3.65,3.65,0,1,1,49.6,153,3.65,3.65,0,0,1,46,156.6Zm0-6.1A2.46,2.46,0,1,0,48.42,153,2.46,2.46,0,0,0,46,150.5Z" transform="translate(26.56)"/><path class="cls-12" d="M32.57,166a3.05,3.05,0,1,1-3.05-3.05A3,3,0,0,1,32.57,166Z" transform="translate(26.56)"/><path class="cls-16" d="M29.52,169.6A3.64,3.64,0,1,1,33.16,166,3.65,3.65,0,0,1,29.52,169.6Zm0-6.1A2.46,2.46,0,1,0,32,166,2.46,2.46,0,0,0,29.52,163.5Z" transform="translate(26.56)"/><circle class="cls-12" cx="72.52" cy="165.96" r="3.05"/><path class="cls-16" d="M46,169.6A3.64,3.64,0,1,1,49.6,166,3.65,3.65,0,0,1,46,169.6Zm0-6.1A2.46,2.46,0,1,0,48.42,166,2.46,2.46,0,0,0,46,163.5Z" transform="translate(26.56)"/><path class="cls-17" d="M31.07,125.69a.78.78,0,1,1-.78-.78A.78.78,0,0,1,31.07,125.69Z" transform="translate(26.56)"/><path class="cls-17" d="M47.5,125.69a.77.77,0,1,1-1.54,0,.77.77,0,1,1,1.54,0Z" transform="translate(26.56)"/><path class="cls-17" d="M31.07,139a.78.78,0,1,1-.78-.78A.78.78,0,0,1,31.07,139Z" transform="translate(26.56)"/><path class="cls-17" d="M47.5,139a.77.77,0,1,1-.77-.78A.77.77,0,0,1,47.5,139Z" transform="translate(26.56)"/><path class="cls-17" d="M31.07,151.83a.78.78,0,1,1-.78-.77A.77.77,0,0,1,31.07,151.83Z" transform="translate(26.56)"/><path class="cls-17" d="M47.5,151.83a.77.77,0,1,1-.77-.77A.76.76,0,0,1,47.5,151.83Z" transform="translate(26.56)"/><path class="cls-17" d="M31.07,164.7a.78.78,0,1,1-.78-.77A.78.78,0,0,1,31.07,164.7Z" transform="translate(26.56)"/><path class="cls-17" d="M47.5,164.7a.77.77,0,1,1-.77-.77A.77.77,0,0,1,47.5,164.7Z" transform="translate(26.56)"/><rect class="cls-14" x="369.08" y="286.08" width="33.3" height="58.51" rx="5.66"/><g class="cls-15"><line class="cls-11" x1="385.75" y1="292.45" x2="385.75" y2="338.39"/><path class="cls-16" d="M359.19,339.17a.78.78,0,0,1-.79-.78V292.45a.79.79,0,0,1,1.58,0v45.94A.79.79,0,0,1,359.19,339.17Z" transform="translate(26.56)"/></g><path class="cls-10" d="M353.9,295.34a3,3,0,1,1-3-3A3,3,0,0,1,353.9,295.34Z" transform="translate(26.56)"/><path class="cls-16" d="M350.85,299a3.64,3.64,0,1,1,3.64-3.64A3.65,3.65,0,0,1,350.85,299Zm0-6.1a2.46,2.46,0,1,0,2.46,2.46A2.46,2.46,0,0,0,350.85,292.88Z" transform="translate(26.56)"/><path class="cls-10" d="M370.33,295.34a3.05,3.05,0,1,1-3.05-3A3,3,0,0,1,370.33,295.34Z" transform="translate(26.56)"/><path class="cls-16" d="M367.28,299a3.64,3.64,0,1,1,3.64-3.64A3.64,3.64,0,0,1,367.28,299Zm0-6.1a2.46,2.46,0,1,0,2.46,2.46A2.47,2.47,0,0,0,367.28,292.88Z" transform="translate(26.56)"/><path class="cls-10" d="M353.9,308.34a3,3,0,1,1-3-3A3,3,0,0,1,353.9,308.34Z" transform="translate(26.56)"/><path class="cls-16" d="M350.85,312a3.64,3.64,0,1,1,3.64-3.64A3.65,3.65,0,0,1,350.85,312Zm0-6.1a2.46,2.46,0,1,0,2.46,2.46A2.46,2.46,0,0,0,350.85,305.88Z" transform="translate(26.56)"/><path class="cls-10" d="M370.33,308.34a3.05,3.05,0,1,1-3.05-3A3,3,0,0,1,370.33,308.34Z" transform="translate(26.56)"/><path class="cls-16" d="M367.28,312a3.64,3.64,0,1,1,3.64-3.64A3.64,3.64,0,0,1,367.28,312Zm0-6.1a2.46,2.46,0,1,0,2.46,2.46A2.47,2.47,0,0,0,367.28,305.88Z" transform="translate(26.56)"/><path class="cls-10" d="M353.9,321.34a3,3,0,1,1-3-3A3,3,0,0,1,353.9,321.34Z" transform="translate(26.56)"/><path class="cls-16" d="M350.85,325a3.64,3.64,0,1,1,3.64-3.64A3.65,3.65,0,0,1,350.85,325Zm0-6.1a2.46,2.46,0,1,0,2.46,2.46A2.46,2.46,0,0,0,350.85,318.88Z" transform="translate(26.56)"/><path class="cls-10" d="M370.33,321.34a3.05,3.05,0,1,1-3.05-3A3,3,0,0,1,370.33,321.34Z" transform="translate(26.56)"/><path class="cls-16" d="M367.28,325a3.64,3.64,0,1,1,3.64-3.64A3.64,3.64,0,0,1,367.28,325Zm0-6.1a2.46,2.46,0,1,0,2.46,2.46A2.47,2.47,0,0,0,367.28,318.88Z" transform="translate(26.56)"/><path class="cls-10" d="M353.9,334.34a3,3,0,1,1-3-3A3,3,0,0,1,353.9,334.34Z" transform="translate(26.56)"/><path class="cls-16" d="M350.85,338a3.65,3.65,0,1,1,3.64-3.65A3.66,3.66,0,0,1,350.85,338Zm0-6.11a2.46,2.46,0,1,0,2.46,2.46A2.46,2.46,0,0,0,350.85,331.88Z" transform="translate(26.56)"/><path class="cls-10" d="M370.33,334.34a3.05,3.05,0,1,1-3.05-3A3,3,0,0,1,370.33,334.34Z" transform="translate(26.56)"/><path class="cls-16" d="M367.28,338a3.65,3.65,0,1,1,3.64-3.65A3.65,3.65,0,0,1,367.28,338Zm0-6.11a2.46,2.46,0,1,0,2.46,2.46A2.47,2.47,0,0,0,367.28,331.88Z" transform="translate(26.56)"/><path class="cls-17" d="M352.39,294.08a.77.77,0,1,1-.77-.78A.77.77,0,0,1,352.39,294.08Z" transform="translate(26.56)"/><path class="cls-17" d="M368.83,294.08a.78.78,0,1,1-.77-.78A.78.78,0,0,1,368.83,294.08Z" transform="translate(26.56)"/><path class="cls-17" d="M352.39,307.34a.77.77,0,1,1-.77-.77A.77.77,0,0,1,352.39,307.34Z" transform="translate(26.56)"/><path class="cls-17" d="M368.83,307.34a.78.78,0,1,1-.77-.77A.78.78,0,0,1,368.83,307.34Z" transform="translate(26.56)"/><path class="cls-17" d="M352.39,320.22a.77.77,0,1,1-.77-.78A.77.77,0,0,1,352.39,320.22Z" transform="translate(26.56)"/><path class="cls-17" d="M368.83,320.22a.78.78,0,1,1-.77-.78A.78.78,0,0,1,368.83,320.22Z" transform="translate(26.56)"/><path class="cls-17" d="M352.39,333.09a.77.77,0,1,1-1.54,0,.77.77,0,0,1,1.54,0Z" transform="translate(26.56)"/><path class="cls-17" d="M368.83,333.09a.78.78,0,1,1-.77-.77A.77.77,0,0,1,368.83,333.09Z" transform="translate(26.56)"/><rect class="cls-14" x="407.81" y="286.08" width="33.3" height="58.51" rx="5.66"/><g class="cls-15"><line class="cls-11" x1="424.48" y1="292.45" x2="424.48" y2="338.39"/><path class="cls-16" d="M397.92,339.17a.78.78,0,0,1-.79-.78V292.45a.79.79,0,0,1,1.58,0v45.94A.79.79,0,0,1,397.92,339.17Z" transform="translate(26.56)"/></g><circle class="cls-10" cx="416.14" cy="295.34" r="3.05"/><path class="cls-16" d="M389.58,299a3.64,3.64,0,1,1,3.64-3.64A3.65,3.65,0,0,1,389.58,299Zm0-6.1a2.46,2.46,0,1,0,2.46,2.46A2.46,2.46,0,0,0,389.58,292.88Z" transform="translate(26.56)"/><circle class="cls-10" cx="432.57" cy="295.34" r="3.05"/><path class="cls-16" d="M406,299a3.64,3.64,0,1,1,3.64-3.64A3.64,3.64,0,0,1,406,299Zm0-6.1a2.46,2.46,0,1,0,2.46,2.46A2.46,2.46,0,0,0,406,292.88Z" transform="translate(26.56)"/><circle class="cls-10" cx="416.14" cy="308.34" r="3.05"/><path class="cls-16" d="M389.58,312a3.64,3.64,0,1,1,3.64-3.64A3.65,3.65,0,0,1,389.58,312Zm0-6.1a2.46,2.46,0,1,0,2.46,2.46A2.46,2.46,0,0,0,389.58,305.88Z" transform="translate(26.56)"/><circle class="cls-10" cx="432.57" cy="308.34" r="3.05"/><path class="cls-16" d="M406,312a3.64,3.64,0,1,1,3.64-3.64A3.64,3.64,0,0,1,406,312Zm0-6.1a2.46,2.46,0,1,0,2.46,2.46A2.46,2.46,0,0,0,406,305.88Z" transform="translate(26.56)"/><circle class="cls-10" cx="416.14" cy="321.34" r="3.05"/><path class="cls-16" d="M389.58,325a3.64,3.64,0,1,1,3.64-3.64A3.65,3.65,0,0,1,389.58,325Zm0-6.1a2.46,2.46,0,1,0,2.46,2.46A2.46,2.46,0,0,0,389.58,318.88Z" transform="translate(26.56)"/><circle class="cls-10" cx="432.57" cy="321.34" r="3.05"/><path class="cls-16" d="M406,325a3.64,3.64,0,1,1,3.64-3.64A3.64,3.64,0,0,1,406,325Zm0-6.1a2.46,2.46,0,1,0,2.46,2.46A2.46,2.46,0,0,0,406,318.88Z" transform="translate(26.56)"/><path class="cls-10" d="M392.63,334.34a3.06,3.06,0,1,1-3.05-3A3,3,0,0,1,392.63,334.34Z" transform="translate(26.56)"/><path class="cls-16" d="M389.58,338a3.65,3.65,0,1,1,3.64-3.65A3.66,3.66,0,0,1,389.58,338Zm0-6.11a2.46,2.46,0,1,0,2.46,2.46A2.46,2.46,0,0,0,389.58,331.88Z" transform="translate(26.56)"/><path class="cls-10" d="M409.06,334.34a3.05,3.05,0,1,1-3.05-3A3,3,0,0,1,409.06,334.34Z" transform="translate(26.56)"/><path class="cls-16" d="M406,338a3.65,3.65,0,1,1,3.64-3.65A3.65,3.65,0,0,1,406,338Zm0-6.11a2.46,2.46,0,1,0,2.46,2.46A2.46,2.46,0,0,0,406,331.88Z" transform="translate(26.56)"/><path class="cls-17" d="M391.12,294.08a.77.77,0,1,1-.77-.78A.77.77,0,0,1,391.12,294.08Z" transform="translate(26.56)"/><path class="cls-17" d="M407.56,294.08a.78.78,0,1,1-.77-.78A.78.78,0,0,1,407.56,294.08Z" transform="translate(26.56)"/><path class="cls-17" d="M391.12,307.34a.77.77,0,1,1-.77-.77A.77.77,0,0,1,391.12,307.34Z" transform="translate(26.56)"/><path class="cls-17" d="M407.56,307.34a.78.78,0,1,1-.77-.77A.78.78,0,0,1,407.56,307.34Z" transform="translate(26.56)"/><path class="cls-17" d="M391.12,320.22a.77.77,0,1,1-.77-.78A.77.77,0,0,1,391.12,320.22Z" transform="translate(26.56)"/><path class="cls-17" d="M407.56,320.22a.78.78,0,1,1-.77-.78A.78.78,0,0,1,407.56,320.22Z" transform="translate(26.56)"/><path class="cls-17" d="M391.12,333.09a.77.77,0,1,1-1.54,0,.77.77,0,1,1,1.54,0Z" transform="translate(26.56)"/><path class="cls-17" d="M407.56,333.09a.78.78,0,1,1-.77-.77A.77.77,0,0,1,407.56,333.09Z" transform="translate(26.56)"/><rect class="cls-18" x="200.04" y="209.96" width="8.75" height="4.95" rx="2.21"/><rect class="cls-18" x="245.29" y="209.96" width="8.75" height="4.95" rx="2.21"/><rect class="cls-18" x="215.48" y="204.02" width="2.15" height="10.9"/><rect class="cls-18" x="236.45" y="204.02" width="2.15" height="10.9"/><rect class="cls-18" x="214.5" y="201.05" width="25.08" height="4.29" rx="1.92"/><rect class="cls-19" x="190.47" y="213.02" width="73.13" height="49.54"/><polygon class="cls-12" points="240.35 232.99 231.84 232.99 231.84 224.47 222.23 224.47 222.23 232.99 213.72 232.99 213.72 242.59 222.23 242.59 222.23 251.1 231.84 251.1 231.84 242.59 240.35 242.59 240.35 232.99"/><polygon class="cls-20" points="190.47 213.02 263.6 262.56 190.47 262.56 190.47 213.02"/><rect class="cls-18" x="322.16" y="43.26" width="8.75" height="4.95" rx="2.21"/><rect class="cls-18" x="367.41" y="43.26" width="8.75" height="4.95" rx="2.21"/><rect class="cls-18" x="337.6" y="37.31" width="2.15" height="10.9"/><rect class="cls-18" x="358.58" y="37.31" width="2.15" height="10.9"/><rect class="cls-18" x="336.62" y="34.34" width="25.08" height="4.29" rx="1.92"/><rect class="cls-19" x="312.6" y="46.31" width="73.13" height="49.54"/><polygon class="cls-20" points="312.6 46.31 385.73 95.85 312.6 95.85 312.6 46.31"/><rect class="cls-18" x="492.48" y="209.53" width="8.75" height="4.95" rx="2.21"/><rect class="cls-18" x="537.73" y="209.53" width="8.75" height="4.95" rx="2.21"/><rect class="cls-18" x="507.92" y="203.58" width="2.15" height="10.9"/><rect class="cls-18" x="528.9" y="203.58" width="2.15" height="10.9"/><rect class="cls-18" x="506.94" y="200.61" width="25.08" height="4.29" rx="1.92"/><rect class="cls-19" x="482.92" y="212.58" width="73.13" height="49.54"/><polygon class="cls-20" points="482.92 212.58 556.05 262.12 482.92 262.12 482.92 212.58"/><rect class="cls-18" x="115.64" y="209.96" width="8.75" height="4.95" rx="2.21"/><rect class="cls-18" x="160.89" y="209.96" width="8.75" height="4.95" rx="2.21"/><rect class="cls-18" x="131.08" y="204.02" width="2.15" height="10.9"/><rect class="cls-18" x="152.05" y="204.02" width="2.15" height="10.9"/><rect class="cls-18" x="130.1" y="201.05" width="25.08" height="4.29" rx="1.92"/><rect class="cls-19" x="106.07" y="213.02" width="73.13" height="49.54"/><polygon class="cls-12" points="155.96 232.99 147.44 232.99 147.44 224.47 137.84 224.47 137.84 232.99 129.32 232.99 129.32 242.59 137.84 242.59 137.84 251.1 147.44 251.1 147.44 242.59 155.96 242.59 155.96 232.99"/><polygon class="cls-20" points="106.08 213.02 179.21 262.56 106.08 262.56 106.08 213.02"/><rect class="cls-18" x="11.82" y="209.96" width="8.75" height="4.95" rx="2.21"/><rect class="cls-18" x="57.07" y="209.96" width="8.75" height="4.95" rx="2.21"/><rect class="cls-18" x="27.26" y="204.02" width="2.15" height="10.9"/><rect class="cls-18" x="48.23" y="204.02" width="2.15" height="10.9"/><rect class="cls-18" x="26.28" y="201.05" width="25.08" height="4.29" rx="1.92"/><rect class="cls-19" x="2.25" y="213.02" width="73.13" height="49.54"/><polygon class="cls-12" points="52.13 232.99 43.62 232.99 43.62 224.47 34.02 224.47 34.02 232.99 25.5 232.99 25.5 242.59 34.02 242.59 34.02 251.1 43.62 251.1 43.62 242.59 52.13 242.59 52.13 232.99"/><polygon class="cls-20" points="2.25 213.02 75.39 262.56 2.25 262.56 2.25 213.02"/><rect class="cls-9" x="206.1" y="134.34" width="26.43" height="41.87" rx="5.97"/><rect class="cls-21" x="204.88" y="131.53" width="28.88" height="7.46" rx="3.33"/><rect class="cls-22" x="214.06" y="150.68" width="18.47" height="18.81"/><rect class="cls-9" x="217.92" y="155.48" width="12.09" height="2.01" rx="0.9"/><rect class="cls-9" x="217.92" y="159.05" width="12.09" height="2.01" rx="0.9"/><rect class="cls-9" x="217.92" y="162.68" width="12.09" height="2.01" rx="0.9"/><rect class="cls-9" x="165.99" y="134.34" width="26.43" height="41.87" rx="5.97"/><rect class="cls-21" x="164.77" y="131.53" width="28.88" height="7.46" rx="3.33"/><rect class="cls-22" x="173.95" y="150.68" width="18.47" height="18.81"/><rect class="cls-9" x="177.81" y="155.48" width="12.09" height="2.01" rx="0.9"/><rect class="cls-9" x="177.81" y="159.05" width="12.09" height="2.01" rx="0.9"/><rect class="cls-9" x="177.81" y="162.68" width="12.09" height="2.01" rx="0.9"/><rect class="cls-9" x="419.36" y="134.34" width="26.43" height="41.87" rx="5.97"/><rect class="cls-21" x="418.13" y="131.53" width="28.88" height="7.46" rx="3.33"/><rect class="cls-22" x="427.31" y="150.68" width="18.47" height="18.81"/><rect class="cls-9" x="431.18" y="155.48" width="12.09" height="2.01" rx="0.9"/><rect class="cls-9" x="431.18" y="159.05" width="12.09" height="2.01" rx="0.9"/><rect class="cls-9" x="431.18" y="162.68" width="12.09" height="2.01" rx="0.9"/><rect class="cls-9" x="405.97" y="53.85" width="26.43" height="41.87" rx="5.97"/><rect class="cls-21" x="404.75" y="51.05" width="28.88" height="7.46" rx="3.33"/><rect class="cls-22" x="413.93" y="70.2" width="18.47" height="18.81"/><rect class="cls-9" x="417.79" y="74.99" width="12.09" height="2.01" rx="0.9"/><rect class="cls-9" x="417.79" y="78.56" width="12.09" height="2.01" rx="0.9"/><rect class="cls-9" x="417.79" y="82.2" width="12.09" height="2.01" rx="0.9"/><rect class="cls-9" x="125.88" y="134.34" width="26.43" height="41.87" rx="5.97"/><rect class="cls-21" x="124.65" y="131.53" width="28.88" height="7.46" rx="3.33"/><rect class="cls-22" x="133.84" y="150.68" width="18.47" height="18.81"/><rect class="cls-9" x="137.7" y="155.48" width="12.09" height="2.01" rx="0.9"/><rect class="cls-9" x="137.7" y="159.05" width="12.09" height="2.01" rx="0.9"/><rect class="cls-9" x="137.7" y="162.68" width="12.09" height="2.01" rx="0.9"/><rect class="cls-9" x="47.21" y="53.36" width="26.43" height="41.87" rx="5.97"/><rect class="cls-21" x="45.98" y="50.55" width="28.88" height="7.46" rx="3.33"/><rect class="cls-22" x="55.17" y="69.7" width="18.47" height="18.81"/><rect class="cls-9" x="59.03" y="74.5" width="12.09" height="2.01" rx="0.9"/><rect class="cls-9" x="59.03" y="78.07" width="12.09" height="2.01" rx="0.9"/><rect class="cls-9" x="59.03" y="81.7" width="12.09" height="2.01" rx="0.9"/><rect class="cls-9" x="7.36" y="53.36" width="26.43" height="41.87" rx="5.97"/><rect class="cls-21" x="6.13" y="50.55" width="28.88" height="7.46" rx="3.33"/><rect class="cls-22" x="15.31" y="69.7" width="18.47" height="18.81"/><rect class="cls-9" x="19.18" y="74.5" width="12.09" height="2.01" rx="0.9"/><rect class="cls-9" x="19.18" y="78.07" width="12.09" height="2.01" rx="0.9"/><rect class="cls-9" x="19.18" y="81.7" width="12.09" height="2.01" rx="0.9"/><rect class="cls-23" x="420.7" y="246.4" width="17.87" height="16.31" rx="3.91"/><polygon class="cls-13" points="438.56 252.67 420.7 252.67 416.87 210.06 442.18 210.06 438.56 252.67"/><circle class="cls-12" cx="429.56" cy="231.81" r="9.82"/><line class="cls-22" x1="420.7" y1="258.77" x2="438.57" y2="258.77"/><rect class="cls-24" x="420.7" y="258.37" width="17.87" height="0.79"/><rect class="cls-13" x="422.44" y="228.52" width="14.24" height="2.37" rx="1.06"/><rect class="cls-13" x="422.44" y="232.72" width="14.24" height="2.37" rx="1.06"/><g class="cls-25"><rect class="cls-14" x="416.87" y="210.06" width="25.31" height="4.81"/></g><rect class="cls-23" x="391.53" y="246.4" width="17.87" height="16.31" rx="3.91"/><polygon class="cls-13" points="409.38 252.67 391.52 252.67 387.7 210.06 413.01 210.06 409.38 252.67"/><circle class="cls-12" cx="400.38" cy="231.81" r="9.82"/><line class="cls-22" x1="391.53" y1="258.77" x2="409.4" y2="258.77"/><rect class="cls-24" x="391.53" y="258.37" width="17.87" height="0.79"/><rect class="cls-13" x="393.27" y="228.52" width="14.24" height="2.37" rx="1.06"/><rect class="cls-13" x="393.27" y="232.72" width="14.24" height="2.37" rx="1.06"/><g class="cls-26"><rect class="cls-14" x="387.7" y="210.06" width="25.31" height="4.81"/></g><rect class="cls-23" x="136.25" y="80.69" width="17.87" height="16.31" rx="3.91"/><polygon class="cls-13" points="154.1 86.96 136.24 86.96 132.42 44.34 157.72 44.34 154.1 86.96"/><circle class="cls-12" cx="145.1" cy="66.1" r="9.82"/><line class="cls-22" x1="136.25" y1="93.06" x2="154.12" y2="93.06"/><rect class="cls-24" x="136.25" y="92.66" width="17.87" height="0.79"/><rect class="cls-13" x="137.98" y="62.81" width="14.24" height="2.37" rx="1.06"/><rect class="cls-13" x="137.98" y="67.01" width="14.24" height="2.37" rx="1.06"/><g class="cls-27"><rect class="cls-14" x="132.42" y="44.35" width="25.31" height="4.81"/></g><rect class="cls-23" x="362.36" y="246.4" width="17.87" height="16.31" rx="3.91"/><polygon class="cls-13" points="380.21 252.67 362.36 252.67 358.53 210.06 383.84 210.06 380.21 252.67"/><circle class="cls-12" cx="371.21" cy="231.81" r="9.82"/><line class="cls-22" x1="362.36" y1="258.77" x2="380.23" y2="258.77"/><rect class="cls-24" x="362.36" y="258.37" width="17.87" height="0.79"/><rect class="cls-13" x="364.1" y="228.52" width="14.24" height="2.37" rx="1.06"/><rect class="cls-13" x="364.1" y="232.72" width="14.24" height="2.37" rx="1.06"/><g class="cls-28"><rect class="cls-14" x="358.53" y="210.06" width="25.31" height="4.81"/></g><rect class="cls-23" x="333.19" y="246.4" width="17.87" height="16.31" rx="3.91"/><polygon class="cls-13" points="351.04 252.67 333.18 252.67 329.36 210.06 354.67 210.06 351.04 252.67"/><circle class="cls-12" cx="342.04" cy="231.81" r="9.82"/><line class="cls-22" x1="333.19" y1="258.77" x2="351.06" y2="258.77"/><rect class="cls-24" x="333.19" y="258.37" width="17.87" height="0.79"/><rect class="cls-13" x="334.92" y="228.52" width="14.24" height="2.37" rx="1.06"/><rect class="cls-13" x="334.92" y="232.72" width="14.24" height="2.37" rx="1.06"/><g class="cls-29"><rect class="cls-14" x="329.36" y="210.06" width="25.31" height="4.81"/></g><rect class="cls-23" x="304.02" y="246.4" width="17.87" height="16.31" rx="3.91"/><polygon class="cls-13" points="321.87 252.67 304.01 252.67 300.19 210.06 325.5 210.06 321.87 252.67"/><circle class="cls-12" cx="312.87" cy="231.81" r="9.82"/><line class="cls-22" x1="304.02" y1="258.77" x2="321.89" y2="258.77"/><rect class="cls-24" x="304.02" y="258.37" width="17.87" height="0.79"/><rect class="cls-13" x="305.75" y="228.52" width="14.24" height="2.37" rx="1.06"/><rect class="cls-13" x="305.75" y="232.72" width="14.24" height="2.37" rx="1.06"/><g class="cls-30"><rect class="cls-14" x="300.19" y="210.06" width="25.31" height="4.81"/></g><rect class="cls-9" y="261.82" width="560.42" height="8.44"/><rect class="cls-9" y="176.33" width="560.42" height="8.44"/></g></g><path class="cls-31" d="M406.57,140.64c-6.46-21.54-27-39.32-50-39.32s-43.39,17.7-49.89,39c-.86,2.82-17.06,57.62-10.5,83,8.1,31.3,58.87,31.93,60.31,31.89,0,0,53.61-.59,61.71-31.89C424.74,198.14,407.79,144.27,406.57,140.64Z" transform="translate(26.56)"/><path class="cls-32" d="M389,240.92a14.5,14.5,0,0,0-14.63-14.29H336.22a14.5,14.5,0,0,0-14.63,14.29s2.47,40.93,4.14,68.32l-4.14,32.5H389l-3.52-33.31C386.9,281.36,389,240.92,389,240.92Z" transform="translate(26.56)"/><rect class="cls-33" x="370.42" y="226.63" width="25.24" height="15.91"/><rect class="cls-34" x="351.9" y="302.71" width="63.05" height="41.74" rx="12"/><path class="cls-9" d="M448.66,258.19c-4-2.57-3-1.89-5.57,2.11l-32.56,25.93-20.85-50.88c-1.55-4.49-3.13,2.92-7.62,4.47a8.66,8.66,0,0,0-5.35,11s19.52,50.74,23,53c4,2.57,8.28.56,11.94-2.6l38.74-37C453,260.19,452.66,260.77,448.66,258.19Z" transform="translate(26.56)"/><path class="cls-33" d="M446.74,266.93s11.66-.45,18.3-9.15,5.13-13.36,1.16-14.31c-2.38-.56-13.88,9.12-13.88,9.12l4.44-9s1.55-9.2-4.68-.22a82.3,82.3,0,0,0-9.29,17.74Z" transform="translate(26.56)"/><rect class="cls-32" x="439.22" y="262.37" width="10.11" height="4.77" rx="1.37" transform="translate(372 -242.89) rotate(48.19)"/><rect class="cls-9" x="312.19" y="232.29" width="16.85" height="81.57" rx="4.22" transform="translate(116.11 -79.02) rotate(16.3)"/><rect class="cls-9" x="298.7" y="286.23" width="16.85" height="61.38" rx="4.22" transform="translate(142.98 -81.07) rotate(18.5)"/><polygon class="cls-35" points="374.76 220.02 374.76 227.73 383.04 234.81 391.06 227.42 391.06 213.56 374.76 220.02"/><ellipse class="cls-36" cx="339.45" cy="179.55" rx="12.19" ry="13.15"/><ellipse class="cls-33" cx="427.13" cy="179.55" rx="12.19" ry="13.15"/><path class="cls-37" d="M317.29,173.09a7.46,7.46,0,0,0-7.35-.2,7.3,7.3,0,0,0-4.29,5.89,1.39,1.39,0,0,0,1.27,1.47H307l.21,0h0a1.37,1.37,0,0,0,1.16-1.24,4.69,4.69,0,0,1,2.77-3.66,4.76,4.76,0,0,1,4.62,0,1.36,1.36,0,0,0,1,.19,1.38,1.38,0,0,0,.87-.6A1.35,1.35,0,0,0,317.29,173.09Zm-10.12,6.62Z" transform="translate(26.56)"/><path class="cls-35" d="M404.77,173.09a7.47,7.47,0,0,0-7.34-.57,1.36,1.36,0,0,0,.18,2.51,1.44,1.44,0,0,0,1.06-.08,4.75,4.75,0,0,1,4.59.44,4.65,4.65,0,0,1,2.35,3.94,1.35,1.35,0,0,0,1,1.35,1.12,1.12,0,0,0,.32,0h0a1.4,1.4,0,0,0,1.4-1.32A7.26,7.26,0,0,0,404.77,173.09Z" transform="translate(26.56)"/><path class="cls-33" d="M356.46,133.06c-21.45,0-38.84,15.93-38.84,35.59v16.74c0,19.66,17.39,37.72,38.84,37.72s38.84-18.06,38.84-37.72V168.65C395.3,149,377.91,133.06,356.46,133.06Z" transform="translate(26.56)"/><path class="cls-31" d="M303.46,163.79l15.91-41.22,58.83,8.71,9.88-6.92,15.28,39.43s-12.93-1.67-22.52-8.66a52.86,52.86,0,0,1-14.12-15.8s-18.59,16-42.76,21.37S303.46,163.79,303.46,163.79Z" transform="translate(26.56)"/><g class="cls-38"><ellipse class="cls-39" cx="351.58" cy="195.23" rx="10.68" ry="10.39"/><ellipse class="cls-39" cx="415.36" cy="195.23" rx="10.68" ry="10.39"/></g><path class="cls-40" d="M357.27,201.06c-10.79,0-14.35-8.41-14.5-8.76a2,2,0,0,1,3.77-1.56c.12.28,2.76,6.25,10.73,6.25,8.28,0,10.61-5.92,10.71-6.17a2,2,0,0,1,3.82,1.39C371.67,192.58,368.49,201.06,357.27,201.06Z" transform="translate(26.56)"/><path class="cls-41" d="M361.51,181.26c0,1.67-1.82,3-4.05,3s-4.06-1.36-4.06-3,1.82-3,4.06-3S361.51,179.59,361.51,181.26Z" transform="translate(26.56)"/><path class="cls-40" d="M342.86,170.74a3.54,3.54,0,1,1-3.51-4A3.75,3.75,0,0,1,342.86,170.74Z" transform="translate(26.56)"/><path class="cls-40" d="M339.35,175.36a4.65,4.65,0,1,1,4.19-4.62A4.42,4.42,0,0,1,339.35,175.36Zm0-7.89a3.3,3.3,0,1,0,2.83,3.27A3.09,3.09,0,0,0,339.35,167.47Z" transform="translate(26.56)"/><path class="cls-40" d="M378.13,170.74a3.54,3.54,0,1,1-3.51-4A3.75,3.75,0,0,1,378.13,170.74Z" transform="translate(26.56)"/><path class="cls-40" d="M374.62,175.36a4.65,4.65,0,1,1,4.19-4.62A4.43,4.43,0,0,1,374.62,175.36Zm0-7.89a3.3,3.3,0,1,0,2.83,3.27A3.08,3.08,0,0,0,374.62,167.47Z" transform="translate(26.56)"/><path class="cls-9" d="M348.44,112a2.19,2.19,0,0,0-2.15-2.23H346s-5.44.47-13.82,4.69a34.21,34.21,0,0,0-11.8,9.33,2.39,2.39,0,0,0-.76,1.76,2.33,2.33,0,0,0,2.29,2.38,2.85,2.85,0,0,0,2.25-1.19,50.56,50.56,0,0,1,10.4-7.86c4.31-2.45,11.66-4.48,12.23-4.72A2.21,2.21,0,0,0,348.44,112Z" transform="translate(26.56)"/><path class="cls-9" d="M356.31,111.07a2.16,2.16,0,1,1-2.15-2.23A2.19,2.19,0,0,1,356.31,111.07Z" transform="translate(26.56)"/><path class="cls-9" d="M339.35,226.63l-3.13-.21a14.5,14.5,0,0,0-14.63,14.29v.2h0l4.14,68.32-8.11,39.55h31.85V256.58Z" transform="translate(26.56)"/><path class="cls-9" d="M373.7,226.63l3.13-.21a14.51,14.51,0,0,1,14.63,14.29l0,.2h0l-4.15,68.32,8.11,39.55H363.57V256.58Z" transform="translate(26.56)"/><polygon class="cls-42" points="360.58 226.41 360.57 244.99 368.67 248.79 364.47 260.72 376.08 283.99 376.03 256.38 365.91 226.44 360.58 226.41"/><polygon class="cls-42" points="405.63 226.41 405.65 244.99 397.55 248.79 401.75 260.72 390.13 283.99 390.19 256.38 400.31 226.44 405.63 226.41"/><circle class="cls-43" cx="368.66" cy="293.51" r="2.76"/><circle class="cls-43" cx="368.66" cy="311.32" r="2.76"/><path class="cls-44" d="M193.69,203.73H148a17.35,17.35,0,0,0-17.5,17.1s3.71,108.6,3.92,110.55c.35,3.24,1.41,5.25,4.61,5.25,2.94,0,61.73-.27,64.66-.27,3.48,0,4-2.5,4.06-6.28,0-1.69,3.4-109.25,3.4-109.25A17.35,17.35,0,0,0,193.69,203.73Z" transform="translate(26.56)"/><rect class="cls-45" x="164.17" y="310.13" width="67.46" height="44.66" rx="12"/><path class="cls-33" d="M52.36,249.08s-12.31-1.36-19.17-10.76S28,224,32.28,223.07c2.55-.55,14.56,10,14.56,10l-4.52-9.69s-1.43-9.83,5-.13a88.11,88.11,0,0,1,9.47,19.09Z" transform="translate(26.56)"/><rect class="cls-46" x="45.11" y="242.18" width="15.46" height="5.85" transform="translate(-146.4 136.1) rotate(-52.06)"/><path class="cls-9" d="M143.79,207.29a9.87,9.87,0,0,0-13.3,4.12L99.9,269.47l-8.72-6.8-12-9.4h0l-16.3-12.73a3.33,3.33,0,0,0-4.66.57l-8,10.29a3.33,3.33,0,0,0,.57,4.66l38.12,29.77h0l9,7.05a8.58,8.58,0,0,0,12-1.48l1.58-2a8.37,8.37,0,0,0,1-1.52c.08-.14.18-.25.25-.38l35.24-66.88A9.87,9.87,0,0,0,143.79,207.29Z" transform="translate(26.56)"/><path class="cls-33" d="M247.31,328.84l3.77,14.33s-4.7,6.43-4.18,11.3,3.95,11,10.58,10.21,6.83-6.87,7.93-12.3a47.61,47.61,0,0,0,.48-11.84l-6.53-11.1S246.09,335.41,247.31,328.84Z" transform="translate(26.56)"/><path class="cls-31" d="M230.9,85.21c1.16-6.5-2.27-13.93-14.77-14.13-7.6-.12-23.57-1.21-34.92-2a52.28,52.28,0,0,0-10.27-.79l-2.43-.19.37.29a60.9,60.9,0,0,0-6.18.65c-26.08,4.19-41.43,20.17-43.22,45-1.06,14.72,4,35.49,12.24,50.49l.24.44.49-.07c19.3-2.45,36.41-4.82,52.32-7.25,10-1.52,20.67-3.09,34.71-5.08l.5-.08.11-.5a101.94,101.94,0,0,0,1.72-26.3c2.92-.74,6.07-2.87,6.74-6.56a9,9,0,0,0-1.16-5.91c4-1,7.09-5.19,5.94-11.37-1.55-8.29-8.1-8.93-8.1-8.93S229.75,91.72,230.9,85.21Z" transform="translate(26.56)"/><rect class="cls-46" x="246.54" y="326.89" width="14.22" height="5.38" transform="translate(649.37 521.1) rotate(155)"/><path class="cls-9" d="M260,321.49l-24.68-53.07a9.4,9.4,0,0,0-.34-1.11L212.58,214a9.08,9.08,0,0,0-11.85-4.84h0A9.06,9.06,0,0,0,195.89,221l22.18,52.91a3.08,3.08,0,0,0,.26,1l25.22,54.23a3.07,3.07,0,0,0,4.06,1.48l10.87-5.06A3.07,3.07,0,0,0,260,321.49Z" transform="translate(26.56)"/><polygon class="cls-35" points="188.74 196.34 188.74 204.62 197.63 212.23 206.24 204.29 206.24 189.41 188.74 196.34"/><ellipse class="cls-36" cx="150.96" cy="150.71" rx="13.09" ry="14.13"/><path class="cls-33" d="M205.47,150.71c0,7.8,5.86,14.12,13.09,14.12s13.08-6.32,13.08-14.12-5.85-14.13-13.08-14.13S205.47,142.91,205.47,150.71Z" transform="translate(26.56)"/><path class="cls-37" d="M128.14,143.77a8,8,0,0,0-7.9-.21,7.81,7.81,0,0,0-4.6,6.32,1.49,1.49,0,0,0,1.36,1.58h.13l.22,0h0a1.45,1.45,0,0,0,1.25-1.33,5,5,0,0,1,3-3.94,5.1,5.1,0,0,1,5,0,1.48,1.48,0,0,0,1.12.2,1.46,1.46,0,0,0,.49-2.66Zm-10.88,7.12Z" transform="translate(26.56)"/><path class="cls-35" d="M223.06,143.77a8,8,0,0,0-7.87-.61,1.45,1.45,0,0,0-.67,2,1.41,1.41,0,0,0,.86.74,1.5,1.5,0,0,0,1.14-.08,5.1,5.1,0,0,1,4.93.47,5,5,0,0,1,2.52,4.23,1.43,1.43,0,0,0,1.09,1.45,1.34,1.34,0,0,0,.35.05h0a1.5,1.5,0,0,0,1.5-1.43A7.79,7.79,0,0,0,223.06,143.77Z" transform="translate(26.56)"/><path class="cls-33" d="M171.19,100.78c-23,0-41.71,17.12-41.71,38.23v18c0,21.11,18.67,40.5,41.71,40.5s41.7-19.39,41.7-40.5V139C212.89,117.9,194.22,100.78,171.19,100.78Z" transform="translate(26.56)"/><path class="cls-40" d="M172.06,175.27c-11.59,0-15.41-9-15.57-9.42a2.18,2.18,0,0,1,4-1.66c.13.3,3,6.7,11.53,6.7,9,0,11.47-6.54,11.49-6.61a2.19,2.19,0,1,1,4.11,1.49C187.52,166.16,184.1,175.27,172.06,175.27Z" transform="translate(26.56)"/><path class="cls-41" d="M176.61,154c0,1.79-2,3.25-4.35,3.25s-4.36-1.46-4.36-3.25,1.95-3.25,4.36-3.25S176.61,152.21,176.61,154Z" transform="translate(26.56)"/><path class="cls-40" d="M156.58,142.71a3.8,3.8,0,1,1-3.77-4.24A4,4,0,0,1,156.58,142.71Z" transform="translate(26.56)"/><path class="cls-40" d="M152.81,147.67a5,5,0,1,1,4.5-5A4.76,4.76,0,0,1,152.81,147.67Zm0-8.47a3.54,3.54,0,1,0,3,3.51A3.3,3.3,0,0,0,152.81,139.2Z" transform="translate(26.56)"/><path class="cls-40" d="M194.46,142.71a3.8,3.8,0,1,1-3.78-4.24A4,4,0,0,1,194.46,142.71Z" transform="translate(26.56)"/><path class="cls-40" d="M190.68,147.67a5,5,0,1,1,4.51-5A4.76,4.76,0,0,1,190.68,147.67Zm0-8.47a3.54,3.54,0,1,0,3,3.51A3.31,3.31,0,0,0,190.68,139.2Z" transform="translate(26.56)"/><path class="cls-31" d="M180.52,89.15l-33.59,5.38L137.27,96l-7.14,1.78-9.36,29.16s3.49,1.64,15-3.74c4-1.88,10.31-9,10.31-9s1.75,6,11,7.12c8.64,1.07,15.41-5.48,15.41-5.48a19,19,0,0,0,14.38,8.7,13.6,13.6,0,0,0,14-7.27s.26,5.86,8,10c13.08,6.95,13.08-8.61,13.08-8.61Z" transform="translate(26.56)"/><path class="cls-9" d="M158.43,81.11A2.12,2.12,0,0,0,156,79.43l-.08,0h-.07l-.12,0h0s-5.17,1.46-12.51,7a33.48,33.48,0,0,0-9.72,10.91,2.25,2.25,0,0,0,2.23,3.57c.89-.17,1.3-.57,2-1.53a50.06,50.06,0,0,1,8.62-9.28c3.73-3.09,10.47-6.36,11-6.69A2.1,2.1,0,0,0,158.43,81.11Z" transform="translate(26.56)"/><path class="cls-9" d="M166.47,79.28a2.12,2.12,0,1,1-2.58-1.52A2.12,2.12,0,0,1,166.47,79.28Z" transform="translate(26.56)"/><polygon class="cls-9" points="188.74 200.82 182.89 204.34 188.86 220.36 197.63 212.23 188.74 200.82"/><polygon class="cls-9" points="206.76 200.82 212.62 204.34 206.64 220.36 197.87 212.23 206.76 200.82"/><path class="cls-9" d="M149.94,203.66l-3.82-.25c-9.82,0-17.85,7.63-17.85,17l0,.24h0l4.11,81.07-8.94,46.93h38.85V239.19Z" transform="translate(26.56)"/><path class="cls-9" d="M191.84,203.66l3.82-.25c9.82,0,17.85,7.63,17.85,17l0,.24h0l-4.11,81.07,8.94,46.93H179.49V239.19Z" transform="translate(26.56)"/><polygon class="cls-42" points="170.01 203.41 169.99 225.45 179.86 229.96 174.75 244.12 188.91 271.73 188.85 238.97 176.5 203.43 170.01 203.41"/><polygon class="cls-42" points="224.96 203.41 224.98 225.45 215.1 229.96 220.22 244.12 206.05 271.73 206.12 238.97 218.47 203.43 224.96 203.41"/><path class="cls-43" d="M156.66,283a3.36,3.36,0,1,1-3.36-3.26A3.31,3.31,0,0,1,156.66,283Z" transform="translate(26.56)"/><path class="cls-43" d="M156.66,304.15a3.36,3.36,0,1,1-3.36-3.27A3.32,3.32,0,0,1,156.66,304.15Z" transform="translate(26.56)"/><rect class="cls-47" x="26.56" y="360.76" width="500.06" height="21.64"/><rect class="cls-2" x="26.56" y="343.54" width="500.06" height="23.87"/><rect class="cls-1" x="77.28" y="70.11" width="393.36" height="299.44"/></g></g></svg>