<svg xmlns="http://www.w3.org/2000/svg" viewBox="0 0 500 211.69"><defs><style>.cls-1{isolation:isolate;}.cls-2{fill:#f67280;}.cls-3{fill:#f8b163;}.cls-4{font-size:14px;font-family:Raleway-Bold, Raleway;font-weight:700;}.cls-21,.cls-22,.cls-4{fill:#fff;}.cls-5{letter-spacing:-0.07em;}.cls-6{letter-spacing:-0.03em;}.cls-7{letter-spacing:-0.06em;}.cls-22,.cls-8{font-size:7px;}.cls-23,.cls-24,.cls-8{fill:#373b63;}.cls-8{font-family:SourceHanSansTW-Regular-B5pc-H, Source Han Sans TW;}.cls-9{letter-spacing:-0.02em;}.cls-10{letter-spacing:-0.25em;}.cls-11{letter-spacing:-0.01em;}.cls-12{letter-spacing:-0.02em;}.cls-13{letter-spacing:-0.02em;}.cls-14{letter-spacing:-0.01em;}.cls-15{letter-spacing:-0.02em;}.cls-16{letter-spacing:-0.01em;}.cls-17{letter-spacing:0.01em;}.cls-18{letter-spacing:-0.07em;}.cls-19{letter-spacing:0em;}.cls-20{letter-spacing:-0.07em;}.cls-21{font-size:11px;font-family:SourceHanSansTW-Bold-B5pc-H, Source Han Sans TW;}.cls-22{font-family:SourceHanSansTW-Light-B5pc-H, Source Han Sans TW;}.cls-24{mix-blend-mode:multiply;}.cls-25{opacity:0.38;}.cls-26{fill:#2c1e2d;}.cls-27{fill:none;stroke:#373e5e;stroke-linecap:round;stroke-linejoin:round;stroke-width:0.5px;stroke-dasharray:1 2;}</style></defs><title>資產 3</title><g class="cls-1"><g id="圖層_2" data-name="圖層 2"><g id="BACKGROUND"><rect class="cls-2" width="500" height="211.69"/><path class="cls-3" d="M500,0V57.33c-21.7-2.71-41.23-5.79-60.54-7.88-59.2-6.38-121.15-9.11-176,15.52-27.32,12.26-51.68,30.84-78.09,45.18A281.81,281.81,0,0,1,87.57,142c-25.68,3.36-53,2.61-77.3-7.79-3-1.3-6.72-2.77-10.27-4.63V0Z"/></g><g id="OBJECTS"><text class="cls-4" transform="translate(25.98 34.42)">WH<tspan class="cls-5" x="25.17" y="0">A</tspan><tspan class="cls-6" x="33.6" y="0">T</tspan><tspan x="41.87" y="0" xml:space="preserve"> IS 2019 nC</tspan><tspan class="cls-7" x="114.25" y="0">o</tspan><tspan x="121.84" y="0">V?</tspan></text><text class="cls-8" transform="translate(25.98 52.39)">冠狀病毒(C<tspan class="cls-9" x="34.83" y="0">o</tspan><tspan x="38.93" y="0">V)為一群有外套膜之RNA病</tspan><tspan class="cls-10" x="122.07" y="0">毒，</tspan><tspan x="132.57" y="0">外表為圓</tspan><tspan class="cls-10" x="160.57" y="0">形，</tspan><tspan x="0" y="9">在電子顯微鏡下可看到類似皇冠的突起因此得</tspan><tspan class="cls-10" x="140" y="9">名。</tspan><tspan x="150.5" y="9">可再細</tspan><tspan x="0" y="18">分為四個屬: alpha, b</tspan><tspan class="cls-11" x="64.83" y="18">e</tspan><tspan class="cls-12" x="68.63" y="18">t</tspan><tspan x="71.11" y="18">a, </tspan><tspan class="cls-13" x="78.57" y="18">g</tspan><tspan x="82.38" y="18">amma, and del</tspan><tspan class="cls-12" x="131.1" y="18">t</tspan><tspan class="cls-10" x="133.57" y="18">a。</tspan><tspan x="141.02" y="18">已知會感</tspan><tspan x="0" y="27">染人類的冠狀病毒包括alpha C</tspan><tspan class="cls-9" x="94.51" y="27">o</tspan><tspan x="98.61" y="27">V的HC</tspan><tspan class="cls-9" x="119.19" y="27">oV</tspan><tspan x="127.17" y="27">-229E , </tspan><tspan x="0" y="36">HC</tspan><tspan class="cls-9" x="9.56" y="36">oV</tspan><tspan x="17.53" y="36">-NL63以及b</tspan><tspan class="cls-14" x="54.91" y="36">e</tspan><tspan class="cls-15" x="58.71" y="36">t</tspan><tspan x="61.19" y="36">a C</tspan><tspan class="cls-9" x="71.17" y="36">o</tspan><tspan x="75.26" y="36">V的HC</tspan><tspan class="cls-9" x="95.85" y="36">oV</tspan><tspan x="103.82" y="36">-H</tspan><tspan class="cls-16" x="111.35" y="36">K</tspan><tspan x="115.76" y="36">U1, HC</tspan><tspan class="cls-9" x="137.77" y="36">oV</tspan><tspan x="145.74" y="36">-OC43, </tspan><tspan x="0" y="45">ME</tspan><tspan class="cls-16" x="9.8" y="45">R</tspan><tspan class="cls-17" x="14.15" y="45">S</tspan><tspan x="18.43" y="45">-C</tspan><tspan class="cls-9" x="25.33" y="45">o</tspan><tspan class="cls-18" x="29.42" y="45">V</tspan><tspan class="cls-19" x="32.93" y="45">, SA</tspan><tspan class="cls-16" x="44.88" y="45">R</tspan><tspan class="cls-17" x="49.22" y="45">S</tspan><tspan x="53.51" y="45">-C</tspan><tspan class="cls-9" x="60.4" y="45">o</tspan><tspan class="cls-20" x="64.5" y="45">V</tspan><tspan x="68.01" y="45">, 和最新發現的2019-nC</tspan><tspan class="cls-9" x="140.23" y="45">o</tspan><tspan class="cls-10" x="144.33" y="45">V。</tspan><tspan x="151.85" y="45">冠狀病</tspan><tspan x="0" y="54">毒是造成人類與動物疾病的重要病原</tspan><tspan class="cls-10" x="112" y="54">體。</tspan></text><text class="cls-21" transform="translate(27.07 162.95)">傳播途徑?</text><text class="cls-22" transform="translate(27.07 175.97)">大部分的人類冠狀病毒以直接接觸帶有病毒的分泌物或飛沫傳染為<tspan class="cls-10" x="0" y="8.4">主。</tspan><tspan x="10.5" y="8.4">有部分動物的冠狀病毒會讓動物出現腹瀉症</tspan><tspan class="cls-10" x="143.5" y="8.4">狀，</tspan><tspan x="154" y="8.4">可以在糞便當中</tspan><tspan x="0" y="16.8">找到病</tspan><tspan class="cls-10" x="21" y="16.8">毒，</tspan><tspan x="31.5" y="16.8">可能藉此造成病毒傳</tspan><tspan class="cls-10" x="94.5" y="16.8">播。</tspan></text><path class="cls-23" d="M341.59,101.63a39.61,39.61,0,0,1-2.26,6.72l6.41,7.29L337,112.87l0,0a41.82,41.82,0,0,1-3.25,4.7c2.59,3.44,12.25,16.26,12.35,16.48-.19,0-11.86-8.64-16.45-12a43.21,43.21,0,0,1-5.92,4.66l.29,11.37-5.61-8.38a44.52,44.52,0,0,1-8.46,3l-.69,6.7-.75,7.28-3.14-8.77-1.49-4.13a45,45,0,0,1-5.09.29c-.61,0-1.21,0-1.8,0h-.2l-9.2,14.51,2.67-15.26a45.83,45.83,0,0,1-6.88-1.86l-14.47,17.12L276,128a43.8,43.8,0,0,1-4.93-3.32L261.59,129l6.09-7.15a41.77,41.77,0,0,1-4.71-5.33l-23.46,7.86,19.34-14.62a39.38,39.38,0,0,1-2.42-6.3l-14.16-2.1,13-2.92a38.64,38.64,0,0,1-.44-5.18c-2.3-1.8-10.07-7.32-10.07-7.32l10.68-.7A39.14,39.14,0,0,1,257,79.39L239.51,64.5l20.75,7.72a41.74,41.74,0,0,1,6.34-8.34l-5.13-12.72,12,7A44.72,44.72,0,0,1,278.94,55l-1.81-15.15,0-.21.14.19,9.33,12.32a46.43,46.43,0,0,1,7.34-1.39l2.28-10.13,3.37,9.9a44.85,44.85,0,0,1,6.6.57l8.42-14.08-2.09,15.57c.56.18,1.12.36,1.67.56,4.48-3.74,14.91-12,14.91-12L321.89,56.8c.41.24.82.49,1.23.76a43.83,43.83,0,0,1,6,4.6l7.16-3.24-4.16,6.27a40,40,0,0,1,4.07,5.29l21.24-3.36-17.87,9.76a39.55,39.55,0,0,1,1.66,4.77H354.7l-12.47,4.57a40.76,40.76,0,0,1,.47,6.08c0,.5,0,1,0,1.47l13.53,5.92Z"/><path class="cls-23" d="M305.35,137.91c1.31.54,2.62,1,3.89,1.49l-.75,7.28Z"/><ellipse class="cls-24" cx="288.25" cy="100.83" rx="4.56" ry="4.33"/><path class="cls-24" d="M327.47,94.43a4.56,4.56,0,1,1-4.55-4.33A4.45,4.45,0,0,1,327.47,94.43Z"/><path class="cls-24" d="M307.12,95.65a8.94,8.94,0,0,0-4.81,3c-.9,1.1-2.41,3.62-.84,4.76a3.75,3.75,0,0,0,3.52.07c1.56-.66,2.7-2.08,4.44-2.38,1.45-.25,2.92.61,4.37.36a2.34,2.34,0,0,0,1-4.36A10,10,0,0,0,307.12,95.65Z"/><path class="cls-24" d="M314.85,92.9s5.64,1.39,7-5.31"/><path class="cls-24" d="M294.7,97.59s-4.67,3.32-8.56-2.41"/><g class="cls-25"><path class="cls-24" d="M329.07,41.21s-10.43,8.24-14.91,12c-.55-.2-1.11-.38-1.67-.56l2.09-15.57-8.42,14.08a44.85,44.85,0,0,0-6.6-.57l-3.37-9.9L293.91,50.8a46.43,46.43,0,0,0-7.34,1.39l-9.33-12.32-.11,0L278.94,55a44.72,44.72,0,0,0-5.48,3.14l-12-7,5.13,12.72a41.74,41.74,0,0,0-6.34,8.34L239.51,64.5,257,79.39a39.14,39.14,0,0,0-1.51,5.82l-10.68.7s7.77,5.52,10.07,7.32a38.64,38.64,0,0,0,.44,5.18l-13,2.92,14.16,2.1a39.38,39.38,0,0,0,2.42,6.3l-19.34,14.62L263,116.49a41.77,41.77,0,0,0,4.71,5.33L261.59,129l9.43-4.29A43.8,43.8,0,0,0,276,128l-7.06,20.54,14.47-17.12a45.83,45.83,0,0,0,6.88,1.86l-2.67,15.26,9.2-14.51h.2c-14.42-7.65-27.82-20.51-24.58-41.42a1.19,1.19,0,0,0,.36.24c1,.37,2.43-.81,3.18-2.63s.54-3.61-.46-4a1.85,1.85,0,0,0-1.81.61C277,75.12,284,67.92,292.26,63.6a1.63,1.63,0,0,0-.12,1c.37,1.42,3,2,5.81,1.36s4.85-2.36,4.48-3.77c-.24-.93-1.45-1.51-3.06-1.61,1.52-.5,3.05-.91,4.58-1.27a7.83,7.83,0,0,0,2.94.54c2.23,0,4.08-.79,4.51-1.83a81.52,81.52,0,0,1,11.72-.49c-.41-.27-.82-.52-1.23-.76Z"/><path class="cls-24" d="M287.62,68.54c-1.34.56-2.17,1.56-1.86,2.22s1.64.76,3,.2,2.17-1.56,1.86-2.23S289,68,287.62,68.54Z"/><path class="cls-24" d="M308.12,61.24c-.68,0-1.23.28-1.23.62s.55.61,1.23.61,1.24-.28,1.24-.61S308.81,61.24,308.12,61.24Z"/><path class="cls-24" d="M295,67.51c-.65.19-1.09.61-1,.93s.72.43,1.37.24,1.09-.6,1-.93S295.63,67.32,295,67.51Z"/><path class="cls-24" d="M278.06,84.33c-.43.51-.55,1.09-.27,1.3s.85,0,1.28-.53.54-1.09.26-1.3S278.48,83.83,278.06,84.33Z"/><path class="cls-24" d="M275.23,93.88c-.28.94-.08,1.81.44,1.94s1.16-.51,1.43-1.45.07-1.81-.44-2S275.5,92.94,275.23,93.88Z"/></g><path class="cls-23" d="M384.07,151.82a32.07,32.07,0,0,0,1.82,5.43l-5.18,5.89,7.06-2.24,0,0a35.21,35.21,0,0,0,2.63,3.8c-2.1,2.78-9.9,13.14-10,13.32.15,0,9.58-7,13.3-9.74a34.76,34.76,0,0,0,4.77,3.76l-.23,9.19,4.54-6.76a36.44,36.44,0,0,0,6.83,2.44l.56,5.42.61,5.88,2.54-7.09,1.2-3.33a37.19,37.19,0,0,0,4.11.23c.5,0,1,0,1.45,0h.17l7.44,11.73-2.16-12.33a37.92,37.92,0,0,0,5.56-1.5l11.7,13.83-5.71-16.6a34.62,34.62,0,0,0,4-2.68l7.62,3.47-4.92-5.78a34.65,34.65,0,0,0,3.81-4.31l18.95,6.36-15.62-11.83a32.48,32.48,0,0,0,1.95-5.08l11.44-1.7-10.53-2.36a34,34,0,0,0,.36-4.19c1.85-1.45,8.13-5.91,8.13-5.91l-8.63-.57a32.43,32.43,0,0,0-1.22-4.7l14.12-12-16.76,6.24a33.91,33.91,0,0,0-5.13-6.74L448.82,111l-9.69,5.68a35.08,35.08,0,0,0-4.43-2.54l1.46-12.24,0-.17-.11.15-7.54,10a38.35,38.35,0,0,0-5.93-1.12l-1.84-8.19-2.73,8a37.44,37.44,0,0,0-5.33.47l-6.8-11.38,1.69,12.58c-.46.14-.91.29-1.36.45-3.61-3-12-9.68-12-9.68l5.8,12.6c-.34.19-.67.4-1,.61a36.22,36.22,0,0,0-4.87,3.72l-5.78-2.62,3.35,5.07a33,33,0,0,0-3.28,4.28l-17.17-2.72,14.45,7.89a31.89,31.89,0,0,0-1.35,3.85H373.47l10.08,3.7a32,32,0,0,0-.38,4.91c0,.4,0,.79,0,1.19l-10.94,4.78Z"/><path class="cls-23" d="M413.36,181.14c-1.06.44-2.12.83-3.15,1.21l.61,5.88Z"/><ellipse class="cls-24" cx="427.17" cy="151.17" rx="3.68" ry="3.5"/><path class="cls-24" d="M395.48,146a3.68,3.68,0,1,0,3.68-3.5A3.59,3.59,0,0,0,395.48,146Z"/><path class="cls-24" d="M411.93,147a7.29,7.29,0,0,1,3.88,2.43c.73.89,1.95,2.92.68,3.84a3,3,0,0,1-2.84.06c-1.26-.54-2.19-1.69-3.59-1.93-1.17-.2-2.36.5-3.53.29a1.89,1.89,0,0,1-.82-3.52A8.16,8.16,0,0,1,411.93,147Z"/><path class="cls-24" d="M405.68,144.76s-4.56,1.13-5.62-4.28"/><path class="cls-24" d="M422,148.55s3.77,2.69,6.91-1.94"/><g class="cls-25"><path class="cls-24" d="M394.19,103s8.43,6.66,12,9.68c.45-.16.9-.31,1.36-.45L405.9,99.64,412.7,111a37.44,37.44,0,0,1,5.33-.47l2.73-8,1.84,8.19a38.35,38.35,0,0,1,5.93,1.12l7.54-10,.09,0-1.46,12.24a35.08,35.08,0,0,1,4.43,2.54l9.69-5.68-4.15,10.28a33.91,33.91,0,0,1,5.13,6.74l16.76-6.24-14.12,12a32.43,32.43,0,0,1,1.22,4.7l8.63.57s-6.28,4.46-8.13,5.91a34,34,0,0,1-.36,4.19l10.53,2.36-11.44,1.7a32.48,32.48,0,0,1-1.95,5.08l15.62,11.83-18.95-6.36a34.65,34.65,0,0,1-3.81,4.31l4.92,5.78-7.62-3.47a34.62,34.62,0,0,1-4,2.68l5.71,16.6-11.7-13.83a37.92,37.92,0,0,1-5.56,1.5l2.16,12.33L420.29,178h-.17c11.67-6.19,22.49-16.58,19.88-33.48a1,1,0,0,1-.3.19c-.81.3-2-.65-2.57-2.12s-.44-2.92.38-3.22a1.53,1.53,0,0,1,1.46.49,29.39,29.39,0,0,0-15-18.78,1.22,1.22,0,0,1,.1.83c-.3,1.14-2.4,1.63-4.7,1.09s-3.91-1.9-3.61-3c.19-.75,1.17-1.22,2.47-1.3-1.23-.4-2.47-.74-3.7-1a6.28,6.28,0,0,1-2.38.44c-1.8,0-3.3-.64-3.64-1.48a65.6,65.6,0,0,0-9.48-.4c.33-.21.66-.42,1-.61Z"/><path class="cls-24" d="M427.68,125.08c1.09.45,1.76,1.26,1.51,1.8s-1.33.6-2.41.15-1.76-1.26-1.51-1.79S426.6,124.63,427.68,125.08Z"/><path class="cls-24" d="M411.11,119.18c.55,0,1,.22,1,.5s-.45.49-1,.49-1-.22-1-.49S410.56,119.18,411.11,119.18Z"/><path class="cls-24" d="M421.74,124.25c.52.15.88.49.8.75s-.58.35-1.11.19-.88-.49-.8-.75S421.21,124.09,421.74,124.25Z"/><path class="cls-24" d="M435.41,137.84c.35.41.44.88.22,1s-.69,0-1-.43-.44-.88-.22-1.05S435.07,137.43,435.41,137.84Z"/><path class="cls-24" d="M437.7,145.56c.22.76.06,1.46-.36,1.57s-.93-.42-1.15-1.18-.06-1.46.36-1.57S437.48,144.8,437.7,145.56Z"/></g><path class="cls-26" d="M247.84,28.84s-.31,5.49,3.51,5.06c-1.08.7-2.33,3.9,0,5.63-.63-.25-3,1.38-4.35,3.93a5.3,5.3,0,0,0-.21,4.65s-2-1.15-2.85-.38a3,3,0,0,0-.63,2.27s-1.32-1.6-1.72-1.18.05,2.21.05,2.21-1.32-1.59-2.36-1-1,2.75-1,2.75A5.64,5.64,0,0,0,234,50.49c-2.62.07-5.9,2.56-5.9,2.56s-.1-2.34-1.59-3.07a6.16,6.16,0,0,0-3.51-.25S222.74,45,218.38,45c.91-1.68,9.36-1.1,11.83.44,2.32,1.44,6.23,1.86,7.69.89a6.69,6.69,0,0,1-1.77-2.93l1.63.9,1-.37.1-2.25s1.42,2.6,1.89,2.6,2.15-1.47,2.33-3.67C243.18,38.9,244.41,32,247.84,28.84Z"/><path class="cls-26" d="M191.81,109.15s2.88.82,3.21,2.59-1.5,3.21-1.5,3.21,1-.37,2.18,1.18-.24,3.57-.24,3.57a6.17,6.17,0,0,1,4.72,1.52c2.23,1.94,2,5.88,2,5.88a2.36,2.36,0,0,1,2.23.72c1.13,1.07.6,3.71.6,3.71s1.86-2.82,2.91-2.71,1.89,1.47,1.89,1.47,2-3,4.19-3.66,6.15,1,6.15,1a2.59,2.59,0,0,1,.65-3c1.45-1.18,4.61,0,4.61,0s-.62-2.41.45-3.32,3.62-.28,3.62-.28-3.84-3.7-7.87-3.35-9.05,5.07-10.83,5.13a23.41,23.41,0,0,0,.9-2.54L208,122.6l-1.2-4-.79,2.2s-1.14-.41-1.47-3.12a10.19,10.19,0,0,0-5.44-8A11.51,11.51,0,0,0,191.81,109.15Z"/><ellipse class="cls-26" cx="256.09" cy="38.49" rx="1.38" ry="1.31"/><path class="cls-26" d="M386.16,41.11a1.38,1.38,0,1,1-1.38-1.31A1.34,1.34,0,0,1,386.16,41.11Z"/><path class="cls-27" d="M258.88,37.23c18.34-6.81,38.09-11,57.09-8.39,8.12,1.1,16.28,6.27,21.83,12a4.74,4.74,0,0,1,1.64,3.08,2,2,0,0,1-2.36,2c-1.41-.42-1.4-2.37-.73-3.62,1.55-2.89,4.87-4.49,8.08-5.57a51.32,51.32,0,0,1,38.37,2.48"/><ellipse class="cls-26" cx="383.6" cy="92.41" rx="1.38" ry="1.31"/><ellipse class="cls-26" cx="368.43" cy="178.58" rx="1.38" ry="1.31"/><path class="cls-27" d="M381.14,93.25a61.44,61.44,0,0,0-24.68,39.39,59.59,59.59,0,0,0,11,44.64"/><path class="cls-26" d="M397,95.53s.33-.06.54,1.12h2.32A8.39,8.39,0,0,0,398.18,95s-1.8-8.34.37-11.41a8,8,0,0,0,.66-1.18c0,.06,0,.13,0,.2-.51,1.66.31,6,1,9.23,0,.1,0,.21,0,.32l0,0c.44,1.94.84,3.38.84,3.38s.33-.06.54,1.12h2.32A8.39,8.39,0,0,0,402.42,95a35.55,35.55,0,0,1-.7-6.46c.08-.32.18-.66.22-.89.36-1.86,2.4-3.59,3.7-5,.55-.57,1-1.26,1.45-1.88a2.46,2.46,0,0,1,.4-.3,1.28,1.28,0,0,1,.27.4,21.22,21.22,0,0,1,1,5.88,13.54,13.54,0,0,0,.32,3.31l0,0c.05.32.11.69.15,1.07h0l.05,0c.21,1.78.3,4,.3,4a4.17,4.17,0,0,1,.47,1.43h1.54a2.83,2.83,0,0,0-.79-1.56c-.09-.52-.2-2.82-.25-3.89.14-1.37-.27-2.76.44-4,.47-.84.09-1.7-.05-2.54a10.36,10.36,0,0,1-.22-2c.06-1.38.16-2.77.33-4.14a1.69,1.69,0,0,1,2-1.25,2.56,2.56,0,0,1,2.68,2.2c0,.45.1.91.1,1.36,0,2.1-.07,4.2,0,6.29a25.2,25.2,0,0,0,.53,2.67c0,.11,0,.22,0,.33h0a48.78,48.78,0,0,1,.55,5.12,3.59,3.59,0,0,1,.51,1.43h1.75c0-.75-.9-1.56-.9-1.56-.11-.53-.23-2.89-.28-3.94,0-.34,0-.68,0-1a5.72,5.72,0,0,1,.12-.83c.07-.54.18-1.07.21-1.61.08-1.62,0-3.25.24-4.85a26.27,26.27,0,0,1,1-3.37,6.93,6.93,0,0,0,.38-2.09,3.89,3.89,0,0,1,1.29-3.18,5.45,5.45,0,0,0,1.48-3.2,19.54,19.54,0,0,0,.3-2.65c.08-1.64.07-3.28.15-4.92,0-1.16.19-2.32.28-3.49a2.89,2.89,0,0,0,0-.83c-.36-1.62-.73-3.24-1.13-4.86-.2-.84-.48-1.66-.72-2.49s-.59-1.9-.86-2.86a.64.64,0,0,1,.07-.49,3.76,3.76,0,0,0,.31-3.2c-.25-1.07-.13-1.28,1-1.4a17.27,17.27,0,0,0,10.11-4.59c.92-.84,1.93-1.58,2.87-2.4a10.18,10.18,0,0,0,.84-1,3.23,3.23,0,0,1,.57-.54,6.54,6.54,0,0,0,2.71-3.42,5.87,5.87,0,0,0,.15-2.26c-1,1.12-.87,3.26-2.72,4.08.14-.6.18-1.83.25-2.43a29.73,29.73,0,0,0,.25-3,4.49,4.49,0,0,0-.28-1.22.57.57,0,0,0-.36.49c-.06.65,0,1.13,0,1.79,0,1.34-1,1.91-2.12,2.3a.69.69,0,0,1-.57-.3c-.32-.63-.56-1.28-.83-1.92s-.54-1.21-.81-1.82l-.25.08c.08.44.17.88.23,1.33.21,1.41.48,2.82.61,4.23.18,2.15-.91,3.8-2.38,5.27l-.22,0c-.09-.89-.18-2-.27-2.87-.11,0-.22,0-.31.22a5,5,0,0,0-.06.86,6.37,6.37,0,0,1-.91,3.29,1.18,1.18,0,0,1-.41.42,12.77,12.77,0,0,1-6.29,1.94c-.57,0-.66-.24-.47-.7s.29-.87.43-1.31-.19-.42-.27-.45c-.28.56-.58,1.47-.8,2.05a.68.68,0,0,1-.67.52,5.39,5.39,0,0,0-1.31.29,2.34,2.34,0,0,1-1.78,0c-1.47-.58-2.81-2.46-2.38-4.05a.4.4,0,0,0-.06-.31,2.43,2.43,0,0,0-.48,2,5.23,5.23,0,0,0,1.58,3c.18.15.39.53.31.63a1,1,0,0,1-.72.38,5.73,5.73,0,0,1-3.13-.95,12.11,12.11,0,0,0-2.46-1.58c-2.44-1-3.31-2.91-3.55-5.21-.07-.72.1-.88.83-.81a2.86,2.86,0,0,0,1.89-.61,21.93,21.93,0,0,0,4.77-4.7.92.92,0,0,0,.22-.59c-1.73,1.26-3,3-4.94,4-.25.11-.67.24-.93.33a.86.86,0,0,1-1.23-.93c0-.16,0-.44-.15-.48-.63-.27-.61-.77-.58-1.27,0-.89.09-1.78.13-2.66a.88.88,0,0,0-.2-.58,2.68,2.68,0,0,0-.41.56c-.48,1.19-1,2.38-1.39,3.59-.19.55-.44.53-.84.28a2.09,2.09,0,0,1-1-1.83c0-.8.09-1.6.14-2.4a1.08,1.08,0,0,0-.32-1,3.52,3.52,0,0,1-.13.43c-1,2.16-1.06,4.2.72,6.12a8.33,8.33,0,0,1,1.4,2.42c.5,1.12.87,2.28,1.3,3.42.15.41.1.68-.43.58-2.34-.45-4.48-1.49-5.18-4.11a5.53,5.53,0,0,1-.06-1.29,2.46,2.46,0,0,0-.09-.8,3.56,3.56,0,0,0-.39,3.3,3.06,3.06,0,0,0,.37.69c1.09,1.34,2.19,2.69,3.3,4a1.56,1.56,0,0,0,.69.51,3.4,3.4,0,0,1,1.86,1.59,13.29,13.29,0,0,0,2.1,2.21,6.76,6.76,0,0,0,1.69.8,5.87,5.87,0,0,0,.69.18c-.58.34-.69.72-.43,1.2a.51.51,0,0,1-.06.47c-.82.5-1.14,1.48-2.27,1.75s-1.08,1.35-.39,2.25a3.06,3.06,0,0,0,2.17,1.06,4.28,4.28,0,0,1,1.73,1.07c.18.16.13.6.11.91a2.28,2.28,0,0,1-.27.92.94.94,0,0,1-.61.47c-1.81.09-3.63.22-5.44.17A7.78,7.78,0,0,0,399,59.53c-1.13.93-2.23,1.31-2.78,2.87-.23.64-1,3.46-.65,4.42a47.65,47.65,0,0,1,1.24,5h0c.13.57.25,1.14.39,1.72.34,2.13.45,5.81-2,8.61C393.75,83.86,397,95.53,397,95.53Zm9.13-53.38c-1.08.49-3.08.06-3.33-1Zm4.57,2.61-3.59-1.07C408.16,43.12,410.33,43.77,410.66,44.76Z"/></g></g></g></svg>