<svg xmlns="http://www.w3.org/2000/svg" viewBox="0 0 500.36 166.83"><defs><style>.cls-1{isolation:isolate;}.cls-2{fill:#f4ae62;}.cls-3{fill:#f76363;}.cls-22,.cls-4{font-size:9px;fill:#fff;}.cls-4{font-family:Raleway-Bold, Raleway;font-weight:700;}.cls-5{letter-spacing:-0.07em;}.cls-6{letter-spacing:-0.03em;}.cls-7{letter-spacing:0em;}.cls-8{letter-spacing:-0.06em;}.cls-9{font-size:4px;font-family:SourceHanSansTW-Light-B5pc-H, Source Han Sans TW;}.cls-23,.cls-24,.cls-9{fill:#373b63;}.cls-10{letter-spacing:-0.02em;}.cls-11{letter-spacing:-0.25em;}.cls-12{letter-spacing:-0.01em;}.cls-13{letter-spacing:-0.02em;}.cls-14{letter-spacing:0em;}.cls-15{letter-spacing:-0.02em;}.cls-16{letter-spacing:0em;}.cls-17{letter-spacing:-0.01em;}.cls-18{letter-spacing:-0.02em;}.cls-19{letter-spacing:-0.02em;}.cls-20{letter-spacing:0.01em;}.cls-21{letter-spacing:-0.07em;}.cls-22{font-family:SourceHanSansTW-Bold-B5pc-H, Source Han Sans TW;}.cls-24{mix-blend-mode:multiply;}.cls-25{opacity:0.38;}.cls-26{fill:#2c1e2d;}.cls-27{fill:none;stroke:#373e5e;stroke-linecap:round;stroke-linejoin:round;stroke-width:0.5px;stroke-dasharray:1 2;}</style></defs><title>資產 17</title><g class="cls-1"><g id="圖層_2" data-name="圖層 2"><g id="BACKGROUND"><rect class="cls-2" x="0.36" y="0.91" width="500" height="165.92"/><path class="cls-3" d="M500.36,0V26.66C478.64,25.4,459.1,24,439.77,23c-59.24-3-121.23-4.23-176.1,7.22-27.34,5.7-51.72,14.34-78.15,21A536.54,536.54,0,0,1,87.63,66c-25.7,1.56-53,1.21-77.35-3.63-3-.6-6.73-1.28-10.28-2.15V0Z"/></g><g id="OBJECTS"><text class="cls-4" transform="translate(324.92 60.74)">WH<tspan class="cls-5" x="16.18" y="0">A</tspan><tspan class="cls-6" x="21.6" y="0">T</tspan><tspan class="cls-7" x="26.92" y="0" xml:space="preserve"> IS 2019 nC</tspan><tspan class="cls-8" x="73.45" y="0">o</tspan><tspan class="cls-7" x="78.33" y="0">V?</tspan></text><text class="cls-9" transform="translate(324.92 71.49)">冠狀病毒(C<tspan class="cls-10" x="19.77" y="0">o</tspan><tspan x="22.06" y="0">V)為一群有外套膜之RNA病</tspan><tspan class="cls-11" x="69.13" y="0">毒，</tspan><tspan x="75.13" y="0">外表為圓</tspan><tspan class="cls-11" x="91.13" y="0">形，</tspan><tspan x="97.13" y="0">在電子顯微鏡下可看到</tspan><tspan x="0" y="4.8">類似皇冠的突起因此得</tspan><tspan class="cls-11" x="40" y="4.8">名。</tspan><tspan x="46" y="4.8">可再細分為四個屬: alpha, b</tspan><tspan class="cls-12" x="94.41" y="4.8">e</tspan><tspan class="cls-13" x="96.52" y="4.8">t</tspan><tspan class="cls-14" x="97.83" y="4.8">a, </tspan><tspan class="cls-15" x="101.9" y="4.8">g</tspan><tspan class="cls-16" x="104.01" y="4.8">amma, and del</tspan><tspan class="cls-13" x="131.01" y="4.8">t</tspan><tspan class="cls-11" x="132.33" y="4.8">a。</tspan><tspan x="0" y="9.6">已知會感染人類的冠狀病毒包括alpha C</tspan><tspan class="cls-10" x="69.62" y="9.6">o</tspan><tspan x="71.91" y="9.6">V的HC</tspan><tspan class="cls-10" x="83.46" y="9.6">oV</tspan><tspan x="87.88" y="9.6">-229E , HC</tspan><tspan class="cls-10" x="106.04" y="9.6">oV</tspan><tspan x="110.46" y="9.6">-NL63以及b</tspan><tspan class="cls-12" x="131.4" y="9.6">e</tspan><tspan class="cls-13" x="133.51" y="9.6">t</tspan><tspan x="134.82" y="9.6">a </tspan><tspan x="0" y="14.4">C</tspan><tspan class="cls-10" x="2.51" y="14.4">o</tspan><tspan x="4.8" y="14.4">V的HC</tspan><tspan class="cls-10" x="16.35" y="14.4">oV</tspan><tspan x="20.77" y="14.4">-H</tspan><tspan class="cls-17" x="24.94" y="14.4">K</tspan><tspan x="27.38" y="14.4">U1, HC</tspan><tspan class="cls-18" x="39.58" y="14.4">oV</tspan><tspan x="43.99" y="14.4">-OC43, ME</tspan><tspan class="cls-19" x="62.34" y="14.4">R</tspan><tspan class="cls-20" x="64.72" y="14.4">S</tspan><tspan x="67.09" y="14.4">-C</tspan><tspan class="cls-18" x="70.93" y="14.4">o</tspan><tspan class="cls-21" x="73.22" y="14.4">V</tspan><tspan x="75.16" y="14.4">, SA</tspan><tspan class="cls-19" x="81.71" y="14.4">R</tspan><tspan class="cls-20" x="84.08" y="14.4">S</tspan><tspan x="86.45" y="14.4">-C</tspan><tspan class="cls-18" x="90.29" y="14.4">o</tspan><tspan class="cls-21" x="92.59" y="14.4">V</tspan><tspan x="94.52" y="14.4">, 和最新發現的</tspan><tspan x="0" y="19.2">2019-nC</tspan><tspan class="cls-10" x="14.77" y="19.2">o</tspan><tspan class="cls-11" x="17.07" y="19.2">V。</tspan><tspan x="21.27" y="19.2">冠狀病毒是造成人類與動物疾病的重要病原</tspan><tspan class="cls-11" x="97.27" y="19.2">體。</tspan></text><text class="cls-22" transform="translate(81.69 90.17)">傳播途徑?</text><text class="cls-9" transform="translate(81.69 97.4)">大部分的人類冠狀病毒以直接接觸帶有病毒的分泌物或飛沫傳染為<tspan class="cls-11" x="116" y="0">主。</tspan><tspan x="122" y="0">有部分動物的冠狀病毒會讓動物出現腹瀉症</tspan><tspan class="cls-11" x="198" y="0">狀，</tspan><tspan x="204" y="0">可</tspan><tspan x="0" y="4.8">以在糞便當中找到病</tspan><tspan class="cls-11" x="36" y="4.8">毒，</tspan><tspan x="42" y="4.8">可能藉此造成病毒傳</tspan><tspan class="cls-11" x="78" y="4.8">播。</tspan></text><path class="cls-23" d="M149,53.11a18.38,18.38,0,0,1-1.12,3.28l3.19,3.55-4.35-1.35h0a21.51,21.51,0,0,1-1.62,2.29c1.29,1.68,6.1,7.92,6.15,8s-5.91-4.21-8.2-5.87a21.81,21.81,0,0,1-3,2.27l.14,5.54-2.79-4.08a23.17,23.17,0,0,1-4.22,1.48l-.35,3.26-.37,3.55L131,70.79l-.74-2a23.73,23.73,0,0,1-2.54.14h-1L122.1,76l1.34-7.43a24.13,24.13,0,0,1-3.44-.91L112.79,76l3.52-10a21.23,21.23,0,0,1-2.46-1.61l-4.7,2.09,3-3.49a20.51,20.51,0,0,1-2.35-2.59l-11.7,3.83,9.64-7.13a18.79,18.79,0,0,1-1.2-3.07l-7.06-1,6.5-1.42A17.62,17.62,0,0,1,105.8,49c-1.15-.88-5-3.56-5-3.56l5.32-.34a18.28,18.28,0,0,1,.76-2.84L98.14,35l10.35,3.76a20.24,20.24,0,0,1,3.16-4.06l-2.56-6.2,6,3.43a22,22,0,0,1,2.73-1.54L116.9,23v-.1L117,23l4.66,6a24.14,24.14,0,0,1,3.66-.67l1.13-4.94,1.69,4.82a23.8,23.8,0,0,1,3.29.28l4.2-6.86-1.05,7.59c.28.09.56.17.84.27,2.23-1.82,7.43-5.84,7.43-5.84l-3.58,7.6.62.37a23,23,0,0,1,3,2.24l3.57-1.58-2.07,3.06a20.21,20.21,0,0,1,2,2.58L157,36.3l-8.91,4.76a19.94,19.94,0,0,1,.83,2.32h6.7l-6.22,2.23a18.19,18.19,0,0,1,.24,3c0,.24,0,.48,0,.71l6.75,2.89Z"/><path class="cls-23" d="M131,70.79c.66.27,1.31.51,1.94.73l-.37,3.55Z"/><ellipse class="cls-24" cx="122.45" cy="52.73" rx="2.27" ry="2.11"/><path class="cls-24" d="M142,49.61a2.28,2.28,0,1,1-2.27-2.12A2.19,2.19,0,0,1,142,49.61Z"/><path class="cls-24" d="M131.85,50.2a4.41,4.41,0,0,0-2.39,1.46c-.46.54-1.21,1.76-.42,2.32a1.9,1.9,0,0,0,1.75,0c.78-.32,1.35-1,2.22-1.16.72-.12,1.45.3,2.18.18a1.14,1.14,0,0,0,.5-2.13A5.12,5.12,0,0,0,131.85,50.2Z"/><path class="cls-24" d="M135.71,48.86s2.81.68,3.47-2.58"/><path class="cls-24" d="M125.66,51.14s-2.33,1.62-4.27-1.17"/><g class="cls-25"><path class="cls-24" d="M142.8,23.67s-5.2,4-7.43,5.84c-.28-.1-.56-.18-.84-.27l1.05-7.59-4.2,6.86a23.8,23.8,0,0,0-3.29-.28l-1.69-4.82-1.13,4.94a24.14,24.14,0,0,0-3.66.67L117,23h0l.9,7.38A22,22,0,0,0,115.07,32l-6-3.43,2.56,6.2a20.24,20.24,0,0,0-3.16,4.06L98.14,35l8.72,7.26a18.28,18.28,0,0,0-.76,2.84l-5.32.34s3.87,2.68,5,3.56a17.62,17.62,0,0,0,.22,2.53L99.52,53l7.06,1a18.79,18.79,0,0,0,1.2,3.07l-9.64,7.13,11.7-3.83A20.51,20.51,0,0,0,112.19,63l-3,3.49,4.7-2.09A21.23,21.23,0,0,0,116.31,66l-3.52,10L120,67.63a24.13,24.13,0,0,0,3.44.91L122.1,76l4.59-7.07h.11c-7.2-3.74-13.88-10-12.27-20.19a.76.76,0,0,0,.19.12c.5.18,1.21-.4,1.58-1.29s.27-1.75-.23-1.94a1,1,0,0,0-.9.3,17.79,17.79,0,0,1,9.28-11.32.67.67,0,0,0-.06.5c.18.69,1.48,1,2.89.66s2.42-1.15,2.24-1.84c-.12-.45-.73-.73-1.53-.78.76-.24,1.52-.45,2.28-.62a4,4,0,0,0,1.47.26c1.11,0,2-.38,2.25-.89a41.34,41.34,0,0,1,5.85-.24l-.62-.37Z"/><path class="cls-24" d="M122.13,37c-.67.28-1.08.76-.93,1.09s.82.36,1.49.09,1.08-.76.93-1.08S122.8,36.72,122.13,37Z"/><path class="cls-24" d="M132.36,33.43c-.34,0-.62.14-.62.3s.28.3.62.3.61-.13.61-.3S132.7,33.43,132.36,33.43Z"/><path class="cls-24" d="M125.8,36.49c-.32.09-.54.29-.49.45s.36.21.68.12.55-.29.49-.45S126.13,36.4,125.8,36.49Z"/><path class="cls-24" d="M117.36,44.69c-.21.24-.27.53-.13.63s.42,0,.64-.26.27-.53.13-.63S117.57,44.44,117.36,44.69Z"/><path class="cls-24" d="M116,49.34c-.14.46,0,.88.22.95s.58-.26.71-.71,0-.88-.22-.95S116.09,48.88,116,49.34Z"/></g><path class="cls-23" d="M210.16,66.74a14.76,14.76,0,0,0,.9,2.65l-2.58,2.87L212,71.17h0A16.76,16.76,0,0,0,213.32,73c-1,1.36-4.93,6.4-5,6.49s4.78-3.4,6.64-4.74a17.89,17.89,0,0,0,2.38,1.83l-.12,4.48,2.26-3.3A18.58,18.58,0,0,0,222.91,79l.28,2.64.3,2.87L224.76,81l.6-1.62a19.81,19.81,0,0,0,2,.11h.81l3.71,5.72-1.08-6a19.08,19.08,0,0,0,2.77-.73l5.84,6.74-2.85-8.09a16.55,16.55,0,0,0,2-1.31l3.81,1.69-2.46-2.81a17.16,17.16,0,0,0,1.9-2.1l9.45,3.09-7.79-5.76a15.23,15.23,0,0,0,1-2.48l5.7-.82-5.25-1.15a17.18,17.18,0,0,0,.18-2c.92-.71,4-2.88,4-2.88l-4.3-.28a16.08,16.08,0,0,0-.61-2.29l7-5.87-8.36,3a16.12,16.12,0,0,0-2.56-3.28l2.07-5-4.83,2.77a17.65,17.65,0,0,0-2.21-1.24l.73-6v-.08l0,.07-3.76,4.86a18,18,0,0,0-3-.55l-.92-4-1.36,3.9a19.48,19.48,0,0,0-2.66.22L221,41.32l.84,6.13-.67.22c-1.81-1.47-6-4.72-6-4.72l2.89,6.14c-.16.09-.33.19-.49.3a17.43,17.43,0,0,0-2.43,1.81l-2.89-1.28L214,52.39a15.54,15.54,0,0,0-1.64,2.09l-8.56-1.33L211,57a15,15,0,0,0-.67,1.88h-5.42l5,1.8a14.54,14.54,0,0,0-.19,2.39c0,.2,0,.39,0,.58L204.27,66Z"/><path class="cls-23" d="M224.76,81c-.53.22-1.06.41-1.57.59l.3,2.87Z"/><ellipse class="cls-24" cx="231.65" cy="66.43" rx="1.84" ry="1.71"/><path class="cls-24" d="M215.84,63.91a1.84,1.84,0,1,0,1.84-1.71A1.78,1.78,0,0,0,215.84,63.91Z"/><path class="cls-24" d="M224.05,64.39A3.62,3.62,0,0,1,226,65.57c.36.43,1,1.42.33,1.87a1.55,1.55,0,0,1-1.42,0c-.62-.26-1.08-.82-1.78-.94s-1.18.24-1.77.14A.91.91,0,0,1,221,65,4.11,4.11,0,0,1,224.05,64.39Z"/><path class="cls-24" d="M220.93,63.31a2.31,2.31,0,0,1-2.8-2.09"/><path class="cls-24" d="M229.05,65.15s1.88,1.31,3.45-.94"/><g class="cls-25"><path class="cls-24" d="M215.2,43s4.2,3.25,6,4.72l.67-.22L221,41.32l3.39,5.54a19.48,19.48,0,0,1,2.66-.22l1.36-3.9.92,4a18,18,0,0,1,3,.55l3.76-4.86h0l-.73,6a17.65,17.65,0,0,1,2.21,1.24l4.83-2.77-2.07,5a16.12,16.12,0,0,1,2.56,3.28l8.36-3-7,5.87a16.08,16.08,0,0,1,.61,2.29l4.3.28s-3.13,2.17-4,2.88a17.18,17.18,0,0,1-.18,2l5.25,1.15-5.7.82a15.23,15.23,0,0,1-1,2.48l7.79,5.76-9.45-3.09a17.16,17.16,0,0,1-1.9,2.1l2.46,2.81-3.81-1.69a16.55,16.55,0,0,1-2,1.31l2.85,8.09-5.84-6.74a19.08,19.08,0,0,1-2.77.73l1.08,6-3.71-5.72h-.09c5.82-3,11.22-8.08,9.91-16.32a.45.45,0,0,1-.14.1c-.41.14-1-.32-1.28-1s-.22-1.42.18-1.57a.77.77,0,0,1,.73.24,14.38,14.38,0,0,0-7.5-9.15.54.54,0,0,1,.05.41c-.15.55-1.19.79-2.34.53s-2-.93-1.8-1.49c.09-.36.58-.59,1.23-.63-.61-.19-1.23-.36-1.85-.5a3.19,3.19,0,0,1-1.18.21c-.9,0-1.65-.31-1.82-.72a33.89,33.89,0,0,0-4.72-.19c.16-.11.33-.21.49-.3Z"/><path class="cls-24" d="M231.9,53.71c.54.23.88.62.76.88s-.67.3-1.21.08-.87-.62-.75-.88S231.36,53.49,231.9,53.71Z"/><path class="cls-24" d="M223.64,50.84c.28,0,.5.11.5.24s-.22.24-.5.24-.5-.11-.5-.24S223.37,50.84,223.64,50.84Z"/><path class="cls-24" d="M228.94,53.31c.26.07.44.24.4.36s-.29.18-.55.1-.45-.24-.4-.37S228.68,53.23,228.94,53.31Z"/><path class="cls-24" d="M235.76,59.93c.17.2.22.43.11.52s-.35,0-.52-.21-.22-.43-.1-.52S235.59,59.73,235.76,59.93Z"/><path class="cls-24" d="M236.9,63.69c.11.37,0,.72-.18.77s-.47-.2-.58-.57,0-.72.18-.77S236.79,63.32,236.9,63.69Z"/></g><path class="cls-26" d="M100.29,10.64s-.15,2.68,1.75,2.47a1.79,1.79,0,0,0,0,2.75c-.32-.13-1.51.67-2.17,1.91a2.54,2.54,0,0,0-.1,2.27s-1-.57-1.43-.19A1.43,1.43,0,0,0,98,21s-.66-.78-.86-.58,0,1.08,0,1.08S96.53,20.68,96,21s-.5,1.34-.5,1.34a2.83,2.83,0,0,0-2.14-1.12,6.64,6.64,0,0,0-3,1.24s0-1.14-.79-1.49a3.14,3.14,0,0,0-1.75-.12s-.1-2.32-2.28-2.31c.46-.82,4.67-.54,5.9.21s3.11.91,3.84.43a3.08,3.08,0,0,1-.89-1.43l.82.45.48-.18,0-1.1s.71,1.26.95,1.27a2.14,2.14,0,0,0,1.16-1.79C98,15.55,98.58,12.2,100.29,10.64Z"/><path class="cls-26" d="M72.35,49.78s1.44.4,1.6,1.26-.75,1.57-.75,1.57.5-.18,1.09.57-.12,1.74-.12,1.74a3.14,3.14,0,0,1,2.35.74,3.87,3.87,0,0,1,1,2.87,1.2,1.2,0,0,1,1.11.35c.57.52.3,1.81.3,1.81s.93-1.38,1.45-1.33.94.72.94.72A5.24,5.24,0,0,1,83.4,58.3c1.09-.34,3.07.49,3.07.49a1.26,1.26,0,0,1,.32-1.46c.72-.57,2.3,0,2.3,0s-.31-1.17.23-1.61,1.8-.14,1.8-.14S89.21,53.78,87.2,54s-4.51,2.47-5.4,2.49a12,12,0,0,0,.44-1.23l-1.82,1.12-.6-1.93-.4,1.07s-.57-.21-.73-1.52A5,5,0,0,0,76,50.06,5.9,5.9,0,0,0,72.35,49.78Z"/><ellipse class="cls-26" cx="104.41" cy="15.35" rx="0.69" ry="0.64"/><path class="cls-26" d="M169.27,16.63a.66.66,0,0,1-.69.63.64.64,0,1,1,0-1.27A.66.66,0,0,1,169.27,16.63Z"/><path class="cls-27" d="M105.8,14.74c9.15-3.33,19-5.35,28.47-4.1,4,.54,8.12,3.06,10.88,5.86A2.27,2.27,0,0,1,146,18a1,1,0,0,1-1.17,1c-.71-.21-.71-1.16-.37-1.76.77-1.41,2.43-2.19,4-2.72a26.18,26.18,0,0,1,19.14,1.21"/><ellipse class="cls-26" cx="169.85" cy="44.72" rx="0.69" ry="0.64" transform="translate(35.96 158.38) rotate(-55.08)"/><ellipse class="cls-26" cx="199.95" cy="74.95" rx="0.69" ry="0.64" transform="translate(24.03 196) rotate(-55.08)"/><path class="cls-27" d="M169.48,46A29.87,29.87,0,0,0,178.17,67a28.54,28.54,0,0,0,21,8"/><path class="cls-26" d="M174.66,43.14s.16,0,.26.55h1.16a4.21,4.21,0,0,0-.81-.8s-.9-4.07.18-5.56a3,3,0,0,0,.33-.58.36.36,0,0,0,0,.1c-.26.81.15,2.94.51,4.5l0,.16h0c.22.94.42,1.64.42,1.64s.17,0,.27.55h1.16a4.1,4.1,0,0,0-.82-.8,16.86,16.86,0,0,1-.35-3.15c0-.15.09-.32.11-.43.18-.91,1.19-1.75,1.85-2.41.27-.28.48-.62.72-.92a1,1,0,0,1,.2-.15.76.76,0,0,1,.13.2,9.91,9.91,0,0,1,.48,2.86,6.06,6.06,0,0,0,.17,1.61h0c0,.15.05.33.08.52h0c.1.86.15,2,.15,2a2,2,0,0,1,.23.7h.77a1.36,1.36,0,0,0-.39-.76c0-.26-.1-1.37-.13-1.9s-.13-1.34.22-2c.24-.41.05-.82,0-1.23a4.65,4.65,0,0,1-.11-1c0-.68.08-1.35.16-2a.85.85,0,0,1,1-.61A1.26,1.26,0,0,1,184,35.31c0,.22.05.44.05.66,0,1,0,2.05,0,3.07,0,.44.2.86.26,1.3l0,.16h0a21,21,0,0,1,.28,2.49,1.89,1.89,0,0,1,.26.7h.87c0-.37-.45-.76-.45-.76-.05-.26-.12-1.41-.14-1.92,0-.17,0-.33,0-.5a2.76,2.76,0,0,1,.06-.4c0-.27.09-.53.11-.79,0-.79,0-1.58.12-2.36a12.24,12.24,0,0,1,.48-1.64,3.13,3.13,0,0,0,.2-1,1.86,1.86,0,0,1,.64-1.55,2.62,2.62,0,0,0,.74-1.56,9.44,9.44,0,0,0,.15-1.29c0-.8,0-1.6.07-2.4,0-.57.1-1.13.14-1.7a1.34,1.34,0,0,0,0-.4q-.27-1.18-.57-2.37c-.1-.41-.23-.81-.36-1.22s-.29-.92-.42-1.39a.33.33,0,0,1,0-.24,1.79,1.79,0,0,0,.15-1.56c-.12-.52-.06-.62.5-.68a8.67,8.67,0,0,0,5-2.24c.46-.4,1-.77,1.43-1.16a4.93,4.93,0,0,0,.42-.49,1.73,1.73,0,0,1,.28-.26,3.22,3.22,0,0,0,1.36-1.67,2.87,2.87,0,0,0,.07-1.1c-.51.55-.43,1.59-1.36,2,.07-.29.09-.89.13-1.19a14,14,0,0,0,.12-1.44,2.18,2.18,0,0,0-.14-.6.3.3,0,0,0-.18.24c0,.32,0,.55,0,.88,0,.65-.49.92-1,1.12a.36.36,0,0,1-.29-.15c-.16-.31-.27-.62-.41-.94l-.4-.88-.13,0,.12.64c.1.69.24,1.38.3,2.07a3.15,3.15,0,0,1-1.19,2.56h-.11L191,14a.16.16,0,0,0-.16.11,3,3,0,0,0,0,.42,2.94,2.94,0,0,1-.45,1.6.51.51,0,0,1-.2.21,6.51,6.51,0,0,1-3.14.94c-.29,0-.33-.11-.23-.34s.14-.42.21-.63-.09-.21-.14-.23c-.14.28-.29.72-.4,1a.34.34,0,0,1-.33.25,2.44,2.44,0,0,0-.65.14,1.19,1.19,0,0,1-.89,0,1.87,1.87,0,0,1-1.19-2,.13.13,0,0,0,0-.14,1.12,1.12,0,0,0-.23,1,2.51,2.51,0,0,0,.78,1.45c.09.07.19.26.16.3a.5.5,0,0,1-.36.19,3,3,0,0,1-1.56-.46,5.28,5.28,0,0,0-1.23-.77,2.77,2.77,0,0,1-1.77-2.54c0-.35.05-.43.41-.4a1.39,1.39,0,0,0,1-.3,11,11,0,0,0,2.38-2.28.46.46,0,0,0,.1-.29,19.26,19.26,0,0,1-2.46,1.94l-.46.16c-.38.12-.65-.09-.62-.45a.3.3,0,0,0-.07-.24c-.31-.12-.3-.37-.29-.61l.06-1.3a.37.37,0,0,0-.1-.28,1.71,1.71,0,0,0-.2.27c-.24.58-.49,1.16-.69,1.75-.1.27-.22.26-.42.14a1,1,0,0,1-.5-.9c0-.38.05-.77.07-1.16a.52.52,0,0,0-.15-.49c0,.07,0,.14-.07.21a2.44,2.44,0,0,0,.36,3,4.38,4.38,0,0,1,.7,1.18c.25.55.43,1.12.64,1.67.08.2,0,.33-.21.28a2.89,2.89,0,0,1-2.58-2,2.21,2.21,0,0,1,0-.63,1,1,0,0,0,0-.39,1.71,1.71,0,0,0-.19,1.61,1.52,1.52,0,0,0,.18.33c.55.66,1.09,1.32,1.65,2a.69.69,0,0,0,.34.25,1.75,1.75,0,0,1,.93.78,6.69,6.69,0,0,0,1,1.08,3.4,3.4,0,0,0,.84.38,2.13,2.13,0,0,0,.35.09c-.3.17-.35.35-.22.59,0,.06,0,.2,0,.22-.41.25-.57.73-1.13.86s-.54.66-.2,1.1a1.52,1.52,0,0,0,1.09.51,2.21,2.21,0,0,1,.86.52c.09.08.06.3.05.45a1.06,1.06,0,0,1-.13.45.46.46,0,0,1-.31.22c-.9.05-1.81.11-2.71.09a3.88,3.88,0,0,0-2.65.79c-.57.45-1.12.64-1.39,1.4a5.31,5.31,0,0,0-.32,2.16,23.16,23.16,0,0,1,.61,2.42h0c.06.28.13.56.2.84a5.05,5.05,0,0,1-1,4.2C173.06,37.46,174.66,43.14,174.66,43.14Zm4.55-26c-.54.24-1.54,0-1.66-.48Zm2.28,1.27-1.79-.52A1.54,1.54,0,0,1,181.49,18.4Z"/></g></g></g></svg>