<svg xmlns="http://www.w3.org/2000/svg" viewBox="0 0 500 145.15"><defs><style>.cls-1{isolation:isolate;}.cls-2{fill:#f67280;}.cls-3{fill:#f8b163;}.cls-19,.cls-4{font-size:9px;}.cls-19,.cls-20,.cls-4{fill:#fff;}.cls-4{font-family:Raleway-Bold, Raleway;font-weight:700;}.cls-5{letter-spacing:-0.07em;}.cls-6{letter-spacing:-0.03em;}.cls-7{letter-spacing:0em;}.cls-8{letter-spacing:-0.06em;}.cls-20,.cls-9{font-size:4px;}.cls-21,.cls-22,.cls-9{fill:#373b63;}.cls-9{font-family:SourceHanSansTW-Regular-B5pc-H, Source Han Sans TW;}.cls-10{letter-spacing:-0.02em;}.cls-11{letter-spacing:-0.25em;}.cls-12{letter-spacing:-0.01em;}.cls-13{letter-spacing:-0.02em;}.cls-14{letter-spacing:-0.02em;}.cls-15{letter-spacing:-0.02em;}.cls-16{letter-spacing:-0.02em;}.cls-17{letter-spacing:0.02em;}.cls-18{letter-spacing:-0.07em;}.cls-19{font-family:SourceHanSansTW-Bold-B5pc-H, Source Han Sans TW;}.cls-20{font-family:SourceHanSansTW-Light-B5pc-H, Source Han Sans TW;}.cls-22{mix-blend-mode:multiply;}.cls-23{opacity:0.38;}.cls-24{fill:#2c1e2d;}.cls-25{fill:none;stroke:#373e5e;stroke-linecap:round;stroke-linejoin:round;stroke-width:0.5px;stroke-dasharray:1 2;}</style></defs><title>資產 6</title><g class="cls-1"><g id="圖層_2" data-name="圖層 2"><g id="BACKGROUND"><rect class="cls-2" y="1.76" width="500" height="143.39"/><path class="cls-3" d="M500,0V41.91c-21.7-2-41.23-4.23-60.54-5.76-59.2-4.67-121.15-6.66-176,11.35-27.32,9-51.68,22.54-78.09,33a358.88,358.88,0,0,1-97.82,23.29c-25.68,2.45-53,1.9-77.3-5.7-3-1-6.72-2-10.27-3.38V0Z"/></g><g id="OBJECTS"><text class="cls-4" transform="translate(64 38.23)">WH<tspan class="cls-5" x="16.18" y="0">A</tspan><tspan class="cls-6" x="21.6" y="0">T</tspan><tspan class="cls-7" x="26.92" y="0" xml:space="preserve"> IS 2019 nC</tspan><tspan class="cls-8" x="73.45" y="0">o</tspan><tspan class="cls-7" x="78.33" y="0">V?</tspan></text><text class="cls-9" transform="translate(64 50.99)">冠狀病毒(C<tspan class="cls-10" x="19.9" y="0">o</tspan><tspan x="22.24" y="0">V)為一群有外套膜之RNA病</tspan><tspan class="cls-11" x="69.75" y="0">毒，</tspan><tspan x="75.75" y="0">外表為圓</tspan><tspan class="cls-11" x="91.75" y="0">形，</tspan><tspan x="97.75" y="0">在電子顯微鏡下可看到類</tspan><tspan x="0" y="4.8">似皇冠的突起因此得</tspan><tspan class="cls-11" x="36" y="4.8">名。</tspan><tspan x="42" y="4.8">可再細分為四個屬: alpha, b</tspan><tspan class="cls-12" x="91.05" y="4.8">e</tspan><tspan class="cls-13" x="93.22" y="4.8">t</tspan><tspan x="94.63" y="4.8">a, </tspan><tspan class="cls-14" x="98.89" y="4.8">g</tspan><tspan x="101.07" y="4.8">amma, and del</tspan><tspan class="cls-15" x="128.91" y="4.8">t</tspan><tspan class="cls-11" x="130.33" y="4.8">a。</tspan><tspan x="134.58" y="4.8">已知</tspan><tspan x="0" y="9.6">會感染人類的冠狀病毒包括alpha C</tspan><tspan class="cls-10" x="62.01" y="9.6">o</tspan><tspan x="64.35" y="9.6">V的HC</tspan><tspan class="cls-10" x="76.11" y="9.6">oV</tspan><tspan x="80.67" y="9.6">-229E , HC</tspan><tspan class="cls-10" x="99.43" y="9.6">oV</tspan><tspan x="103.99" y="9.6">-NL63以及b</tspan><tspan class="cls-12" x="125.35" y="9.6">e</tspan><tspan class="cls-13" x="127.52" y="9.6">t</tspan><tspan x="128.93" y="9.6">a C</tspan><tspan class="cls-10" x="134.64" y="9.6">o</tspan><tspan x="136.98" y="9.6">V的</tspan><tspan x="0" y="14.4">HC</tspan><tspan class="cls-10" x="5.46" y="14.4">oV</tspan><tspan x="10.02" y="14.4">-H</tspan><tspan class="cls-16" x="14.32" y="14.4">K</tspan><tspan x="16.84" y="14.4">U1, HC</tspan><tspan class="cls-10" x="29.42" y="14.4">oV</tspan><tspan x="33.97" y="14.4">-OC43, ME</tspan><tspan class="cls-16" x="52.93" y="14.4">R</tspan><tspan class="cls-17" x="55.41" y="14.4">S</tspan><tspan x="57.86" y="14.4">-C</tspan><tspan class="cls-10" x="61.8" y="14.4">o</tspan><tspan class="cls-18" x="64.14" y="14.4">V</tspan><tspan x="66.15" y="14.4">, SA</tspan><tspan class="cls-16" x="72.97" y="14.4">R</tspan><tspan class="cls-17" x="75.46" y="14.4">S</tspan><tspan x="77.9" y="14.4">-C</tspan><tspan class="cls-10" x="81.84" y="14.4">o</tspan><tspan class="cls-18" x="84.18" y="14.4">V</tspan><tspan x="86.19" y="14.4">, 和最新發現的2019-nC</tspan><tspan class="cls-10" x="127.46" y="14.4">o</tspan><tspan class="cls-11" x="129.8" y="14.4">V。</tspan><tspan x="134.1" y="14.4">冠狀</tspan><tspan x="0" y="19.2">病毒是造成人類與動物疾病的重要病原</tspan><tspan class="cls-11" x="68" y="19.2">體。</tspan></text><text class="cls-19" transform="translate(65.73 117.41)">傳播途徑?</text><text class="cls-20" transform="translate(65.73 126.64)">大部分的人類冠狀病毒以直接接觸帶有病毒的分泌物或飛沫傳染為<tspan class="cls-11" x="116" y="0">主。</tspan><tspan x="122" y="0">有部分動物的冠狀病毒會讓動物出現腹瀉症</tspan><tspan class="cls-11" x="198" y="0">狀，</tspan><tspan x="204" y="0">可</tspan><tspan x="0" y="4.8">以在糞便當中找到病</tspan><tspan class="cls-11" x="36" y="4.8">毒，</tspan><tspan x="42" y="4.8">可能藉此造成病毒傳</tspan><tspan class="cls-11" x="78" y="4.8">播。</tspan></text><path class="cls-21" d="M345.1,74.06a29.67,29.67,0,0,1-1.71,5.1l4.84,5.52-6.59-2.1,0,0a30.8,30.8,0,0,1-2.45,3.56c1.95,2.61,9.24,12.32,9.32,12.49-.14,0-8.95-6.55-12.42-9.13a33.27,33.27,0,0,1-4.46,3.53l.22,8.62-4.24-6.35a34.34,34.34,0,0,1-6.38,2.3l-.52,5.07-.57,5.52-2.37-6.65-1.12-3.13a32.63,32.63,0,0,1-3.85.22l-1.35,0h-.16l-6.94,11,2-11.57a34.32,34.32,0,0,1-5.2-1.41l-10.92,13,5.33-15.57a33.72,33.72,0,0,1-3.72-2.52l-7.11,3.26,4.59-5.42a33.3,33.3,0,0,1-3.56-4l-17.69,6L282.66,80.2a29.9,29.9,0,0,1-1.83-4.77l-10.68-1.6L280,71.62a29.74,29.74,0,0,1-.34-3.92c-1.73-1.37-7.59-5.55-7.59-5.55l8.06-.53a29.85,29.85,0,0,1,1.14-4.42L268.07,45.91l15.65,5.86a31.32,31.32,0,0,1,4.79-6.32l-3.87-9.65,9,5.33a33.16,33.16,0,0,1,4.14-2.38l-1.37-11.48,0-.16.11.14,7,9.34a34.65,34.65,0,0,1,5.53-1.06l1.73-7.68,2.54,7.51a34,34,0,0,1,5,.43l6.36-10.67-1.58,11.8q.63.19,1.26.42c3.38-2.83,11.25-9.08,11.25-9.08l-5.42,11.82c.32.18.62.37.93.58a33,33,0,0,1,4.55,3.48l5.4-2.46L338,46.44a31.31,31.31,0,0,1,3.07,4l16-2.55-13.48,7.4a30.33,30.33,0,0,1,1.25,3.62H355l-9.41,3.46a30.61,30.61,0,0,1,.35,4.61c0,.38,0,.74,0,1.11l10.21,4.49Z"/><path class="cls-21" d="M317.75,101.56c1,.41,2,.78,2.94,1.13l-.57,5.52Z"/><ellipse class="cls-22" cx="304.85" cy="73.46" rx="3.44" ry="3.28"/><path class="cls-22" d="M334.45,68.6A3.44,3.44,0,1,1,331,65.32,3.37,3.37,0,0,1,334.45,68.6Z"/><path class="cls-22" d="M319.08,69.53a6.75,6.75,0,0,0-3.63,2.27c-.68.83-1.81,2.74-.62,3.6a2.79,2.79,0,0,0,2.65.06c1.17-.51,2-1.58,3.35-1.81,1.09-.18,2.2.47,3.3.27a1.77,1.77,0,0,0,.76-3.3A7.53,7.53,0,0,0,319.08,69.53Z"/><path class="cls-22" d="M324.92,67.44s4.26,1.06,5.25-4"/><path class="cls-22" d="M309.71,71s-3.52,2.51-6.46-1.82"/><g class="cls-23"><path class="cls-22" d="M335.65,28.26s-7.87,6.25-11.25,9.08q-.63-.23-1.26-.42l1.58-11.8-6.36,10.67a34,34,0,0,0-5-.43l-2.54-7.51-1.73,7.68a34.65,34.65,0,0,0-5.53,1.06l-7-9.34-.09,0,1.37,11.48a33.16,33.16,0,0,0-4.14,2.38l-9-5.33,3.87,9.65a31.32,31.32,0,0,0-4.79,6.32l-15.65-5.86L281.26,57.2a29.85,29.85,0,0,0-1.14,4.42l-8.06.53s5.86,4.18,7.59,5.55a29.74,29.74,0,0,0,.34,3.92l-9.84,2.21,10.68,1.6a29.9,29.9,0,0,0,1.83,4.77L268.07,91.29l17.69-6a33.3,33.3,0,0,0,3.56,4l-4.59,5.42,7.11-3.26a33.72,33.72,0,0,0,3.72,2.52l-5.33,15.57,10.92-13a34.32,34.32,0,0,0,5.2,1.41l-2,11.57,6.94-11h.16c-10.89-5.81-21-15.56-18.56-31.4a.91.91,0,0,0,.28.17c.76.29,1.83-.61,2.4-2s.41-2.73-.35-3a1.42,1.42,0,0,0-1.37.47,27.57,27.57,0,0,1,14-17.62,1.19,1.19,0,0,0-.09.78c.28,1.07,2.24,1.53,4.39,1s3.65-1.78,3.38-2.85c-.19-.71-1.1-1.15-2.31-1.22,1.14-.38,2.3-.69,3.45-1a5.71,5.71,0,0,0,2.22.41c1.68,0,3.08-.59,3.41-1.38a60.78,60.78,0,0,1,8.84-.37c-.31-.21-.61-.4-.93-.58Z"/><path class="cls-22" d="M304.37,49c-1,.43-1.64,1.18-1.41,1.69s1.24.57,2.25.14,1.65-1.18,1.41-1.68S305.38,48.56,304.37,49Z"/><path class="cls-22" d="M319.84,43.45c-.51,0-.93.21-.93.46s.42.47.93.47.93-.21.93-.47S320.36,43.45,319.84,43.45Z"/><path class="cls-22" d="M309.92,48.2c-.49.14-.82.46-.74.7s.54.33,1,.19.83-.46.75-.71S310.42,48.05,309.92,48.2Z"/><path class="cls-22" d="M297.15,61c-.32.39-.41.83-.2,1s.65,0,1-.41.41-.82.19-1S297.47,60.57,297.15,61Z"/><path class="cls-22" d="M295,68.19c-.21.71-.06,1.37.33,1.47s.88-.39,1.08-1.1.06-1.37-.33-1.48S295.22,67.47,295,68.19Z"/></g><path class="cls-21" d="M377.16,112.11a25.2,25.2,0,0,0,1.37,4.12l-3.9,4.46L380,119l0,0a24.39,24.39,0,0,0,2,2.87c-1.58,2.11-7.47,10-7.53,10.1.11,0,7.23-5.3,10-7.38a26.31,26.31,0,0,0,3.61,2.85l-.18,7,3.42-5.13a28.26,28.26,0,0,0,5.16,1.85l.42,4.11.46,4.46,1.92-5.38.91-2.53a26.47,26.47,0,0,0,3.1.18l1.1,0h.12l5.61,8.89-1.63-9.34a28.84,28.84,0,0,0,4.2-1.14l8.83,10.48-4.31-12.58a26.87,26.87,0,0,0,3-2l5.75,2.63-3.72-4.38a25.53,25.53,0,0,0,2.88-3.27l14.3,4.82-11.79-9a25,25,0,0,0,1.48-3.86l8.63-1.29-8-1.78a23.79,23.79,0,0,0,.27-3.18c1.4-1.1,6.14-4.48,6.14-4.48l-6.52-.43a22.81,22.81,0,0,0-.92-3.57l10.66-9.12-12.65,4.73A25.65,25.65,0,0,0,422.89,89L426,81.19l-7.31,4.3a27.54,27.54,0,0,0-3.34-1.92l1.1-9.28,0-.13-.09.11-5.69,7.55a27.37,27.37,0,0,0-4.47-.85l-1.39-6.21-2.06,6.06a26.47,26.47,0,0,0-4,.36l-5.14-8.63,1.28,9.54-1,.34c-2.73-2.29-9.09-7.34-9.09-7.34l4.38,9.55c-.25.15-.5.3-.75.47a26.7,26.7,0,0,0-3.68,2.81l-4.36-2,2.53,3.84A25.75,25.75,0,0,0,380.43,93L367.48,91l10.9,6a24.6,24.6,0,0,0-1,2.92h-8.2l7.61,2.8a24.14,24.14,0,0,0-.29,3.72c0,.31,0,.6,0,.9l-8.25,3.63Z"/><path class="cls-21" d="M399.26,134.33c-.8.34-1.6.63-2.38.92l.46,4.46Z"/><ellipse class="cls-22" cx="409.69" cy="111.62" rx="2.78" ry="2.65"/><path class="cls-22" d="M385.77,107.69a2.78,2.78,0,1,0,2.77-2.65A2.72,2.72,0,0,0,385.77,107.69Z"/><path class="cls-22" d="M398.18,108.44a5.43,5.43,0,0,1,2.93,1.84c.55.67,1.47,2.21.51,2.91a2.25,2.25,0,0,1-2.14,0c-1-.4-1.65-1.27-2.71-1.45-.88-.16-1.78.37-2.66.21a1.43,1.43,0,0,1-.62-2.67A6.15,6.15,0,0,1,398.18,108.44Z"/><path class="cls-22" d="M393.47,106.76s-3.44.85-4.25-3.25"/><path class="cls-22" d="M405.76,109.63s2.84,2,5.21-1.47"/><g class="cls-23"><path class="cls-22" d="M384.79,75.09s6.36,5,9.09,7.34l1-.34-1.28-9.54,5.14,8.63a26.47,26.47,0,0,1,4-.36l2.06-6.06L406.24,81a27.37,27.37,0,0,1,4.47.85l5.69-7.55.07,0-1.1,9.28a27.54,27.54,0,0,1,3.34,1.92l7.31-4.3L422.89,89a25.65,25.65,0,0,1,3.87,5.11l12.65-4.73-10.66,9.12a22.81,22.81,0,0,1,.92,3.57l6.52.43s-4.74,3.38-6.14,4.48a23.79,23.79,0,0,1-.27,3.18l8,1.78-8.63,1.29a25,25,0,0,1-1.48,3.86l11.79,9-14.3-4.82a25.53,25.53,0,0,1-2.88,3.27l3.72,4.38-5.75-2.63a26.87,26.87,0,0,1-3,2l4.31,12.58-8.83-10.48a28.84,28.84,0,0,1-4.2,1.14l1.63,9.34L404.49,132h-.12c8.8-4.69,17-12.57,15-25.38a.86.86,0,0,1-.22.15c-.61.22-1.48-.5-1.94-1.61s-.33-2.21.29-2.44a1.12,1.12,0,0,1,1.1.37,22.26,22.26,0,0,0-11.35-14.24.88.88,0,0,1,.07.63c-.22.87-1.81,1.24-3.54.83S400.82,88.83,401,88c.15-.57.88-.92,1.86-1-.92-.31-1.85-.56-2.79-.78a4.8,4.8,0,0,1-1.79.33c-1.36,0-2.49-.48-2.75-1.12a49.75,49.75,0,0,0-7.15-.3c.25-.17.5-.32.75-.47Z"/><path class="cls-22" d="M410.07,91.84c.82.34,1.33,1,1.14,1.36s-1,.46-1.82.12-1.33-1-1.14-1.36S409.26,91.49,410.07,91.84Z"/><path class="cls-22" d="M397.57,87.36c.41,0,.75.17.75.38s-.34.38-.75.38-.76-.17-.76-.38S397.15,87.36,397.57,87.36Z"/><path class="cls-22" d="M405.58,91.2c.4.12.67.38.61.57s-.44.27-.84.15-.67-.37-.6-.57S405.19,91.09,405.58,91.2Z"/><path class="cls-22" d="M415.9,101.51c.26.31.34.67.17.8s-.52,0-.78-.33-.33-.67-.16-.8S415.65,101.2,415.9,101.51Z"/><path class="cls-22" d="M417.63,107.36c.17.57.05,1.11-.27,1.19s-.71-.32-.87-.89-.05-1.11.27-1.19S417.47,106.78,417.63,107.36Z"/></g><path class="cls-24" d="M274.35,18.88s-.24,4.17,2.65,3.84c-.82.53-1.76,3,0,4.27-.48-.19-2.29,1.05-3.29,3a4,4,0,0,0-.15,3.52s-1.53-.87-2.16-.28a2.24,2.24,0,0,0-.47,1.71s-1-1.2-1.3-.89,0,1.68,0,1.68-1-1.21-1.78-.75-.77,2.09-.77,2.09a4.23,4.23,0,0,0-3.23-1.75c-2,.05-4.46,1.94-4.46,1.94s-.07-1.78-1.19-2.33a4.59,4.59,0,0,0-2.65-.19s-.16-3.59-3.45-3.59c.68-1.28,7.06-.83,8.92.33s4.71,1.41,5.81.68a5.13,5.13,0,0,1-1.34-2.23l1.23.69.73-.28.07-1.71s1.08,2,1.43,2a3.33,3.33,0,0,0,1.76-2.79C270.84,26.51,271.76,21.31,274.35,18.88Z"/><path class="cls-24" d="M232.07,79.76s2.17.62,2.42,2a2.94,2.94,0,0,1-1.14,2.43s.76-.28,1.65.89-.18,2.71-.18,2.71a4.63,4.63,0,0,1,3.56,1.15c1.68,1.47,1.49,4.46,1.49,4.46a1.79,1.79,0,0,1,1.68.55c.86.81.45,2.81.45,2.81s1.41-2.14,2.2-2.06,1.43,1.12,1.43,1.12,1.51-2.26,3.16-2.78,4.64.76,4.64.76a2,2,0,0,1,.49-2.26c1.09-.89,3.48,0,3.48,0s-.47-1.83.34-2.51,2.73-.21,2.73-.21-2.9-2.81-5.94-2.55-6.83,3.85-8.17,3.89A17.54,17.54,0,0,0,247,88.2L244.27,90l-.91-3-.59,1.67s-.87-.32-1.11-2.37a7.75,7.75,0,0,0-4.11-6A8.64,8.64,0,0,0,232.07,79.76Z"/><ellipse class="cls-24" cx="280.57" cy="26.21" rx="1.04" ry="0.99"/><path class="cls-24" d="M378.73,28.19a1,1,0,1,1-1-1A1,1,0,0,1,378.73,28.19Z"/><path class="cls-25" d="M282.68,25.25c13.84-5.17,28.74-8.32,43.09-6.37,6.12.84,12.28,4.76,16.47,9.11a3.57,3.57,0,0,1,1.24,2.33c0,.89-.89,1.81-1.78,1.54-1.07-.32-1.06-1.79-.56-2.74,1.17-2.19,3.68-3.4,6.11-4.23a38.58,38.58,0,0,1,28.95,1.89"/><ellipse class="cls-24" cx="376.8" cy="67.07" rx="1.04" ry="0.99"/><ellipse class="cls-24" cx="365.36" cy="132.39" rx="1.04" ry="0.99"/><path class="cls-25" d="M375,67.71a46.6,46.6,0,0,0-18.63,29.86,45.32,45.32,0,0,0,8.31,33.83"/><path class="cls-24" d="M386.88,69.44s.26,0,.41.84h1.76A6.92,6.92,0,0,0,387.81,69s-1.36-6.32.27-8.65a4.54,4.54,0,0,0,.5-.89l0,.15c-.38,1.26.24,4.57.79,7a1,1,0,0,0,0,.24h0c.34,1.47.63,2.56.63,2.56s.26,0,.41.84h1.76A6.92,6.92,0,0,0,391,69a26.83,26.83,0,0,1-.53-4.89c.06-.24.13-.5.17-.68.26-1.41,1.8-2.71,2.79-3.75.41-.43.72-.95,1.09-1.42a1.19,1.19,0,0,1,.31-.23c.06.1.17.19.2.3a16.31,16.31,0,0,1,.73,4.45,10.44,10.44,0,0,0,.24,2.51h0a7.42,7.42,0,0,1,.12.81h0l0,0c.16,1.35.24,3,.24,3a3.26,3.26,0,0,1,.35,1.08h1.16a2.18,2.18,0,0,0-.59-1.18c-.07-.39-.16-2.13-.2-2.95.11-1-.2-2.09.34-3,.35-.64.06-1.29,0-1.93a7.75,7.75,0,0,1-.16-1.51c0-1,.11-2.09.24-3.13a1.27,1.27,0,0,1,1.49-.95,1.93,1.93,0,0,1,2,1.67c0,.34.08.68.08,1,0,1.59,0,3.18,0,4.77a20.54,20.54,0,0,0,.39,2,2.17,2.17,0,0,1,0,.25h0a36.69,36.69,0,0,1,.41,3.87,2.66,2.66,0,0,1,.39,1.08h1.32c0-.56-.68-1.18-.68-1.18-.08-.4-.17-2.18-.21-3,0-.26,0-.52,0-.78a4.55,4.55,0,0,1,.09-.63c.05-.4.14-.81.16-1.21.06-1.23,0-2.47.18-3.68a19.47,19.47,0,0,1,.74-2.55,5.24,5.24,0,0,0,.29-1.59,3,3,0,0,1,1-2.41,4.07,4.07,0,0,0,1.11-2.43,15,15,0,0,0,.24-2c.05-1.25.05-2.49.11-3.73,0-.89.14-1.77.21-2.65a1.92,1.92,0,0,0,0-.63c-.27-1.23-.54-2.46-.84-3.68-.16-.64-.37-1.26-.55-1.89s-.44-1.44-.65-2.17a.53.53,0,0,1,.05-.37,2.89,2.89,0,0,0,.24-2.43c-.19-.81-.1-1,.75-1.06a13,13,0,0,0,7.63-3.48c.69-.63,1.45-1.19,2.16-1.81.24-.22.42-.51.64-.75a2.38,2.38,0,0,1,.42-.42,4.92,4.92,0,0,0,2-2.59,4.61,4.61,0,0,0,.12-1.71c-.78.85-.66,2.48-2.06,3.09.1-.45.14-1.39.19-1.84.1-.75.16-1.5.19-2.25a3.49,3.49,0,0,0-.22-.93.45.45,0,0,0-.26.37c-.05.5,0,.87,0,1.37,0,1-.74,1.44-1.6,1.74a.55.55,0,0,1-.43-.23c-.24-.47-.42-1-.62-1.46s-.41-.91-.61-1.37l-.2.05c.07.34.13.67.18,1,.16,1.07.37,2.14.46,3.21a4.94,4.94,0,0,1-1.8,4h-.16c-.07-.67-.14-1.5-.21-2.18-.07,0-.16,0-.23.17a2.88,2.88,0,0,0,0,.65,4.84,4.84,0,0,1-.69,2.49,1,1,0,0,1-.31.33,9.56,9.56,0,0,1-4.75,1.46c-.43,0-.49-.17-.35-.53s.22-.65.32-1-.14-.33-.2-.35c-.21.43-.44,1.11-.61,1.56a.51.51,0,0,1-.5.39,3.66,3.66,0,0,0-1,.22,1.8,1.8,0,0,1-1.35,0,2.92,2.92,0,0,1-1.8-3.08.28.28,0,0,0,0-.23,1.79,1.79,0,0,0-.36,1.55,4,4,0,0,0,1.19,2.25c.13.11.29.4.23.47a.75.75,0,0,1-.54.29,4.31,4.31,0,0,1-2.36-.72,9.22,9.22,0,0,0-1.86-1.2,4.3,4.3,0,0,1-2.68-4c-.06-.54.07-.67.63-.61a2.21,2.21,0,0,0,1.43-.46,16.61,16.61,0,0,0,3.59-3.56.73.73,0,0,0,.17-.45c-1.3.95-2.27,2.27-3.73,3-.19.08-.5.19-.7.25a.65.65,0,0,1-.93-.7c0-.13,0-.33-.12-.37-.47-.2-.45-.58-.43-1,0-.67.07-1.34.09-2a.6.6,0,0,0-.14-.43,1.75,1.75,0,0,0-.31.42c-.37.9-.74,1.8-1.05,2.72-.14.42-.33.4-.64.22a1.61,1.61,0,0,1-.74-1.4c0-.6.07-1.2.1-1.81a.85.85,0,0,0-.24-.76,1.8,1.8,0,0,1-.1.33,3.89,3.89,0,0,0,.54,4.64,6.48,6.48,0,0,1,1.07,1.84c.37.84.65,1.73,1,2.59.12.31.08.52-.32.44-1.77-.34-3.38-1.13-3.91-3.12a4.48,4.48,0,0,1,0-1,2.12,2.12,0,0,0-.07-.61,2.71,2.71,0,0,0-.3,2.5,2,2,0,0,0,.28.52c.83,1,1.65,2,2.49,3.05a1.26,1.26,0,0,0,.53.39,2.57,2.57,0,0,1,1.39,1.2,10.11,10.11,0,0,0,1.59,1.68,5.13,5.13,0,0,0,1.27.6,3.86,3.86,0,0,0,.53.14c-.44.26-.52.54-.33.91.05.09,0,.31,0,.35-.62.38-.86,1.13-1.71,1.33s-.82,1-.3,1.71a2.31,2.31,0,0,0,1.64.8,3.2,3.2,0,0,1,1.3.81c.14.12.11.46.08.69a1.71,1.71,0,0,1-.2.7.71.71,0,0,1-.46.36c-1.36.07-2.74.16-4.11.13a5.83,5.83,0,0,0-4,1.23c-.85.7-1.69,1-2.1,2.17a8.61,8.61,0,0,0-.49,3.36,37,37,0,0,1,.93,3.77h0c.1.43.19.87.3,1.3a8,8,0,0,1-1.51,6.53C384.46,60.59,386.88,69.44,386.88,69.44ZM393.78,29c-.82.36-2.33,0-2.51-.75Zm3.44,2-2.71-.81C395.34,29.71,397,30.2,397.22,31Z"/></g></g></g></svg>