<svg xmlns="http://www.w3.org/2000/svg" xmlns:xlink="http://www.w3.org/1999/xlink" viewBox="0 0 500.36 247.7"><defs><style>.cls-1,.cls-29{fill:none;}.cls-2{isolation:isolate;}.cls-3{fill:#f4ae62;}.cls-4{fill:#f76363;}.cls-23,.cls-5{font-size:9px;}.cls-10,.cls-23,.cls-30,.cls-5{fill:#fff;}.cls-5{font-family:Raleway-Bold, Raleway;font-weight:700;}.cls-6{letter-spacing:-0.07em;}.cls-7{letter-spacing:-0.03em;}.cls-8{letter-spacing:0em;}.cls-9{letter-spacing:-0.06em;}.cls-10,.cls-24{font-size:4px;font-family:SourceHanSansTW-Light-B5pc-H, Source Han Sans TW;}.cls-11{letter-spacing:-0.02em;}.cls-12{letter-spacing:-0.25em;}.cls-13{letter-spacing:-0.01em;}.cls-14{letter-spacing:-0.02em;}.cls-15{letter-spacing:0em;}.cls-16{letter-spacing:-0.02em;}.cls-17{letter-spacing:0em;}.cls-18{letter-spacing:-0.01em;}.cls-19{letter-spacing:-0.02em;}.cls-20{letter-spacing:-0.02em;}.cls-21{letter-spacing:0.01em;}.cls-22{letter-spacing:-0.07em;}.cls-23{font-family:SourceHanSansTW-Bold-B5pc-H, Source Han Sans TW;}.cls-24,.cls-25,.cls-26{fill:#373b63;}.cls-26,.cls-33,.cls-62,.cls-65{mix-blend-mode:multiply;}.cls-27{opacity:0.38;}.cls-28{fill:#2c1e2d;}.cls-29{stroke:#373e5e;stroke-linecap:round;stroke-linejoin:round;stroke-width:0.5px;stroke-dasharray:1 2;}.cls-31{fill:#f67280;}.cls-32{clip-path:url(#clip-path);}.cls-33{fill:#dbd2cc;}.cls-34,.cls-50{fill:#6c567b;}.cls-35{fill:#4d3b5b;}.cls-36{fill:#b74646;}.cls-37{fill:#1f232a;}.cls-38{fill:#c8b8a1;}.cls-39{fill:#aea18f;}.cls-40{fill:#92816c;}.cls-41{fill:#e6adad;}.cls-42{fill:#d09999;}.cls-43{fill:#944646;}.cls-44{fill:#182135;}.cls-45{fill:#e5bb6c;}.cls-46{fill:#deb299;}.cls-47{fill:#b28a76;}.cls-48{fill:#f8b195;}.cls-49{fill:#c06c84;}.cls-50{opacity:0.42;}.cls-51{fill:#a03333;}.cls-52{fill:#e6e6e7;}.cls-53{fill:#3b3b3b;}.cls-54{clip-path:url(#clip-path-2);}.cls-55{fill:#646272;}.cls-56{fill:#98b168;}.cls-57{fill:#a3bce2;}.cls-58{clip-path:url(#clip-path-3);}.cls-59{fill:#ff6a3c;}.cls-60{fill:#2d2433;}.cls-61{fill:#a89b4f;}.cls-62,.cls-64{opacity:0.4;}.cls-63{fill:#b26f69;}.cls-64,.cls-65{fill:#a34b5f;}.cls-65{opacity:0.15;}.cls-66{fill:#e6e6e6;}</style><clipPath id="clip-path"><rect class="cls-1" x="125.81" y="105.54" width="71.93" height="51.71"/></clipPath><clipPath id="clip-path-2"><rect class="cls-1" x="209" y="106.57" width="70.5" height="50.69"/></clipPath><clipPath id="clip-path-3"><rect class="cls-1" x="281.02" y="102.37" width="76.83" height="54.96"/></clipPath></defs><title>資產 14</title><g class="cls-2"><g id="圖層_2" data-name="圖層 2"><g id="BACKGROUND"><rect class="cls-3" x="0.36" y="0.91" width="500" height="165.92"/><path class="cls-4" d="M500.36,0V26.66C478.64,25.4,459.1,24,439.77,23c-59.24-3-121.23-4.23-176.1,7.22-27.34,5.7-51.72,14.34-78.15,21A536.54,536.54,0,0,1,87.63,66c-25.7,1.56-53,1.21-77.35-3.63-3-.6-6.73-1.28-10.28-2.15V0Z"/></g><g id="OBJECTS"><text class="cls-5" transform="translate(324.92 60.74)">WH<tspan class="cls-6" x="16.18" y="0">A</tspan><tspan class="cls-7" x="21.6" y="0">T</tspan><tspan class="cls-8" x="26.92" y="0" xml:space="preserve"> IS 2019 nC</tspan><tspan class="cls-9" x="73.45" y="0">o</tspan><tspan class="cls-8" x="78.33" y="0">V?</tspan></text><text class="cls-10" transform="translate(324.92 71.49)">冠狀病毒(C<tspan class="cls-11" x="19.77" y="0">o</tspan><tspan x="22.06" y="0">V)為一群有外套膜之RNA病</tspan><tspan class="cls-12" x="69.13" y="0">毒，</tspan><tspan x="75.13" y="0">外表為圓</tspan><tspan class="cls-12" x="91.13" y="0">形，</tspan><tspan x="97.13" y="0">在電子顯微鏡下可看到</tspan><tspan x="0" y="4.8">類似皇冠的突起因此得</tspan><tspan class="cls-12" x="40" y="4.8">名。</tspan><tspan x="46" y="4.8">可再細分為四個屬: alpha, b</tspan><tspan class="cls-13" x="94.41" y="4.8">e</tspan><tspan class="cls-14" x="96.52" y="4.8">t</tspan><tspan class="cls-15" x="97.83" y="4.8">a, </tspan><tspan class="cls-16" x="101.9" y="4.8">g</tspan><tspan class="cls-17" x="104.01" y="4.8">amma, and del</tspan><tspan class="cls-14" x="131.01" y="4.8">t</tspan><tspan class="cls-12" x="132.33" y="4.8">a。</tspan><tspan x="0" y="9.6">已知會感染人類的冠狀病毒包括alpha C</tspan><tspan class="cls-11" x="69.62" y="9.6">o</tspan><tspan x="71.91" y="9.6">V的HC</tspan><tspan class="cls-11" x="83.46" y="9.6">oV</tspan><tspan x="87.88" y="9.6">-229E , HC</tspan><tspan class="cls-11" x="106.04" y="9.6">oV</tspan><tspan x="110.46" y="9.6">-NL63以及b</tspan><tspan class="cls-13" x="131.4" y="9.6">e</tspan><tspan class="cls-14" x="133.51" y="9.6">t</tspan><tspan x="134.82" y="9.6">a </tspan><tspan x="0" y="14.4">C</tspan><tspan class="cls-11" x="2.51" y="14.4">o</tspan><tspan x="4.8" y="14.4">V的HC</tspan><tspan class="cls-11" x="16.35" y="14.4">oV</tspan><tspan x="20.77" y="14.4">-H</tspan><tspan class="cls-18" x="24.94" y="14.4">K</tspan><tspan x="27.38" y="14.4">U1, HC</tspan><tspan class="cls-19" x="39.58" y="14.4">oV</tspan><tspan x="43.99" y="14.4">-OC43, ME</tspan><tspan class="cls-20" x="62.34" y="14.4">R</tspan><tspan class="cls-21" x="64.72" y="14.4">S</tspan><tspan x="67.09" y="14.4">-C</tspan><tspan class="cls-19" x="70.93" y="14.4">o</tspan><tspan class="cls-22" x="73.22" y="14.4">V</tspan><tspan x="75.16" y="14.4">, SA</tspan><tspan class="cls-20" x="81.71" y="14.4">R</tspan><tspan class="cls-21" x="84.08" y="14.4">S</tspan><tspan x="86.45" y="14.4">-C</tspan><tspan class="cls-19" x="90.29" y="14.4">o</tspan><tspan class="cls-22" x="92.59" y="14.4">V</tspan><tspan x="94.52" y="14.4">, 和最新發現的</tspan><tspan x="0" y="19.2">2019-nC</tspan><tspan class="cls-11" x="14.77" y="19.2">o</tspan><tspan class="cls-12" x="17.07" y="19.2">V。</tspan><tspan x="21.27" y="19.2">冠狀病毒是造成人類與動物疾病的重要病原</tspan><tspan class="cls-12" x="97.27" y="19.2">體。</tspan></text><text class="cls-23" transform="translate(81.69 90.17)">傳播途徑?</text><text class="cls-24" transform="translate(81.69 97.4)">大部分的人類冠狀病毒以直接接觸帶有病毒的分泌物或飛沫傳染為<tspan class="cls-12" x="116" y="0">主。</tspan><tspan x="122" y="0">有部分動物的冠狀病毒會讓動物出現腹瀉症</tspan><tspan class="cls-12" x="198" y="0">狀，</tspan><tspan x="204" y="0">可</tspan><tspan x="0" y="4.8">以在糞便當中找到病</tspan><tspan class="cls-12" x="36" y="4.8">毒，</tspan><tspan x="42" y="4.8">可能藉此造成病毒傳</tspan><tspan class="cls-12" x="78" y="4.8">播。</tspan></text><path class="cls-25" d="M149,53.11a18.38,18.38,0,0,1-1.12,3.28l3.19,3.55-4.35-1.35h0a21.51,21.51,0,0,1-1.62,2.29c1.29,1.68,6.1,7.92,6.15,8s-5.91-4.21-8.2-5.87a21.81,21.81,0,0,1-3,2.27l.14,5.54-2.79-4.08a23.17,23.17,0,0,1-4.22,1.48l-.35,3.26-.37,3.55L131,70.79l-.74-2a23.73,23.73,0,0,1-2.54.14h-1L122.1,76l1.34-7.43a24.13,24.13,0,0,1-3.44-.91L112.79,76l3.52-10a21.23,21.23,0,0,1-2.46-1.61l-4.7,2.09,3-3.49a20.51,20.51,0,0,1-2.35-2.59l-11.7,3.83,9.64-7.13a18.79,18.79,0,0,1-1.2-3.07l-7.06-1,6.5-1.42A17.62,17.62,0,0,1,105.8,49c-1.15-.88-5-3.56-5-3.56l5.32-.34a18.28,18.28,0,0,1,.76-2.84L98.14,35l10.35,3.76a20.24,20.24,0,0,1,3.16-4.06l-2.56-6.2,6,3.43a22,22,0,0,1,2.73-1.54L116.9,23v-.1L117,23l4.66,6a24.14,24.14,0,0,1,3.66-.67l1.13-4.94,1.69,4.82a23.8,23.8,0,0,1,3.29.28l4.2-6.86-1.05,7.59c.28.09.56.17.84.27,2.23-1.82,7.43-5.84,7.43-5.84l-3.58,7.6.62.37a23,23,0,0,1,3,2.24l3.57-1.58-2.07,3.06a20.21,20.21,0,0,1,2,2.58L157,36.3l-8.91,4.76a19.94,19.94,0,0,1,.83,2.32h6.7l-6.22,2.23a18.19,18.19,0,0,1,.24,3c0,.24,0,.48,0,.71l6.75,2.89Z"/><path class="cls-25" d="M131,70.79c.66.27,1.31.51,1.94.73l-.37,3.55Z"/><ellipse class="cls-26" cx="122.45" cy="52.73" rx="2.27" ry="2.11"/><path class="cls-26" d="M142,49.61a2.28,2.28,0,1,1-2.27-2.12A2.19,2.19,0,0,1,142,49.61Z"/><path class="cls-26" d="M131.85,50.2a4.41,4.41,0,0,0-2.39,1.46c-.46.54-1.21,1.76-.42,2.32a1.9,1.9,0,0,0,1.75,0c.78-.32,1.35-1,2.22-1.16.72-.12,1.45.3,2.18.18a1.14,1.14,0,0,0,.5-2.13A5.12,5.12,0,0,0,131.85,50.2Z"/><path class="cls-26" d="M135.71,48.86s2.81.68,3.47-2.58"/><path class="cls-26" d="M125.66,51.14s-2.33,1.62-4.27-1.17"/><g class="cls-27"><path class="cls-26" d="M142.8,23.67s-5.2,4-7.43,5.84c-.28-.1-.56-.18-.84-.27l1.05-7.59-4.2,6.86a23.8,23.8,0,0,0-3.29-.28l-1.69-4.82-1.13,4.94a24.14,24.14,0,0,0-3.66.67L117,23h0l.9,7.38A22,22,0,0,0,115.07,32l-6-3.43,2.56,6.2a20.24,20.24,0,0,0-3.16,4.06L98.14,35l8.72,7.26a18.28,18.28,0,0,0-.76,2.84l-5.32.34s3.87,2.68,5,3.56a17.62,17.62,0,0,0,.22,2.53L99.52,53l7.06,1a18.79,18.79,0,0,0,1.2,3.07l-9.64,7.13,11.7-3.83A20.51,20.51,0,0,0,112.19,63l-3,3.49,4.7-2.09A21.23,21.23,0,0,0,116.31,66l-3.52,10L120,67.63a24.13,24.13,0,0,0,3.44.91L122.1,76l4.59-7.07h.11c-7.2-3.74-13.88-10-12.27-20.19a.76.76,0,0,0,.19.12c.5.18,1.21-.4,1.58-1.29s.27-1.75-.23-1.94a1,1,0,0,0-.9.3,17.79,17.79,0,0,1,9.28-11.32.67.67,0,0,0-.06.5c.18.69,1.48,1,2.89.66s2.42-1.15,2.24-1.84c-.12-.45-.73-.73-1.53-.78.76-.24,1.52-.45,2.28-.62a4,4,0,0,0,1.47.26c1.11,0,2-.38,2.25-.89a41.34,41.34,0,0,1,5.85-.24l-.62-.37Z"/><path class="cls-26" d="M122.13,37c-.67.28-1.08.76-.93,1.09s.82.36,1.49.09,1.08-.76.93-1.08S122.8,36.72,122.13,37Z"/><path class="cls-26" d="M132.36,33.43c-.34,0-.62.14-.62.3s.28.3.62.3.61-.13.61-.3S132.7,33.43,132.36,33.43Z"/><path class="cls-26" d="M125.8,36.49c-.32.09-.54.29-.49.45s.36.21.68.12.55-.29.49-.45S126.13,36.4,125.8,36.49Z"/><path class="cls-26" d="M117.36,44.69c-.21.24-.27.53-.13.63s.42,0,.64-.26.27-.53.13-.63S117.57,44.44,117.36,44.69Z"/><path class="cls-26" d="M116,49.34c-.14.46,0,.88.22.95s.58-.26.71-.71,0-.88-.22-.95S116.09,48.88,116,49.34Z"/></g><path class="cls-25" d="M210.16,66.74a14.76,14.76,0,0,0,.9,2.65l-2.58,2.87L212,71.17h0A16.76,16.76,0,0,0,213.32,73c-1,1.36-4.93,6.4-5,6.49s4.78-3.4,6.64-4.74a17.89,17.89,0,0,0,2.38,1.83l-.12,4.48,2.26-3.3A18.58,18.58,0,0,0,222.91,79l.28,2.64.3,2.87L224.76,81l.6-1.62a19.81,19.81,0,0,0,2,.11h.81l3.71,5.72-1.08-6a19.08,19.08,0,0,0,2.77-.73l5.84,6.74-2.85-8.09a16.55,16.55,0,0,0,2-1.31l3.81,1.69-2.46-2.81a17.16,17.16,0,0,0,1.9-2.1l9.45,3.09-7.79-5.76a15.23,15.23,0,0,0,1-2.48l5.7-.82-5.25-1.15a17.18,17.18,0,0,0,.18-2c.92-.71,4-2.88,4-2.88l-4.3-.28a16.08,16.08,0,0,0-.61-2.29l7-5.87-8.36,3a16.12,16.12,0,0,0-2.56-3.28l2.07-5-4.83,2.77a17.65,17.65,0,0,0-2.21-1.24l.73-6v-.08l0,.07-3.76,4.86a18,18,0,0,0-3-.55l-.92-4-1.36,3.9a19.48,19.48,0,0,0-2.66.22L221,41.32l.84,6.13-.67.22c-1.81-1.47-6-4.72-6-4.72l2.89,6.14c-.16.09-.33.19-.49.3a17.43,17.43,0,0,0-2.43,1.81l-2.89-1.28L214,52.39a15.54,15.54,0,0,0-1.64,2.09l-8.56-1.33L211,57a15,15,0,0,0-.67,1.88h-5.42l5,1.8a14.54,14.54,0,0,0-.19,2.39c0,.2,0,.39,0,.58L204.27,66Z"/><path class="cls-25" d="M224.76,81c-.53.22-1.06.41-1.57.59l.3,2.87Z"/><ellipse class="cls-26" cx="231.65" cy="66.43" rx="1.84" ry="1.71"/><path class="cls-26" d="M215.84,63.91a1.84,1.84,0,1,0,1.84-1.71A1.78,1.78,0,0,0,215.84,63.91Z"/><path class="cls-26" d="M224.05,64.39A3.62,3.62,0,0,1,226,65.57c.36.43,1,1.42.33,1.87a1.55,1.55,0,0,1-1.42,0c-.62-.26-1.08-.82-1.78-.94s-1.18.24-1.77.14A.91.91,0,0,1,221,65,4.11,4.11,0,0,1,224.05,64.39Z"/><path class="cls-26" d="M220.93,63.31a2.31,2.31,0,0,1-2.8-2.09"/><path class="cls-26" d="M229.05,65.15s1.88,1.31,3.45-.94"/><g class="cls-27"><path class="cls-26" d="M215.2,43s4.2,3.25,6,4.72l.67-.22L221,41.32l3.39,5.54a19.48,19.48,0,0,1,2.66-.22l1.36-3.9.92,4a18,18,0,0,1,3,.55l3.76-4.86h0l-.73,6a17.65,17.65,0,0,1,2.21,1.24l4.83-2.77-2.07,5a16.12,16.12,0,0,1,2.56,3.28l8.36-3-7,5.87a16.08,16.08,0,0,1,.61,2.29l4.3.28s-3.13,2.17-4,2.88a17.18,17.18,0,0,1-.18,2l5.25,1.15-5.7.82a15.23,15.23,0,0,1-1,2.48l7.79,5.76-9.45-3.09a17.16,17.16,0,0,1-1.9,2.1l2.46,2.81-3.81-1.69a16.55,16.55,0,0,1-2,1.31l2.85,8.09-5.84-6.74a19.08,19.08,0,0,1-2.77.73l1.08,6-3.71-5.72h-.09c5.82-3,11.22-8.08,9.91-16.32a.45.45,0,0,1-.14.1c-.41.14-1-.32-1.28-1s-.22-1.42.18-1.57a.77.77,0,0,1,.73.24,14.38,14.38,0,0,0-7.5-9.15.54.54,0,0,1,.05.41c-.15.55-1.19.79-2.34.53s-2-.93-1.8-1.49c.09-.36.58-.59,1.23-.63-.61-.19-1.23-.36-1.85-.5a3.19,3.19,0,0,1-1.18.21c-.9,0-1.65-.31-1.82-.72a33.89,33.89,0,0,0-4.72-.19c.16-.11.33-.21.49-.3Z"/><path class="cls-26" d="M231.9,53.71c.54.23.88.62.76.88s-.67.3-1.21.08-.87-.62-.75-.88S231.36,53.49,231.9,53.71Z"/><path class="cls-26" d="M223.64,50.84c.28,0,.5.11.5.24s-.22.24-.5.24-.5-.11-.5-.24S223.37,50.84,223.64,50.84Z"/><path class="cls-26" d="M228.94,53.31c.26.07.44.24.4.36s-.29.18-.55.1-.45-.24-.4-.37S228.68,53.23,228.94,53.31Z"/><path class="cls-26" d="M235.76,59.93c.17.2.22.43.11.52s-.35,0-.52-.21-.22-.43-.1-.52S235.59,59.73,235.76,59.93Z"/><path class="cls-26" d="M236.9,63.69c.11.37,0,.72-.18.77s-.47-.2-.58-.57,0-.72.18-.77S236.79,63.32,236.9,63.69Z"/></g><path class="cls-28" d="M100.29,10.64s-.15,2.68,1.75,2.47a1.79,1.79,0,0,0,0,2.75c-.32-.13-1.51.67-2.17,1.91a2.54,2.54,0,0,0-.1,2.27s-1-.57-1.43-.19A1.43,1.43,0,0,0,98,21s-.66-.78-.86-.58,0,1.08,0,1.08S96.53,20.68,96,21s-.5,1.34-.5,1.34a2.83,2.83,0,0,0-2.14-1.12,6.64,6.64,0,0,0-3,1.24s0-1.14-.79-1.49a3.14,3.14,0,0,0-1.75-.12s-.1-2.32-2.28-2.31c.46-.82,4.67-.54,5.9.21s3.11.91,3.84.43a3.08,3.08,0,0,1-.89-1.43l.82.45.48-.18,0-1.1s.71,1.26.95,1.27a2.14,2.14,0,0,0,1.16-1.79C98,15.55,98.58,12.2,100.29,10.64Z"/><path class="cls-28" d="M72.35,49.78s1.44.4,1.6,1.26-.75,1.57-.75,1.57.5-.18,1.09.57-.12,1.74-.12,1.74a3.14,3.14,0,0,1,2.35.74,3.87,3.87,0,0,1,1,2.87,1.2,1.2,0,0,1,1.11.35c.57.52.3,1.81.3,1.81s.93-1.38,1.45-1.33.94.72.94.72A5.24,5.24,0,0,1,83.4,58.3c1.09-.34,3.07.49,3.07.49a1.26,1.26,0,0,1,.32-1.46c.72-.57,2.3,0,2.3,0s-.31-1.17.23-1.61,1.8-.14,1.8-.14S89.21,53.78,87.2,54s-4.51,2.47-5.4,2.49a12,12,0,0,0,.44-1.23l-1.82,1.12-.6-1.93-.4,1.07s-.57-.21-.73-1.52A5,5,0,0,0,76,50.06,5.9,5.9,0,0,0,72.35,49.78Z"/><ellipse class="cls-28" cx="104.41" cy="15.35" rx="0.69" ry="0.64"/><path class="cls-28" d="M169.27,16.63a.66.66,0,0,1-.69.63.64.64,0,1,1,0-1.27A.66.66,0,0,1,169.27,16.63Z"/><path class="cls-29" d="M105.8,14.74c9.15-3.33,19-5.35,28.47-4.1,4,.54,8.12,3.06,10.88,5.86A2.27,2.27,0,0,1,146,18a1,1,0,0,1-1.17,1c-.71-.21-.71-1.16-.37-1.76.77-1.41,2.43-2.19,4-2.72a26.18,26.18,0,0,1,19.14,1.21"/><ellipse class="cls-28" cx="169.85" cy="44.72" rx="0.69" ry="0.64" transform="translate(35.96 158.38) rotate(-55.08)"/><ellipse class="cls-28" cx="199.95" cy="74.95" rx="0.69" ry="0.64" transform="translate(24.03 196) rotate(-55.08)"/><path class="cls-29" d="M169.48,46A29.87,29.87,0,0,0,178.17,67a28.54,28.54,0,0,0,21,8"/><path class="cls-28" d="M174.66,43.14s.16,0,.26.55h1.16a4.21,4.21,0,0,0-.81-.8s-.9-4.07.18-5.56a3,3,0,0,0,.33-.58.36.36,0,0,0,0,.1c-.26.81.15,2.94.51,4.5l0,.16h0c.22.94.42,1.64.42,1.64s.17,0,.27.55h1.16a4.1,4.1,0,0,0-.82-.8,16.86,16.86,0,0,1-.35-3.15c0-.15.09-.32.11-.43.18-.91,1.19-1.75,1.85-2.41.27-.28.48-.62.72-.92a1,1,0,0,1,.2-.15.76.76,0,0,1,.13.2,9.91,9.91,0,0,1,.48,2.86,6.06,6.06,0,0,0,.17,1.61h0c0,.15.05.33.08.52h0c.1.86.15,2,.15,2a2,2,0,0,1,.23.7h.77a1.36,1.36,0,0,0-.39-.76c0-.26-.1-1.37-.13-1.9s-.13-1.34.22-2c.24-.41.05-.82,0-1.23a4.65,4.65,0,0,1-.11-1c0-.68.08-1.35.16-2a.85.85,0,0,1,1-.61A1.26,1.26,0,0,1,184,35.31c0,.22.05.44.05.66,0,1,0,2.05,0,3.07,0,.44.2.86.26,1.3l0,.16h0a21,21,0,0,1,.28,2.49,1.89,1.89,0,0,1,.26.7h.87c0-.37-.45-.76-.45-.76-.05-.26-.12-1.41-.14-1.92,0-.17,0-.33,0-.5a2.76,2.76,0,0,1,.06-.4c0-.27.09-.53.11-.79,0-.79,0-1.58.12-2.36a12.24,12.24,0,0,1,.48-1.64,3.13,3.13,0,0,0,.2-1,1.86,1.86,0,0,1,.64-1.55,2.62,2.62,0,0,0,.74-1.56,9.44,9.44,0,0,0,.15-1.29c0-.8,0-1.6.07-2.4,0-.57.1-1.13.14-1.7a1.34,1.34,0,0,0,0-.4q-.27-1.18-.57-2.37c-.1-.41-.23-.81-.36-1.22s-.29-.92-.42-1.39a.33.33,0,0,1,0-.24,1.79,1.79,0,0,0,.15-1.56c-.12-.52-.06-.62.5-.68a8.67,8.67,0,0,0,5-2.24c.46-.4,1-.77,1.43-1.16a4.93,4.93,0,0,0,.42-.49,1.73,1.73,0,0,1,.28-.26,3.22,3.22,0,0,0,1.36-1.67,2.87,2.87,0,0,0,.07-1.1c-.51.55-.43,1.59-1.36,2,.07-.29.09-.89.13-1.19a14,14,0,0,0,.12-1.44,2.18,2.18,0,0,0-.14-.6.3.3,0,0,0-.18.24c0,.32,0,.55,0,.88,0,.65-.49.92-1,1.12a.36.36,0,0,1-.29-.15c-.16-.31-.27-.62-.41-.94l-.4-.88-.13,0,.12.64c.1.69.24,1.38.3,2.07a3.15,3.15,0,0,1-1.19,2.56h-.11L191,14a.16.16,0,0,0-.16.11,3,3,0,0,0,0,.42,2.94,2.94,0,0,1-.45,1.6.51.51,0,0,1-.2.21,6.51,6.51,0,0,1-3.14.94c-.29,0-.33-.11-.23-.34s.14-.42.21-.63-.09-.21-.14-.23c-.14.28-.29.72-.4,1a.34.34,0,0,1-.33.25,2.44,2.44,0,0,0-.65.14,1.19,1.19,0,0,1-.89,0,1.87,1.87,0,0,1-1.19-2,.13.13,0,0,0,0-.14,1.12,1.12,0,0,0-.23,1,2.51,2.51,0,0,0,.78,1.45c.09.07.19.26.16.3a.5.5,0,0,1-.36.19,3,3,0,0,1-1.56-.46,5.28,5.28,0,0,0-1.23-.77,2.77,2.77,0,0,1-1.77-2.54c0-.35.05-.43.41-.4a1.39,1.39,0,0,0,1-.3,11,11,0,0,0,2.38-2.28.46.46,0,0,0,.1-.29,19.26,19.26,0,0,1-2.46,1.94l-.46.16c-.38.12-.65-.09-.62-.45a.3.3,0,0,0-.07-.24c-.31-.12-.3-.37-.29-.61l.06-1.3a.37.37,0,0,0-.1-.28,1.71,1.71,0,0,0-.2.27c-.24.58-.49,1.16-.69,1.75-.1.27-.22.26-.42.14a1,1,0,0,1-.5-.9c0-.38.05-.77.07-1.16a.52.52,0,0,0-.15-.49c0,.07,0,.14-.07.21a2.44,2.44,0,0,0,.36,3,4.38,4.38,0,0,1,.7,1.18c.25.55.43,1.12.64,1.67.08.2,0,.33-.21.28a2.89,2.89,0,0,1-2.58-2,2.21,2.21,0,0,1,0-.63,1,1,0,0,0,0-.39,1.71,1.71,0,0,0-.19,1.61,1.52,1.52,0,0,0,.18.33c.55.66,1.09,1.32,1.65,2a.69.69,0,0,0,.34.25,1.75,1.75,0,0,1,.93.78,6.69,6.69,0,0,0,1,1.08,3.4,3.4,0,0,0,.84.38,2.13,2.13,0,0,0,.35.09c-.3.17-.35.35-.22.59,0,.06,0,.2,0,.22-.41.25-.57.73-1.13.86s-.54.66-.2,1.1a1.52,1.52,0,0,0,1.09.51,2.21,2.21,0,0,1,.86.52c.09.08.06.3.05.45a1.06,1.06,0,0,1-.13.45.46.46,0,0,1-.31.22c-.9.05-1.81.11-2.71.09a3.88,3.88,0,0,0-2.65.79c-.57.45-1.12.64-1.39,1.4a5.31,5.31,0,0,0-.32,2.16,23.16,23.16,0,0,1,.61,2.42h0c.06.28.13.56.2.84a5.05,5.05,0,0,1-1,4.2C173.06,37.46,174.66,43.14,174.66,43.14Zm4.55-26c-.54.24-1.54,0-1.66-.48Zm2.28,1.27-1.79-.52A1.54,1.54,0,0,1,181.49,18.4Z"/><path class="cls-30" d="M201,130.42v-17.1c0-2.84-4.36-2.85-4.36,0v17.1a4.81,4.81,0,0,0,2.18,9.06,4.81,4.81,0,0,0,2.18-9.06Z"/><path class="cls-31" d="M199.81,132V114h-2v18a2.94,2.94,0,1,0,2,0Z"/><path class="cls-25" d="M198.56,116c-.18-.33-.57-.34-.9-.34a1.11,1.11,0,0,0-.88.27.18.18,0,0,0,0,.26,1.43,1.43,0,0,0,.83.28c.32,0,.63.14.9-.1A.32.32,0,0,0,198.56,116Z"/><path class="cls-25" d="M198,118.67a.93.93,0,0,0-1-.1.26.26,0,0,0,0,.42.94.94,0,0,0,.89.26C198.07,119.16,198.22,118.85,198,118.67Z"/><path class="cls-25" d="M197.92,121.49a2.56,2.56,0,0,0-.73,0,.41.41,0,0,0-.37.29s0,.05,0,.08v0a.36.36,0,0,0,.19.33,2.24,2.24,0,0,0,.68.21.47.47,0,0,0,.55-.32A.47.47,0,0,0,197.92,121.49Z"/><path class="cls-25" d="M198,124.49a4.15,4.15,0,0,0-.61,0c-.34,0-.56.52-.19.71a2.23,2.23,0,0,0,.8.23C198.6,125.52,198.64,124.49,198,124.49Z"/><g class="cls-32"><path class="cls-33" d="M148.07,238.7c0,.51-2.45.93-5.47.93s-5.46-.42-5.46-.93,2.45-.94,5.46-.94S148.07,238.18,148.07,238.7Z"/><path class="cls-25" d="M159.27,111.1a13.09,13.09,0,0,0-8.74,5.28,6.39,6.39,0,0,0-1.08,5.31,16.43,16.43,0,0,1,.74,2.45c.24,2.11-1.54,3.8-2.68,5.58a10.59,10.59,0,0,0-.26,10.75c.84,1.46,2.1,2.93,1.84,4.61-.24,1.52-1.64,2.53-2.42,3.86a5.16,5.16,0,0,0,0,5.13,13.92,13.92,0,0,1,1.63,2.57,20.89,20.89,0,0,1,.28,3,.66.66,0,0,0,.22.47.57.57,0,0,0,.59,0c1-.54,1-2.32,2.08-2.78.58-.24,1.26,0,1.87-.16,1-.26,1.37-1.4,1.71-2.36a9.61,9.61,0,0,1,2.29-3.74,5.15,5.15,0,0,1,4-1.49,2.66,2.66,0,0,0,1,0,2.72,2.72,0,0,0,.84-.59,4.18,4.18,0,0,1,5.75.57,3.55,3.55,0,0,0,1,1.09c.62.32,1.36.07,2.06.06,2.07,0,3.58,2.17,3.74,4.27a5.77,5.77,0,0,0,.19,1.5,1.24,1.24,0,0,0,1.08.91c.65,0,1-.69,1.39-1.24a7.77,7.77,0,0,1,3.26-2.91,3.82,3.82,0,0,0,1.22,1.18c1.22-.9.76-2.84,0-4.16s-1.72-2.85-1.12-4.25c1.11-.26,2.13.7,2.73,1.67s1.08,2.13,2.07,2.68c.9-3.83-3.84-7.15-3.3-11.05.24-1.74,1.51-3.2,1.7-4.94.22-2.07-1.13-4-2.59-5.42s-3.16-2.78-4-4.68a22.64,22.64,0,0,1-.84-2.84,28.45,28.45,0,0,0-1.35-3.57,12.94,12.94,0,0,0-1.68-3.08c-2-2.46-5.47-3-8.6-3.39A29,29,0,0,0,159.27,111.1Z"/><path class="cls-34" d="M161.49,151a5.63,5.63,0,0,0-7.7-2.29l-5,2.78,1.16-6.69s-3.42-2.18-11.18-2l-3.2,18.49a5.8,5.8,0,0,0,2.28,5.68,5.65,5.65,0,0,0,3.31,1.07,5.59,5.59,0,0,0,2.73-.71l15.34-8.53A5.79,5.79,0,0,0,161.49,151Z"/><path class="cls-35" d="M161.49,151a5.63,5.63,0,0,0-7.7-2.29l-3.19,1.78a50.72,50.72,0,0,1-1.56,14l10.2-5.67A5.79,5.79,0,0,0,161.49,151Z"/><path class="cls-34" d="M152.08,157.51c-.23,4.08.47,8.17.94,12.24,1,9,1.6,18.25-.55,27.08-.73,3-1.42,5.67,1.07,8,5,4.63,15.65,4.79,21.83,4.39,3.95-.25,17-1.72,18.21-7.47.38-1.86-2-5.78-2.5-7.68-1.12-4.09-1.15-8.9-1.54-13.16-.52-5.53-1-11.51-.19-17a22.59,22.59,0,0,0-2.52-14.75,12.76,12.76,0,0,0-5.71-5.64,22.38,22.38,0,0,0-10.72-1.26c-4.14.37-9.56,1.11-13.09,3.48-3.33,2.24-4.82,7.13-5.16,10.94C152.12,156.93,152.1,157.22,152.08,157.51Z"/><path class="cls-36" d="M189.54,180.91c0-.15,0-.3,0-.44l-9,2.21,3.29,16.14s4.65,6.41,9.06-.41c-.64-1.6-1.49-3.28-1.78-4.34C190,190,189.93,185.17,189.54,180.91Z"/><path class="cls-36" d="M177.89,164.4a5,5,0,0,1-4,1.29,42.81,42.81,0,0,0-4.36-.4c-2.52.11-4.87,1.5-7.39,1.59-1.66.06-3.3-.45-5-.55s-3.54.34-4.43,1.77a55.33,55.33,0,0,0,12.1,3.84,28.69,28.69,0,0,0,3.31.48c4.91.39,9.91-1,14.74,0,.72.15,1.56.32,2.11-.18a2.13,2.13,0,0,0,.5-1.54,15.2,15.2,0,0,0-3.82-10.47c-1-1.07-2.85-2.37-2.82-.24C178.85,161.53,179,163.14,177.89,164.4Z"/><path class="cls-37" d="M151.22,221.92c12.54,2.68,17-.9,17-.9l-.6-11.66a8.77,8.77,0,0,0,.1-2l-1.87-32.15a8.51,8.51,0,1,0-17,1Z"/><path class="cls-38" d="M161.06,218c.89,0,1.64-.41,2.5,0a1.22,1.22,0,0,1,.74,1,2.66,2.66,0,0,0,0,.63.82.82,0,0,0,.63.49,2.76,2.76,0,0,1,.81.21,1.69,1.69,0,0,1,.53.5.31.31,0,0,1,.11.21.29.29,0,0,1-.09.21c-.23.34-.66.94-1.1.92a2.09,2.09,0,0,1,.69.53.78.78,0,0,1,.13.85c-.18.32-.63.44-.75.79a.85.85,0,0,0,0,.39,30.35,30.35,0,0,0,.6,3.8,3.25,3.25,0,0,0,.28.83,7.53,7.53,0,0,0,1.08,1.18,5.5,5.5,0,0,1,1,3.47,4,4,0,0,1-.39,2.28,2.82,2.82,0,0,1-2.34,1.13,8.07,8.07,0,0,1-2.89-.63,44.42,44.42,0,0,1-5.93-2.67,10.1,10.1,0,0,1-4.54-4,5.85,5.85,0,0,1-.19-4.71c.12-.32.28-.69.11-1s-.4-.33-.59-.51a1.25,1.25,0,0,1-.25-1.25,5.58,5.58,0,0,1,.61-1.19.78.78,0,0,0,.12-.39.87.87,0,0,0-.24-.44,2.69,2.69,0,0,1,.36-3.56,4.18,4.18,0,0,1,3.28-.68,12.61,12.61,0,0,1,3.3.84A7.93,7.93,0,0,0,161.06,218Z"/><path class="cls-39" d="M165.48,237.41a2.82,2.82,0,0,0,2.34-1.13,4,4,0,0,0,.39-2.28,5.5,5.5,0,0,0-1-3.47,7.53,7.53,0,0,1-1.08-1.18,3.25,3.25,0,0,1-.28-.83,30.35,30.35,0,0,1-.6-3.8.85.85,0,0,1,0-.39c.12-.35.57-.47.75-.79a.78.78,0,0,0-.13-.85,2.09,2.09,0,0,0-.69-.53c.44,0,.87-.58,1.1-.92a.29.29,0,0,0,.09-.21.31.31,0,0,0-.11-.21,1.69,1.69,0,0,0-.53-.5,2.76,2.76,0,0,0-.81-.21.82.82,0,0,1-.63-.49,2.66,2.66,0,0,1,0-.63,1.22,1.22,0,0,0-.74-1c-.86-.4-1.61.05-2.5,0a7.93,7.93,0,0,1-2.43-.78,12.61,12.61,0,0,0-3.3-.84,4.18,4.18,0,0,0-3.28.68,2.71,2.71,0,0,0-.78,2.7c.46-.06.91-.16,1.31-.25a30.18,30.18,0,0,1,9.28-.66c-.33.62-1.17.67-1.85.78s-1.51.61-1.33,1.29a1.7,1.7,0,0,1,1.49,1.25l-3.91.16a2.55,2.55,0,0,0,2.49.67,1.11,1.11,0,0,1-.79,1,3.39,3.39,0,0,0,2.24,1.1,1.85,1.85,0,0,1,1.21.3c.55.51.09,1.44.22,2.19a4,4,0,0,0,1,1.56,5.2,5.2,0,0,1,0,5.77,7.5,7.5,0,0,1-1.17,1.4c.39.16.77.31,1.16.45A8.07,8.07,0,0,0,165.48,237.41Z"/><path class="cls-40" d="M153.68,220.45c-.37,0-.73,0-1.1,0a.19.19,0,0,1-.17-.21.18.18,0,0,1,.2-.17,25.55,25.55,0,0,0,5.24-.33,21,21,0,0,1,6.23-.22.19.19,0,0,1,.16.22.19.19,0,0,1-.22.16,21,21,0,0,0-6.13.22A32.76,32.76,0,0,1,153.68,220.45Z"/><path class="cls-40" d="M161.18,222.64a12.22,12.22,0,0,1-1.35-.08,19.16,19.16,0,0,1-1.89-.39l-1.09-.26a17.49,17.49,0,0,0-4.06-.31.2.2,0,0,1-.2-.19.19.19,0,0,1,.19-.19,17.58,17.58,0,0,1,4.14.32c.37.07.74.16,1.11.25a16.39,16.39,0,0,0,1.85.38,17.16,17.16,0,0,0,3.51,0,6.89,6.89,0,0,0,1.5-.23.19.19,0,0,1,.11.37,7.2,7.2,0,0,1-1.58.24C162.69,222.57,161.94,222.64,161.18,222.64Z"/><path class="cls-40" d="M162,224.56a20.39,20.39,0,0,1-4.85-.67l-.46-.12a8,8,0,0,0-4.32-.33.19.19,0,0,1-.23-.13.19.19,0,0,1,.12-.24,8.33,8.33,0,0,1,4.52.32l.46.12a15.87,15.87,0,0,0,7.42.38.19.19,0,0,1,.23.14.2.2,0,0,1-.15.23A12,12,0,0,1,162,224.56Z"/><path class="cls-37" d="M179.71,221.81l.39-10a8.43,8.43,0,0,0,8.69,1.2,8.69,8.69,0,0,0,4.46-11.35l-12.43-29.34a8.49,8.49,0,0,0-9.37-5.09,8.61,8.61,0,0,0-7,8.15l-1.79,45.75A34,34,0,0,0,179.71,221.81Z"/><path class="cls-38" d="M170.45,218c-.89,0-1.64-.41-2.5,0a1.22,1.22,0,0,0-.74,1,2.66,2.66,0,0,1,0,.63.82.82,0,0,1-.63.49,2.85,2.85,0,0,0-.81.21,1.69,1.69,0,0,0-.53.5.31.31,0,0,0-.11.21.33.33,0,0,0,.09.21c.24.34.66.94,1.1.92a2.09,2.09,0,0,0-.69.53.8.8,0,0,0-.13.85c.18.32.63.44.75.79a.85.85,0,0,1,0,.39,30.35,30.35,0,0,1-.6,3.8,3.25,3.25,0,0,1-.28.83,7.53,7.53,0,0,1-1.08,1.18,5.5,5.5,0,0,0-1,3.47,4,4,0,0,0,.39,2.28,2.82,2.82,0,0,0,2.34,1.13,8.07,8.07,0,0,0,2.89-.63,44.42,44.42,0,0,0,5.93-2.67,10.1,10.1,0,0,0,4.54-4,5.85,5.85,0,0,0,.19-4.71c-.12-.32-.28-.69-.11-1s.4-.33.6-.51a1.27,1.27,0,0,0,.24-1.25,5.54,5.54,0,0,0-.6-1.19.7.7,0,0,1-.13-.39.87.87,0,0,1,.24-.44,2.69,2.69,0,0,0-.36-3.56,4.18,4.18,0,0,0-3.28-.68,12.61,12.61,0,0,0-3.3.84A7.93,7.93,0,0,1,170.45,218Z"/><path class="cls-39" d="M179.39,230.09a5.85,5.85,0,0,0,.19-4.71c-.12-.32-.28-.69-.11-1s.4-.33.6-.51a1.27,1.27,0,0,0,.24-1.25,5.54,5.54,0,0,0-.6-1.19.7.7,0,0,1-.13-.39.87.87,0,0,1,.24-.44,2.69,2.69,0,0,0-.36-3.56,4.18,4.18,0,0,0-3.28-.68,12.61,12.61,0,0,0-3.3.84,7.93,7.93,0,0,1-2.43.78,14.23,14.23,0,0,0-2.13-.13,5.48,5.48,0,0,0,2.38.13c.9-.05,1.8-.17,2.69-.27a20.93,20.93,0,0,1,3.06-.17,2.55,2.55,0,0,1,1.94.69.64.64,0,0,1,.13.29c0,.33-.39.48-.71.48s-.73,0-.87.3c-.06.12-.05.27-.12.38s-.36.22-.58.23a13.13,13.13,0,0,1-2.5-.16,4.51,4.51,0,0,0-2.84.06c.27.5,1,.49,1.52.48a9,9,0,0,1,2.31.24c.23.05.53.26.41.47a.43.43,0,0,1-.24.15,27.26,27.26,0,0,1-2.65.71c-.37.08-.84.26-.84.65a24.36,24.36,0,0,1,3.91-.32c-.1.65-.9.88-1.55,1l-3.58.45c-.38,0-.83.15-1,.5a2.64,2.64,0,0,0,1.67.16l3.92-.47a5,5,0,0,1,2.1,0,1.73,1.73,0,0,1,1.28,1.54,3.22,3.22,0,0,0,0,.76c.09.36.43.59.62.9a2.2,2.2,0,0,1-.26,2.13,15.13,15.13,0,0,1-3.53,4.37c-.59.5-1.21,1-1.82,1.43.57-.27,1.13-.56,1.69-.86A10.1,10.1,0,0,0,179.39,230.09Z"/><path class="cls-40" d="M177.83,220.45a32.76,32.76,0,0,1-4.21-.37,21,21,0,0,0-6.13-.22.19.19,0,0,1-.22-.16.2.2,0,0,1,.16-.22,21.07,21.07,0,0,1,6.24.22,25.46,25.46,0,0,0,5.23.33.17.17,0,0,1,.2.17.19.19,0,0,1-.17.21C178.57,220.44,178.2,220.45,177.83,220.45Z"/><path class="cls-40" d="M170.33,222.64c-.76,0-1.51-.07-2.24-.13a7.2,7.2,0,0,1-1.58-.24.19.19,0,0,1-.12-.24.2.2,0,0,1,.24-.13,6.71,6.71,0,0,0,1.49.23,12.65,12.65,0,0,0,5.36-.34c.37-.09.74-.18,1.11-.25a17.62,17.62,0,0,1,4.15-.32.19.19,0,0,1,0,.38,17.49,17.49,0,0,0-4.06.31l-1.09.26a19.16,19.16,0,0,1-1.89.39A12.22,12.22,0,0,1,170.33,222.64Z"/><path class="cls-40" d="M169.5,224.56a12,12,0,0,1-2.74-.3.18.18,0,0,1-.14-.23.18.18,0,0,1,.22-.14,15.87,15.87,0,0,0,7.42-.38l.46-.12a8.33,8.33,0,0,1,4.52-.32.19.19,0,0,1,.12.24.19.19,0,0,1-.23.13,8,8,0,0,0-4.32.33l-.46.12A20.32,20.32,0,0,1,169.5,224.56Z"/><path class="cls-41" d="M172.72,166.82s-5.68-.28-7.9,1.38-5.14-2.66-9.16-1.37-8.63,3.18-11,11.75-8.79,31.6-15,34.3-7.78,5-6.23,5.87-8-.78-4.45,3.9,14.91,2.64,18.24,6.48,9.36-10.15,16.25-11.06,10.88,2.4,13.44,1.2,9.43-2.61,11.67-.32,4.91,11.28,11.81,10.84,14.9-2,20.91-1.79,19.8-2,16.68-4.06-10.68-3.38-12.68-6.32-5.11-18.08-12.68-19.42-12.23-3.82-14.23-10.14S185.87,166.57,172.72,166.82Z"/><path class="cls-42" d="M189.92,220.8a5,5,0,0,0,2.64,2.4,9.16,9.16,0,0,0,3.56.58,4.44,4.44,0,0,0,3.23-1,1.11,1.11,0,0,0,.37-.85,1.24,1.24,0,0,0-.75-.83c-1.42-.77-3.18-1.25-3.93-2.69-1.13-2.19,1.62-6.35-1.52-7.32-2.37-.73-3.33,3-3.72,4.65A8.05,8.05,0,0,0,189.92,220.8Z"/><path class="cls-42" d="M209.47,214.79a15.41,15.41,0,0,0,4.26,3.24,1.64,1.64,0,0,0,1.31.33c-.59-1.59-1.86-2.81-2.82-4.2a12.22,12.22,0,0,1-1.77-4.13c-.24-1.13.16-3.3-1.2-3.65-2.19-.55-1.82,2.88-1.61,4.1A9.22,9.22,0,0,0,209.47,214.79Z"/><path class="cls-42" d="M147.47,205.63a70,70,0,0,1,1.46-9c.14-.59.2-1.37-.34-1.63s-1.05.2-1.26.7-.21,1.07-.44,1.57-.82.74-1.07.35a.82.82,0,0,1-.08-.41c0-.52,0-1,0-1.55-.17-.27-.62-.2-.82.06a1.57,1.57,0,0,0-.2.94q0,5.47.06,11c0,1.78,0,3.68-.9,5.18-1.13,1.79-3.33,2.55-5.41,2.8-.78.1-1.78.32-1.88,1.11s.85,1.31,1.64,1.29a6.66,6.66,0,0,1,2.35-.06c1.45.5,1.55,2.52,1.29,4-.5,2.85-1.48,5.85-3.49,7.79,2.36.32,5.64-4.81,9.45-8.4A69.63,69.63,0,0,1,147.47,205.63Z"/><path class="cls-42" d="M129.67,212.88c-6.23,2.71-7.78,5-6.23,5.87.51.3-.17.31-1.19.37a13.38,13.38,0,0,0,3.22.24c.92-.05,2-.37,2.21-1.29a4.52,4.52,0,0,1-3.75-.71c1.63-1.26,3.84-1.37,5.73-2.17,4-1.72,6.07-6.32,6.69-10.69.06-.43.11-.87.15-1.3C134.34,208.05,132,211.87,129.67,212.88Z"/><path class="cls-42" d="M162.62,200.75c-.05.55-.22,1.23-.74,1.33-.68.12-1-.79-1.09-1.49a99.56,99.56,0,0,1,.73-23.71,10.06,10.06,0,0,1,1.13-3.78c.49-.8,1.22-1.64,1-2.54.1.34,3-1.85,2.72,1.12-.24,2.3-.73,4.6-1.07,6.9q-1,7-1.82,14.07Q163,196.7,162.62,200.75Z"/><path class="cls-42" d="M166.15,179.45c-.59-.23-1.25-.66-1.2-1.29a1.64,1.64,0,0,1,.47-.85c.81-.95,1.59-2.34.9-3.39s-2.31-.83-3.53-.46l-3.09.93a6.91,6.91,0,0,0-3.44,1.81,3.76,3.76,0,0,0-.67,4.12,4,4,0,0,0,2.86,4,7,7,0,0,0,5.11-.62,4.33,4.33,0,0,0,3.46,2.46,12.56,12.56,0,0,0,4.39-.37l8.73-1.77c1.45-.3,3.13-.53,4.24.45a35.32,35.32,0,0,1,.68,15.57,41.06,41.06,0,0,0-.92,5.24,2.71,2.71,0,0,0,.53,2.13,2.11,2.11,0,0,0,2.17.31c1.75-.61,2.8-2.42,3.45-4.18s1.07-3.66,2.23-5.12a6.07,6.07,0,0,1,3.3-2.12,12.52,12.52,0,0,1-7.42-8.22c-.68-2.14-1.19-5.3-2.08-8.53-3.49.46-7,.74-10.52.91C172.55,180.59,169.19,180.63,166.15,179.45Z"/><path class="cls-43" d="M185.91,208.1l-.36,0a1.6,1.6,0,0,1-1.3-.75,1.88,1.88,0,0,1-.17-.93,31.49,31.49,0,0,1,.64-5.59c.14-.81.29-1.65.41-2.48A35.15,35.15,0,0,0,180.79,176a.21.21,0,0,1,.07-.27.19.19,0,0,1,.26.07,35.52,35.52,0,0,1,4.38,22.57c-.11.84-.26,1.68-.41,2.5a32.75,32.75,0,0,0-.64,5.51,1.57,1.57,0,0,0,.13.76,1.32,1.32,0,0,0,1,.55,4,4,0,0,0,3.5-1.86,12.57,12.57,0,0,0,1.6-4,.19.19,0,0,1,.23-.13.19.19,0,0,1,.13.24,12.74,12.74,0,0,1-1.66,4.11A4.48,4.48,0,0,1,185.91,208.1Z"/><path class="cls-43" d="M147.77,217.64a.19.19,0,0,1-.19-.17,69.2,69.2,0,0,1,1.17-24.26.19.19,0,0,1,.23-.15.2.2,0,0,1,.14.23A68.71,68.71,0,0,0,148,217.42a.19.19,0,0,1-.17.21Z"/><path class="cls-43" d="M145.83,201.16a.19.19,0,0,1-.19-.18,36.9,36.9,0,0,1,1-11.13.2.2,0,0,1,.23-.14.21.21,0,0,1,.14.24,36.37,36.37,0,0,0-1,11,.19.19,0,0,1-.17.21Z"/><path class="cls-43" d="M161.17,196a.19.19,0,0,1-.19-.19,109.72,109.72,0,0,1,2.32-25.11.18.18,0,0,1,.22-.15.19.19,0,0,1,.15.23,108.93,108.93,0,0,0-2.31,25,.19.19,0,0,1-.19.2Z"/><path class="cls-43" d="M132.48,218.75a9.32,9.32,0,0,1-2.29-.28.19.19,0,0,1-.14-.23.19.19,0,0,1,.23-.14,9.4,9.4,0,0,0,5.92-.5.18.18,0,0,1,.25.1.19.19,0,0,1-.1.25A9.72,9.72,0,0,1,132.48,218.75Z"/><path class="cls-43" d="M134.89,216.24a.19.19,0,0,1-.19-.17.19.19,0,0,1,.17-.21,11.61,11.61,0,0,0,5.32-2.09.19.19,0,1,1,.22.32,12.06,12.06,0,0,1-5.5,2.15Z"/><path class="cls-43" d="M214.69,219h-.07a10.58,10.58,0,0,1-5.68-4.75,10.83,10.83,0,0,1-1.15-7.38.19.19,0,1,1,.37.08,10.47,10.47,0,0,0,1.11,7.11,10.21,10.21,0,0,0,5.48,4.58.19.19,0,0,1,.11.24A.18.18,0,0,1,214.69,219Z"/><path class="cls-43" d="M207.63,219h0a13.49,13.49,0,0,1-5-1.17.19.19,0,0,1,.15-.35,13.39,13.39,0,0,0,4.82,1.14.18.18,0,0,1,.18.19A.19.19,0,0,1,207.63,219Z"/><path class="cls-43" d="M197.18,225a25.74,25.74,0,0,1-4.38-.38c-2.67-.46-4.35-1.43-5.13-3s-.41-3.41,0-5.16a15.67,15.67,0,0,0,.45-2.84.19.19,0,1,1,.38,0,16,16,0,0,1-.46,2.91c-.39,1.76-.75,3.42,0,4.91s2.31,2.32,4.86,2.76a25,25,0,0,0,8.5,0,.19.19,0,0,1,.22.16.19.19,0,0,1-.16.22A25.31,25.31,0,0,1,197.18,225Z"/><path class="cls-44" d="M159.52,183.31h0a4.22,4.22,0,0,0,4.19-4.25v-6.32a1.16,1.16,0,0,0-1.16-1.17h-6.39a1.33,1.33,0,0,0-1.32,1.34v5.64A4.72,4.72,0,0,0,159.52,183.31Z"/><ellipse class="cls-45" cx="159.27" cy="172.46" rx="4.14" ry="0.49"/><path class="cls-44" d="M164.52,181H163v-1.92h1.52a1.34,1.34,0,0,0,1.33-1.34v-1.87a1.34,1.34,0,0,0-1.33-1.35h-1.38v-1.92h1.38a3.25,3.25,0,0,1,3.22,3.27v1.87A3.25,3.25,0,0,1,164.52,181Z"/><path class="cls-46" d="M168.46,184.78a4.26,4.26,0,0,1-2.07,0,1.52,1.52,0,0,1-1.06-1.61c.08-.36.33-.7.25-1s-.62-.62-1-.91a1.78,1.78,0,0,1-.15-2.3,1.41,1.41,0,0,0,.37-.74c0-.62-1-.88-1-1.5s.63-.77.65-1.24a3.25,3.25,0,0,0-.2-.74,1.12,1.12,0,0,1,.56-1.08,3.24,3.24,0,0,1,1.23-.36l2-.3a3.13,3.13,0,0,1,1.18,0c.83.2,1.33,1,1.72,1.79a13.85,13.85,0,0,1,1.52,4.67,6.92,6.92,0,0,1-.69,4C171.22,184.47,169.58,184.61,168.46,184.78Z"/><path class="cls-35" d="M146.07,160.67a.17.17,0,0,1-.12,0,.19.19,0,0,1,0-.27c1.91-2.33,2.68-8.8,2.69-8.87a.17.17,0,0,1,.21-.16.18.18,0,0,1,.16.21c0,.27-.79,6.65-2.77,9.06A.19.19,0,0,1,146.07,160.67Z"/><path class="cls-34" d="M197.25,173.39l-11-25.1a5.64,5.64,0,0,0-7.48-2.93,5.79,5.79,0,0,0-2.89,7.6l7.88,18-14.39,1.91s-1.77,6.6,1.47,11.42l21.92-2.91a5.67,5.67,0,0,0,4.21-2.88A5.82,5.82,0,0,0,197.25,173.39Z"/><path class="cls-35" d="M155,153a8.57,8.57,0,0,1-.43,1.36,6.68,6.68,0,0,0-.09,2.32,1.55,1.55,0,0,0,.34,1,1.51,1.51,0,0,0,.62.31,19.63,19.63,0,0,0,5.88,1.17c3.41,0,6.51-1.86,9.44-3.62a28.92,28.92,0,0,0,6.05-4.4,10.09,10.09,0,0,0,3.09-6.71,2,2,0,0,0-.47-1.51c-.8-.74-2,0-2.92.58a14.12,14.12,0,0,1-3.51,1.77,28.9,28.9,0,0,1-6.55,1.14c-3.37.31-6.89.37-10.22,1C152.16,148.1,155.36,150.48,155,153Z"/><path class="cls-46" d="M163.1,138.27l.5,7.73s-5,7.42.6,6.84S175,143.35,175,143.35l-.82-12.85Z"/><path class="cls-47" d="M173,137.08l-9.72,4,.27,4.11C169,144.08,173,137.08,173,137.08Z"/><path class="cls-48" d="M166.88,142.75l-5.44.36a8.12,8.12,0,0,1-8.56-7.62l-1-14.91a8.16,8.16,0,0,1,7.52-8.68l5.44-.36a8.12,8.12,0,0,1,8.56,7.62l1,14.9A8.17,8.17,0,0,1,166.88,142.75Z"/><path class="cls-49" d="M160.85,117.08s-1.1,5.31,6,6.74a21.42,21.42,0,0,1,5.54,3c1.8,1.62.24-8.73.24-8.73l-6.34-5.27-7.09.39L155.3,117a36,36,0,0,0-3.18,6.64l.12,1.83C153.54,125.17,158.31,123.65,160.85,117.08Z"/><path class="cls-50" d="M153.52,130.87a1.46,1.46,0,0,0,0,.55.75.75,0,0,0,.27.48.77.77,0,0,0,.51.15,1.9,1.9,0,0,0,.53-.09,10.71,10.71,0,0,0,1.68-.57,2,2,0,0,0,.36-.18,2.85,2.85,0,0,0,.38-.31l.77-.72.19-.19a1.59,1.59,0,0,0,.29-.82.73.73,0,0,0,0-.36.34.34,0,0,0-.24-.25c-.16,0-.31.08-.45.17a5.57,5.57,0,0,1-1.19.54,10.25,10.25,0,0,1-1.53.53c-.41.09-.84,0-1.17.34A1.46,1.46,0,0,0,153.52,130.87Z"/><path class="cls-50" d="M166.69,129.66a1.43,1.43,0,0,0-1-.52,23.52,23.52,0,0,1-2.79-.26,5.64,5.64,0,0,1-1.09-.5c-.18.32,0,.72.23,1a5.72,5.72,0,0,0,1.38,1.59c.58.39,2,1.11,2.71.85A1.69,1.69,0,0,0,166.69,129.66Z"/><path class="cls-30" d="M158.7,132.91a.75.75,0,0,1-.15.64.67.67,0,0,1-.34.13.65.65,0,0,1-.24,0,.51.51,0,0,1-.4-.47,1.1,1.1,0,0,1,.18-.63c.12-.23.44-.62.75-.48S158.68,132.68,158.7,132.91Z"/><path class="cls-31" d="M153.06,132.54a.92.92,0,0,0,.1.73,1.11,1.11,0,0,0,.79.4,4.73,4.73,0,0,0,.83.07,2.46,2.46,0,0,0,.89-.16,1.23,1.23,0,0,0,.64-.61,1.2,1.2,0,0,0-.43-1.32A1.88,1.88,0,0,0,153.06,132.54Z"/><path class="cls-31" d="M159.26,131.07a4.64,4.64,0,0,0,.39-.38.43.43,0,0,1,.48-.11c.27.15.15.6.36.81s.29.13.43.22a.57.57,0,0,1,.23.52.91.91,0,0,1-.23.54.85.85,0,0,1-.27.23,1.18,1.18,0,0,1-.53.08,4.52,4.52,0,0,1-1.1-.11,1.52,1.52,0,0,1-.91-.59c-.19-.29-.3-.76.06-.94S158.94,131.3,159.26,131.07Z"/><path class="cls-49" d="M161.44,143.11l5.44-.36A8.15,8.15,0,0,0,174.4,135c-5.09,9-16.08,7.08-18,6.66A8,8,0,0,0,161.44,143.11Z"/><path class="cls-25" d="M152.23,125.36s4.48-2.34,6.48-5.87,2.67-4.73,2.67-4.73-.84,6.08,3.61,7.73,8.2,4.29,8.88,6.46a57.7,57.7,0,0,0,.54-8.71c-.23-3.08-1.13-10.06-12.08-9.76S150.34,117,152.23,125.36Z"/><path class="cls-48" d="M176.58,128.85a2.65,2.65,0,1,1-2.81-2.5A2.67,2.67,0,0,1,176.58,128.85Z"/><path class="cls-25" d="M174.16,129.93a.13.13,0,0,0,.12-.11c.08-.53,0-.89-.27-1.07a1.15,1.15,0,0,0-1,0,1.38,1.38,0,0,1,.75-.74,1.6,1.6,0,0,1,1.26.21.14.14,0,0,0,.17,0,.12.12,0,0,0,0-.17,1.87,1.87,0,0,0-1.46-.23,1.75,1.75,0,0,0-1,1.17.12.12,0,0,0,0,.14.12.12,0,0,0,.14,0c.19-.11.76-.34,1-.15s.21.54.17.83a.12.12,0,0,0,.1.14Z"/><path class="cls-31" d="M156.07,141.61c-1.06-.74-2.51.81-3.17,1.93a4.15,4.15,0,0,0-.24,3.74,7.6,7.6,0,0,0,2.11,2.51,2.93,2.93,0,0,1,.76.85,2.48,2.48,0,0,1-.11,2.06A31.13,31.13,0,0,0,154,156c-.06.22-.08.5.11.62a.58.58,0,0,0,.32.06,7.58,7.58,0,0,1,2,.65,8.12,8.12,0,0,0,3.83.15c6.82-1,13-5,17.44-10.38a7.94,7.94,0,0,0,2-3.88,2.37,2.37,0,0,0-.13-1.24c-.46-1-1.89-1.38-2.27-2.45a4.91,4.91,0,0,1,0-1.91,4,4,0,0,0-.57-2.21,2.12,2.12,0,0,0-2.41-1.14s.24,8-9.36,8.72C165,142.94,158.66,143.42,156.07,141.61Z"/><path class="cls-49" d="M155.59,155.25a3.36,3.36,0,0,0,1.66.28,12.19,12.19,0,0,0,1.6-.14,1.91,1.91,0,0,0,.7-.22.7.7,0,0,0,.35-.61,7.23,7.23,0,0,1-2.54.06.53.53,0,0,1-.25-.08.57.57,0,0,1-.15-.65,4,4,0,0,1,.68-1.07,1.18,1.18,0,0,0,.19-1.2c-.28-.46-1-.47-1.41-.62-.29-.1-.59-.26-.9-.37h0a2.48,2.48,0,0,1-.11,2.06c-.23.6-.54,1.17-.83,1.75l0,.05A4,4,0,0,0,155.59,155.25Z"/><path class="cls-49" d="M177.34,139.48a4.91,4.91,0,0,1,0-1.91,4,4,0,0,0-.57-2.21,2.12,2.12,0,0,0-2.41-1.14s.24,8-9.36,8.72c0,0-5.42.41-8.28-1a1.9,1.9,0,0,0-.27.53,1.15,1.15,0,0,0,.35,1.28,1.65,1.65,0,0,0,.85.21,33.84,33.84,0,0,0,8.16-.6,1.91,1.91,0,0,1,1.61.15,1.27,1.27,0,0,1,.29,1.32,2.94,2.94,0,0,1-.81,1.16,11.23,11.23,0,0,1-1.93,1.57,3.43,3.43,0,0,0,2.06-.45c2.72-1.34,4.75-3.74,7-5.8a3.37,3.37,0,0,1,1.25-.84.61.61,0,0,1,.46,0,.85.85,0,0,1,.33.39,3,3,0,0,0,3.58,1.15l0-.1C179.15,140.89,177.72,140.55,177.34,139.48Z"/><path class="cls-34" d="M159.7,133.09a3.39,3.39,0,0,1-.64-.06,1.94,1.94,0,0,1-1-.52,1.12,1.12,0,0,1-.24-1.19.51.51,0,0,1,.26-.28.68.68,0,0,1,.27,0H159a.48.48,0,0,0,.33-.06.5.5,0,0,0,.1-.18,3.23,3.23,0,0,0,.14-1.27.19.19,0,0,1,.17-.21.18.18,0,0,1,.2.17,3.31,3.31,0,0,1-.15,1.43.78.78,0,0,1-.21.35.86.86,0,0,1-.59.16l-.66,0h-.11s0,0-.06.09a.72.72,0,0,0,.17.77,1.51,1.51,0,0,0,.82.4,2.93,2.93,0,0,0,1.38-.06.19.19,0,0,1,.23.13.19.19,0,0,1-.13.24A3.13,3.13,0,0,1,159.7,133.09Z"/><path class="cls-25" d="M164.08,135.61a.32.32,0,0,1,.18.14.22.22,0,0,1-.14.28.64.64,0,0,1-.34,0,26.14,26.14,0,0,0-4.51-.07.93.93,0,0,1-.62-.11c-.53-.42.34-.6.57-.65a10.43,10.43,0,0,1,1.67-.2A6.84,6.84,0,0,1,164.08,135.61Z"/><path class="cls-34" d="M166.61,132.08h0a6.11,6.11,0,0,1-3.75-1.49,4.08,4.08,0,0,1-1-1.29.1.1,0,0,1,.05-.13.09.09,0,0,1,.12.05s1,2.39,4.57,2.67a.11.11,0,0,1,.09.11A.1.1,0,0,1,166.61,132.08Z"/><path class="cls-34" d="M154.06,132.22a.11.11,0,0,1-.1-.09.1.1,0,0,1,.09-.1,5,5,0,0,0,4.35-2.59.09.09,0,0,1,.12-.05.1.1,0,0,1,0,.13,4.18,4.18,0,0,1-1,1.26,5.7,5.7,0,0,1-3.55,1.44Z"/><path class="cls-31" d="M166.83,132a.93.93,0,0,0,.1.73,1.17,1.17,0,0,0,.79.4,4.75,4.75,0,0,0,.84.06,2.22,2.22,0,0,0,.88-.16,1.16,1.16,0,0,0,.64-.61,1.18,1.18,0,0,0-.43-1.32A1.88,1.88,0,0,0,166.83,132Z"/><path class="cls-25" d="M166.32,125.63h0a20,20,0,0,1-4.05-1.24.2.2,0,0,1-.1-.25.19.19,0,0,1,.25-.1,20.27,20.27,0,0,0,3.95,1.21.2.2,0,0,1,.16.22A.19.19,0,0,1,166.32,125.63Z"/><path class="cls-25" d="M153.53,126.59a.19.19,0,0,1,0-.38,23.5,23.5,0,0,0,3.9-1.71.19.19,0,0,1,.26.08.2.2,0,0,1-.08.26,23,23,0,0,1-4,1.74Z"/><path class="cls-30" d="M159.74,132.88a.76.76,0,0,0,.12.66.71.71,0,0,0,.33.14.66.66,0,0,0,.24,0,.51.51,0,0,0,.42-.45,1.12,1.12,0,0,0-.15-.64c-.11-.23-.42-.64-.73-.51S159.77,132.65,159.74,132.88Z"/><path class="cls-35" d="M159.23,149.54a.19.19,0,0,1-.19-.17.18.18,0,0,1,.16-.21c7.49-1.14,11.17-4.92,12.94-7.9a14.83,14.83,0,0,0,2.07-6.25.19.19,0,0,1,.19-.18.18.18,0,0,1,.18.2c0,.12-.68,12.28-15.32,14.51Z"/><path class="cls-35" d="M158.28,144.14c-.73,0-1.5,0-2.3-.06a.19.19,0,0,1-.18-.2.18.18,0,0,1,.2-.18c8.22.38,12.54-1.38,14.73-2.92a6.8,6.8,0,0,0,2.79-3.46.19.19,0,0,1,.22-.14.19.19,0,0,1,.15.23C173.82,137.7,172.19,144.14,158.28,144.14Z"/><path class="cls-43" d="M158,154.86a1.85,1.85,0,0,1-1.06-.25.42.42,0,0,1-.19-.22.43.43,0,0,1,0-.3,3.1,3.1,0,0,1,.57-1,4.54,4.54,0,0,0,.43-.68.78.78,0,0,0,.09-.49c-.08-.32-.51-.45-.88-.57l-.05,0a5,5,0,0,1-1.62-.88.19.19,0,0,1,.23-.3,4.65,4.65,0,0,0,1.5.81l.06,0c.44.14,1,.32,1.12.84a1.17,1.17,0,0,1-.1.76,4.7,4.7,0,0,1-.48.74,2.92,2.92,0,0,0-.51.88.15.15,0,0,0,0,.06h0l0,0a1.55,1.55,0,0,0,.89.19,6.31,6.31,0,0,0,3.34-1,.19.19,0,0,1,.2.32,6.64,6.64,0,0,1-3.54,1.06Z"/><path class="cls-49" d="M169.78,150a11.07,11.07,0,0,1-1,1,1.91,1.91,0,0,0-.61,1.2.52.52,0,0,0,0,.28.68.68,0,0,0,.51.34,3.06,3.06,0,0,0,2.25-.63,10.12,10.12,0,0,0,2.55-2.42,4.27,4.27,0,0,0,.71-1.33,2,2,0,0,0-.06-1.48,1.68,1.68,0,0,0-2.66-.48C170.65,147.49,170.58,149,169.78,150Z"/><path class="cls-35" d="M183.8,171.21a.19.19,0,0,1-.17-.12L176.16,154a.19.19,0,1,1,.34-.16L184,170.94a.2.2,0,0,1-.09.25Z"/><path class="cls-35" d="M179.2,160.67a.17.17,0,0,1-.15-.08,20.52,20.52,0,0,0-4.7-4.43.18.18,0,0,1-.06-.26.18.18,0,0,1,.26-.06,20.47,20.47,0,0,1,4.8,4.53.18.18,0,0,1,0,.26A.15.15,0,0,1,179.2,160.67Z"/><path class="cls-51" d="M168.58,166.73c-4.57,0-9.46-.3-13.68-2.62a.2.2,0,0,1-.07-.26.19.19,0,0,1,.26-.08c4.86,2.68,10.71,2.61,15.87,2.55h0a.2.2,0,0,1,0,.39Z"/><path class="cls-51" d="M172.91,166.05h0a58.67,58.67,0,0,1-6.62-.53.18.18,0,0,1-.16-.21.19.19,0,0,1,.21-.17,58,58,0,0,0,6.58.53.18.18,0,0,1,.18.19A.18.18,0,0,1,172.91,166.05Z"/><path class="cls-51" d="M169.41,173.11a.19.19,0,0,1-.19-.17.19.19,0,0,1,.17-.21l15.89-1.91c.14,0,4.08-1.22,6.46,1a.2.2,0,0,1,0,.28.2.2,0,0,1-.27,0c-2.21-2.08-6.08-.92-6.12-.91l-15.93,1.91Z"/><path class="cls-30" d="M148.18,132.81a11.92,11.92,0,0,1,1.31,3.14A26.3,26.3,0,0,0,152,141.4c1,1.67,2.32,3.48,2,5.42-.45.29-.83-.47-1.29-.75a1.11,1.11,0,0,0-1.49.69,2.74,2.74,0,0,0,.18,1.84c.13.35.27.78,0,1.06s-.76.17-1.14,0a5.85,5.85,0,0,0-2.12-.28,1,1,0,0,0-.92.42,2.16,2.16,0,0,0-.1.72,1.21,1.21,0,0,1-2,.61,2.38,2.38,0,0,1-.39-1.47q-.33-8.1-.67-16.2C144,130.64,146.89,131,148.18,132.81Z"/><path class="cls-52" d="M145.3,133.49a9.09,9.09,0,0,0,.22,3.84q1.11,5.4,2.37,10.77a.87.87,0,0,0,.26.51c.31.25.77,0,1.15.08s.76.6,1,.08c.18-.32-.45-1.53-.56-1.86-.49-1.49-1-3-1.49-4.47C147.29,139.45,146.3,136.47,145.3,133.49Z"/><path class="cls-30" d="M122.85,222.1a2.68,2.68,0,0,0-1.68,0,1.62,1.62,0,0,0-.73.39,6.74,6.74,0,0,0-.42.62,5.78,5.78,0,0,1-1.41,1c-.47.35-.86,1-.57,1.52a1.9,1.9,0,0,0,.88.63c.33.16.67.43.67.8s-.57.81-.55,1.29.6.71,1.08.81a2.91,2.91,0,0,0,1.73,0c.62-.29,1-1,1.64-1.25a.4.4,0,0,1,.24,0,.59.59,0,0,1,.28.24,1.42,1.42,0,0,0,.74.44,1.56,1.56,0,0,0,1.77-1.21,1.87,1.87,0,0,0-1-2c-.43-.21-1-.42-1-.9,0-.26.4-.58.35-.83s-.45-.32-.71-.5C123.65,222.84,123.42,222.31,122.85,222.1Z"/><path class="cls-53" d="M120.32,228a.53.53,0,0,1-.28-.07.9.9,0,0,1-.44-.67v0a.17.17,0,0,1-.14-.07.2.2,0,0,1,0-.27.26.26,0,0,1,.24,0,.48.48,0,0,1,.24.32.59.59,0,0,0,.24.41.28.28,0,0,0,.2,0s.07,0,.08-.08a.65.65,0,0,0,0-.19,1,1,0,0,1,0-.25.79.79,0,0,1,.69-.68,2.13,2.13,0,0,1,.72.07l.12,0a1.56,1.56,0,0,0,.9,0,.64.64,0,0,0,.41-.6c0-.31-.4-.47-.51-.52l-.41-.12a4.16,4.16,0,0,1-.5-.16,1.09,1.09,0,0,1-.71-.85.83.83,0,0,1,.21-.61,1.09,1.09,0,0,1,.77-.37,2.12,2.12,0,0,1,1.24.47,1.81,1.81,0,0,0,.36.21,1.37,1.37,0,0,0,1-.19.19.19,0,0,1,.25.09.2.2,0,0,1-.09.26,1.75,1.75,0,0,1-1.25.21,1.91,1.91,0,0,1-.42-.24,1.84,1.84,0,0,0-1-.43.72.72,0,0,0-.49.24.47.47,0,0,0-.12.33.72.72,0,0,0,.48.52,2.83,2.83,0,0,0,.44.14,4.11,4.11,0,0,1,.46.15,1.09,1.09,0,0,1,.74.81,1,1,0,0,1-.63,1,1.89,1.89,0,0,1-1.12,0l-.13,0a2,2,0,0,0-.58-.06c-.18,0-.36.16-.37.32a.45.45,0,0,0,0,.16.77.77,0,0,1,0,.37.48.48,0,0,1-.29.32A.64.64,0,0,1,120.32,228Z"/><path class="cls-53" d="M126.08,226.65h0c-.43,0-.58-.2-.63-.32a.82.82,0,0,1,0-.3.56.56,0,0,0,0-.13.26.26,0,0,0-.2-.14,1.16,1.16,0,0,0-.92.26,1.12,1.12,0,0,1-.86.3.2.2,0,0,1-.15-.23.19.19,0,0,1,.23-.15c.16,0,.35-.09.53-.21a1.58,1.58,0,0,1,1.26-.35.61.61,0,0,1,.47.42.72.72,0,0,1,0,.25.56.56,0,0,0,0,.13c0,.06.14.09.29.09h.27a.2.2,0,0,1,.21.17.19.19,0,0,1-.17.21Z"/><path class="cls-53" d="M121.62,226.66h0a.57.57,0,0,1-.44-.44,1.42,1.42,0,0,1,0-.51,1.79,1.79,0,0,1,.17-.56.71.71,0,0,1,.57-.39.18.18,0,0,1,.19.18.18.18,0,0,1-.18.2.37.37,0,0,0-.25.19,1.65,1.65,0,0,0-.12.44.91.91,0,0,0,0,.36c0,.07.07.14.12.15a.19.19,0,0,1,.16.21A.19.19,0,0,1,121.62,226.66Z"/><path class="cls-30" d="M207.12,221.69c.12.15.3.25.41.4a1.1,1.1,0,0,1-.26,1.25,2.72,2.72,0,0,0-.77,1.12,1.6,1.6,0,0,0,.9,1.52,1.83,1.83,0,0,0,.83.31c.86.07,1.69-.77,2.49-.45a4.18,4.18,0,0,1,.63.4,3.06,3.06,0,0,0,1.46.35c1.1.07,2.4-.05,3-1a1.71,1.71,0,0,0-.84-2.37,10,10,0,0,0-1.44-.22c-.48-.11-1-.47-1-1a4.54,4.54,0,0,1,.18-.63c.28-1.29-2-2.14-3-2.16S206.12,220.42,207.12,221.69Z"/><path class="cls-53" d="M207.28,225.9a.18.18,0,0,1-.16-.1.81.81,0,0,1,0-.68,1.25,1.25,0,0,1,.73-.71,2.89,2.89,0,0,1,1-.12,3.17,3.17,0,0,0,.44,0c.72-.05,1.49-.53,1.53-1.23a2.74,2.74,0,0,0,0-.4,1.18,1.18,0,0,1,.23-1,1,1,0,0,1,.45-.24,3.23,3.23,0,0,1,1.07-.11.19.19,0,0,1,.17.21.2.2,0,0,1-.2.18,2.63,2.63,0,0,0-.93.09.61.61,0,0,0-.3.15c-.16.15-.14.42-.12.72a2.47,2.47,0,0,1,0,.47,1.92,1.92,0,0,1-1.88,1.59h-.47a2.56,2.56,0,0,0-.89.1.83.83,0,0,0-.49.48.41.41,0,0,0,0,.36.2.2,0,0,1-.08.26Z"/><path class="cls-53" d="M212.59,224.59a2.92,2.92,0,0,1-1.06-.22l-.07,0a2.29,2.29,0,0,0-.28-.09,1.67,1.67,0,0,0-.66.06.19.19,0,0,1-.22-.15.19.19,0,0,1,.14-.23,2.18,2.18,0,0,1,.81-.06,2.89,2.89,0,0,1,.35.11l.06,0a2.06,2.06,0,0,0,1.37.13.93.93,0,0,0,.67-.95.19.19,0,1,1,.37-.06,1.31,1.31,0,0,1-.93,1.38A1.92,1.92,0,0,1,212.59,224.59Z"/><path class="cls-53" d="M210.87,223.68h-.08a1.78,1.78,0,0,1-1-1.18,1.83,1.83,0,0,1,.28-1.52,2.45,2.45,0,0,1,.29-.35l.25-.29a.78.78,0,0,0,.16-.62.19.19,0,0,1,.12-.24.2.2,0,0,1,.24.12,1.08,1.08,0,0,1-.22,1c-.08.12-.18.22-.27.33a2.61,2.61,0,0,0-.27.31,1.51,1.51,0,0,0-.22,1.2,1.41,1.41,0,0,0,.78.92.2.2,0,0,1,.1.26A.18.18,0,0,1,210.87,223.68Z"/><path class="cls-30" d="M142.63,233.85a3.69,3.69,0,0,0-1.47.12.7.7,0,0,0-.34.15c-.24.24,0,.65-.11,1s-.65.57-1,.86a1.22,1.22,0,0,0-.27,1.49c.1.17.24.31.32.48s.09.31.16.46a1,1,0,0,0,.87.57,1.41,1.41,0,0,0,1-.37c.3-.26.63-.66,1-.5.17.07.26.24.38.38a1.33,1.33,0,0,0,1,.5,1.68,1.68,0,0,0,1.57-1.66,2.82,2.82,0,0,0-1.12-2.18A5.73,5.73,0,0,0,142.63,233.85Z"/><path class="cls-53" d="M142.06,238.55a.16.16,0,0,1-.13-.06.18.18,0,0,1,0-.27,1.4,1.4,0,0,0,.32-1,4.56,4.56,0,0,0-.09-.8l-.06-.37a.73.73,0,0,1,0-.33.71.71,0,0,1,.24-.39,1.06,1.06,0,0,1,.8-.23,1.94,1.94,0,0,1,.67.3,1.24,1.24,0,0,0,.58.24c.14,0,.31-.08.33-.21a.2.2,0,0,1,.22-.16.2.2,0,0,1,.15.23.67.67,0,0,1-.71.52,1.58,1.58,0,0,1-.74-.27,1.67,1.67,0,0,0-.56-.27.63.63,0,0,0-.49.15.3.3,0,0,0-.12.17.45.45,0,0,0,0,.2l.06.36a4.82,4.82,0,0,1,.1.86,1.73,1.73,0,0,1-.43,1.25A.2.2,0,0,1,142.06,238.55Z"/><path class="cls-53" d="M144.55,238.57a1,1,0,0,1-1-1.3,1.81,1.81,0,0,1,.23-.51,2.25,2.25,0,0,0,.12-.21c.08-.16.14-.39,0-.52a.13.13,0,0,0-.11-.06.18.18,0,0,0-.09.14l0,.07a1.08,1.08,0,0,1-1.25.75.19.19,0,0,1-.14-.23.18.18,0,0,1,.22-.15.72.72,0,0,0,.81-.47V236a.69.69,0,0,1,.16-.32.4.4,0,0,1,.33-.12.6.6,0,0,1,.39.22.91.91,0,0,1,0,.93l-.13.23a2.13,2.13,0,0,0-.2.4.7.7,0,0,0,.38.77.68.68,0,0,0,.81-.25.18.18,0,0,1,.26-.06.19.19,0,0,1,.06.26A1.05,1.05,0,0,1,144.55,238.57Z"/><path class="cls-31" d="M139.61,142.86s-.88-6.84,2.72-8.82,5.62-1.51,5.82-1.2-4.67,2.3-4.67,2.3,5.62-1.7,5.47-.7-4.67,2.23-4.67,2.23,3.92-.54,4.2-.17-4.25,2.39-4.25,2.39l.21,4.31A47.26,47.26,0,0,0,139.61,142.86Z"/><ellipse class="cls-25" cx="155.99" cy="128.98" rx="0.97" ry="0.98"/><ellipse class="cls-25" cx="164.38" cy="128.58" rx="0.97" ry="0.98"/></g><g class="cls-54"><path class="cls-25" d="M221.69,120.82a15,15,0,0,0-1.27,3.36,7.94,7.94,0,0,0,0,4.87,3.5,3.5,0,0,0,3.86,2.29,1,1,0,0,0,.45-.24c.3-.3.21-.8.18-1.23-.12-1.54.79-2.93,1.39-4.35a11.29,11.29,0,0,0,.88-4.37,5.27,5.27,0,0,0-.46-2.36,2.51,2.51,0,0,0-1.81-1.44,4.27,4.27,0,0,0-1.51,0c-.5.18-.36.26-.49.8A11.28,11.28,0,0,1,221.69,120.82Z"/><path class="cls-25" d="M222.14,130.83a51.69,51.69,0,0,0-.82,6.33,9.76,9.76,0,0,0,1.55,6.08c1.67,2.31,4.62,3.34,7.44,3.46a11.23,11.23,0,0,0,6.25-1.44c2.28-1.38,3.82-3.74,5.94-5.36,2.56-1.94,5.78-2.71,8.93-3.25a9.39,9.39,0,0,0,4.5-1.54,7.2,7.2,0,0,0,2.21-5.13,10.45,10.45,0,0,0-.35-3.86,12,12,0,0,0-4.61-5.74c-2-1.51-4.65-2.71-6.22-4.75-.44-.58-.78-1.24-1.17-1.86a12.73,12.73,0,0,0-5.52-4.78c-3.89-1.73-8.29-1.11-12.14.4-1.85.73-3.89,1.53-5.12,3.19-1.58,2.15-1.08,5-.74,7.51a42.44,42.44,0,0,1,.27,6.67A28.92,28.92,0,0,1,222.14,130.83Z"/><path class="cls-35" d="M270,170.29h-47.4s.11-9.7,1.64-16,3.62-8.32,3.62-8.32l.71-.57c3.69-3,21-16.14,30.89-11.66a8.29,8.29,0,0,1,2.09,1.37C270.41,142.88,270,170.29,270,170.29Z"/><path class="cls-35" d="M251.23,145.47c-4.35,3.26-13.41,5.88-13.41,5.88,3.06,11.54,15.59,18.94,15.59,18.94H250a23.08,23.08,0,0,1-4.45-2.73c-3.65-2.72-7.1-12.07-7.1-12.07s-.34,5.22-1.36,7.28-2.54,1.69-2.54,1.69.82,3-.48,3.36a1.6,1.6,0,0,1-1.84-.86l-1.07.34c-.54,1.35-.85,1.12-.85,1.12v1.87h-7.75s.11-9.7,1.64-16,3.62-8.32,3.62-8.32l.71-.57c3.69-3,21-16.14,30.89-11.66a8.29,8.29,0,0,1,2.09,1.37S255.57,142.21,251.23,145.47Z"/><path class="cls-55" d="M228.26,170.29h-5.71s.11-9.7,1.64-16,3.62-8.32,3.62-8.32l.71-.57a6.16,6.16,0,0,1,3.39-.08Z"/><path class="cls-56" d="M231.7,164.05s-1.1,2.26-.55,3.25a1.27,1.27,0,0,0,2.22,0c.29-.72-.41-3.3-.41-3.3Z"/><path class="cls-56" d="M227.93,164.05s-1.1,2.26-.55,3.25a1.28,1.28,0,0,0,2.23,0c.28-.72-.42-3.3-.42-3.3Z"/><path class="cls-56" d="M224.16,162.83s-1.1,2.26-.55,3.25a1.28,1.28,0,0,0,2.23,0c.28-.73-.42-3.31-.42-3.31Z"/><path class="cls-49" d="M238.61,147.85a104.53,104.53,0,0,0-2.26,12.4c-.28,4.19-4.92,4.42-8,4.3q-.84,0-1.59-.12a4.25,4.25,0,0,1-3.71-4.63c.37-4.08,1.41-10.37,4.35-13.39Z"/><path class="cls-48" d="M249.31,120.38a1.83,1.83,0,0,1-1.67,1.88,16.54,16.54,0,0,1,0,6.58,11.42,11.42,0,0,1-1.74,4.12,28.67,28.67,0,0,1-6.54,6.23c-.17.06-7.81.17-10.58-3.44-2.46-3.22-2.65-6.62-4.57-11.21h0l0-.1a22.51,22.51,0,0,1-1.48-7.08s12.17-1.29,15.45-2.93,5.31,5.46,7,5.11c1.27-.25.44-.5.71-2.83a1.41,1.41,0,0,1,2.66-.49A9.24,9.24,0,0,1,249.31,120.38Z"/><path class="cls-49" d="M247.64,122.26a16.57,16.57,0,0,1,.2,5.38,3.11,3.11,0,0,1-1,1.91l-6.41,5.76c.39-.38,6.76-6.54,6.8-10s0-4,0-4a1.42,1.42,0,0,0,2.08-.94A1.83,1.83,0,0,1,247.64,122.26Z"/><path class="cls-31" d="M229.17,136.21s2.62,3.8,10.12-.52,8.78-10.39,8.78-10.39a4.38,4.38,0,0,1,3.89,2.18c1.53,2.41,1.59,3,1.59,3a8.19,8.19,0,0,1,5.54,2.68c2.37,2.65-4.53,10.4-18,14.93-9.64,3.25-13,.56-13.46-.8a4,4,0,0,1,1.6-4.75S227.14,140.23,229.17,136.21Z"/><path class="cls-25" d="M233.86,131.29s.42-1,2.34-.9,1.34.92.92,1.17-2.39,1.13-2.94.95S233.56,131.9,233.86,131.29Z"/><path class="cls-48" d="M241.67,140.14c-.11,1.88-2.34,5.85-5.26,5.93a4.81,4.81,0,0,1-4.08-1.56c0,.05.12.38-.77.6s-2.58-1-3.21-2.32.24-3.19.24-3.19a2.71,2.71,0,0,1,1.38-2.8h0c0-.15.65-2.85,4.28-1.92s7.31,5.13,7.42,5.26Z"/><path class="cls-49" d="M252.64,130.93l-9.16,7.51S251.68,137.18,252.64,130.93Z"/><path class="cls-34" d="M236.65,145.15a1.11,1.11,0,0,0-.14,1.41,6.22,6.22,0,0,1,1,2.84c.8,7.35,9.26,19.61,20,22.42,14.63,3.82,10.53-22.68,10.53-22.68s-3.07-15.87-8.57-15.41c-5,.42-4.38,21-4.38,21s-6.07-10.83-10.1-12.09c-.56-.18-1.36-1.21-1.94-2.06a1.09,1.09,0,0,0-1.68-.16Z"/><path class="cls-55" d="M255,154.76l6.55,6.63A7,7,0,0,0,255,154.76Z"/><path class="cls-57" d="M225.21,136.08s-3.17-1-3.24.26S225.21,136.08,225.21,136.08Z"/><path class="cls-57" d="M226.75,136.55s-2.49,1.15-1.84,2.22S226.68,138.16,226.75,136.55Z"/><path class="cls-25" d="M228.91,140.09h2.44S229.71,139.23,228.91,140.09Z"/><path class="cls-25" d="M229.67,137.9l2.32.17A1.91,1.91,0,0,0,229.67,137.9Z"/><path class="cls-25" d="M232.17,144.18a8.12,8.12,0,0,1-2.68-2.62A10.14,10.14,0,0,1,232.17,144.18Z"/><path class="cls-25" d="M230.62,142.77l-1.26.1S230.3,143.44,230.62,142.77Z"/><path class="cls-25" d="M230.62,136.61l2.28-.48A1.89,1.89,0,0,0,230.62,136.61Z"/><path class="cls-49" d="M241.67,140.14l-.5.44c-5.12-5.17-6.86-5.35-8.61-5.42A3,3,0,0,0,230,136.8c0-.15.65-2.85,4.28-1.92s7.31,5.13,7.42,5.26Z"/><path class="cls-25" d="M248.29,117.68c.05-.09-.06-.21-.15-.15a2.66,2.66,0,0,0-.53.63,15.33,15.33,0,0,1,.14-1.79,3.36,3.36,0,0,0-.55,2.22c0,1.68.53,2,.73,1.87a1.06,1.06,0,0,0-.13-1.3.37.37,0,0,1-.12-.22,1.49,1.49,0,0,1,.08-.4A5.85,5.85,0,0,1,248.29,117.68Z"/><path class="cls-31" d="M234.54,151.12l-2.63,11.14S230.07,155,234.54,151.12Z"/><path class="cls-35" d="M243.48,143.09l-4.87,4.76S243.68,146.54,243.48,143.09Z"/><path class="cls-35" d="M237.17,145.47s.64,1.28,1.44,1.44-.76-1.65-1.07-1.93S236.93,145.06,237.17,145.47Z"/><path class="cls-35" d="M240.74,144.9c.81.15-.76-1.65-1.07-1.93s-.61.08-.37.49"/><path class="cls-35" d="M241.51,141.65s.63,1.28,1.44,1.43-.77-1.64-1.07-1.92S241.27,141.24,241.51,141.65Z"/><path class="cls-57" d="M226.53,134.21s-1.79-2.1-2.62-1.17S225,134.59,226.53,134.21Z"/><path class="cls-30" d="M244.72,123.92s-.71,1.21-.14,1.47S245.15,124.61,244.72,123.92Z"/><path class="cls-30" d="M224.63,121.9s-.71,1.22-.14,1.48S225.06,122.6,224.63,121.9Z"/><path class="cls-30" d="M242.33,119.62s-.72,1.21-.14,1.47S242.75,120.31,242.33,119.62Z"/><path class="cls-30" d="M230.85,121.26s-.71,1.21-.13,1.47S231.28,122,230.85,121.26Z"/><path class="cls-30" d="M234.38,123.17s-.71,1.21-.13,1.47S234.81,123.86,234.38,123.17Z"/><ellipse class="cls-25" cx="229.29" cy="126.47" rx="1" ry="1.02"/><path class="cls-25" d="M239,124.47a1,1,0,1,1-1-1A1,1,0,0,1,239,124.47Z"/><path class="cls-34" d="M234.06,128.49c-.43-.16-1.18-.32-1.47-.74-.6-.89.34-.89.68-1a.88.88,0,0,0,.34-.19c.35-.38,0-1-.29-1.36-.06-.07-.17,0-.12.1.22.39.44.85,0,1.21-.14.12-.47.1-.64.19a.71.71,0,0,0-.44.67c.07.84,1.25,1.18,1.9,1.31A.09.09,0,0,0,234.06,128.49Z"/><path class="cls-34" d="M238.72,126.12c-.28-.06-.56,0-.84-.09a7.58,7.58,0,0,1-.8-.28.11.11,0,0,0-.11.18,2.08,2.08,0,0,0,1.75.47C238.85,126.36,238.87,126.15,238.72,126.12Z"/><path class="cls-34" d="M230.83,126.53a6.84,6.84,0,0,1-.42.86,3,3,0,0,1-.75.8.11.11,0,0,0,.11.18,2.11,2.11,0,0,0,1.28-1.78A.12.12,0,0,0,230.83,126.53Z"/><path class="cls-25" d="M240,120.51c-.88.08-1.72.28-2.6.28s-1.73-.19-2.59-.25c-.15,0-.22.23-.08.29a7.72,7.72,0,0,0,5.32.11C240.3,120.86,240.3,120.49,240,120.51Z"/><path class="cls-25" d="M228.74,121.17c-.28.24-.46.57-.72.84a4.51,4.51,0,0,1-1,.8c-.64.38-1.36.58-2,1-.09.06-.06.23.06.22,1.28-.13,3.74-1.26,3.77-2.82C228.83,121.16,228.77,121.15,228.74,121.17Z"/><path class="cls-25" d="M253.14,130.39a17.47,17.47,0,0,1-4.76,4.43c-1.85,1.14-3.88,1.92-5.8,2.9-.17.09-.05.38.13.32a28.29,28.29,0,0,0,6.15-2.95,12.22,12.22,0,0,0,4.49-4.54C253.41,130.43,253.24,130.27,253.14,130.39Z"/><path class="cls-25" d="M253.46,130.54a42.19,42.19,0,0,1-2.27,5,30.4,30.4,0,0,1-3.71,4.37c-.13.14,0,.39.21.28a13.61,13.61,0,0,0,3.79-4.33,12.54,12.54,0,0,0,2.06-5.34A0,0,0,0,0,253.46,130.54Z"/><path class="cls-25" d="M224,123.91s7.1-2.93,6.82-7.67c.05.75,2.06,1.86,2.62,2.2a9.4,9.4,0,0,0,4.8,1.13c2.7,0,5.45.13,7.92,1.36,0,0,.46-6.58-5.83-8.88a35,35,0,0,0-12.83-1.86l-5.08,5S222.49,121.62,224,123.91Z"/><path class="cls-35" d="M259.41,133.73s7.29,1.87,8.14,24.26l1.71-.73S266.63,133.4,259.41,133.73Z"/></g><g class="cls-58"><path class="cls-59" d="M323.11,245.84a1.87,1.87,0,0,1-.18.8c-.39.52-9.79,1.6-10.41.74-.34-.48.65-1,1.73-1.56a7.09,7.09,0,0,0,2.15-1.32c.7-.93.29-1.82,2.3-1.89s4.39-.11,4.39-.11A29.3,29.3,0,0,1,323.11,245.84Z"/><path class="cls-60" d="M323.11,245.84a1.87,1.87,0,0,1-.18.8c-.39.52-9.79,1.6-10.41.74-.34-.48.65-1,1.73-1.56a2.61,2.61,0,0,1,.41,1.21,49.86,49.86,0,0,0,5.74-.41A11.25,11.25,0,0,0,323.11,245.84Z"/><path class="cls-59" d="M349.71,242.26c-.18.65-8.25,4.72-9.1,4.11-.45-.33.19-1.16.94-2.05a8.25,8.25,0,0,0,1.55-2.17c.31-1.17.32-2.26,2.09-3.06a7.26,7.26,0,0,0,2.73-2.17,48.2,48.2,0,0,1,1.71,4.7A1.75,1.75,0,0,1,349.71,242.26Z"/><path class="cls-60" d="M349.71,242.26c-.18.65-8.25,4.72-9.1,4.11-.45-.33.19-1.16.94-2.05a2.56,2.56,0,0,1,.76,1A46,46,0,0,0,347.6,243a12.67,12.67,0,0,0,2-1.38A1.75,1.75,0,0,1,349.71,242.26Z"/><path class="cls-60" d="M339.94,182c-1.31,4-6.48,20.48-4.84,25.54s13.61,27.22,13.37,30.19-3.86,5-6.23,4.71c-1.64-.17-19.13-30.93-20-33.71-1.64-5.24,3-22.21,2-23.08-1.34-1.19-7.53,18.09-8.18,22.45-.31,2.07,9.77,33.86,7.54,35.82s-5.3,1.44-6.94.92-12-32.58-11.84-36.24c.32-6.12,4.79-21.05,9.21-30.31,1.38-2.87,2.25-8.3,2.6-8.64,1.14-1.07,15-2.28,21.71,0C340.38,170.38,341.25,178,339.94,182Z"/><path class="cls-61" d="M303.42,132.54c-.83.12-.74,1.37-.63,2s4,2.07,4.4,2,1.44-1.46,1.22-1.86C308,133.88,303.87,132.47,303.42,132.54Z"/><path class="cls-34" d="M321.45,141.28c1,2.31-.24,5-4.11,7.4-3.08,1.93-12.37,13.58-19,7.31s1.87-21.29,3.75-22.05,5.52,1.1,6.19,2.51S303.71,148,304.81,148c1.93-1.55,5.38-4.23,8.85-6.51C316.61,139.53,320.46,139,321.45,141.28Z"/><path class="cls-61" d="M315.32,172s-1.12,2.59-.38,3.41,4.62,1.74,12.74,1.83c7.69.08,12-1.56,12.86-2.31s-.39-3.54-.39-3.54Z"/><path class="cls-34" d="M341.91,168.93a7,7,0,0,1-.23,1.64c-.12.29-.19.64-.31,1a3.87,3.87,0,0,1-.68,1.32c-.81,1-2.5,2-6.45,2.71-7.27,1.24-17.05-.22-18.48-1.09a6.33,6.33,0,0,1-1-.74,3.69,3.69,0,0,1-1.21-2.09,5,5,0,0,1,.1-2.06,20.77,20.77,0,0,1,1.41-3.76c.26-.58.53-1.18.78-1.8a18.09,18.09,0,0,0,1.29-4.16,11.35,11.35,0,0,0,.14-1.43v-.36a39.17,39.17,0,0,0-.23-4.39c-.06-.63-.13-1.26-.2-1.88-.14-1.28-.29-2.55-.4-3.76-.06-.64-.11-1.26-.13-1.86a17.14,17.14,0,0,1,.15-3.73,6.56,6.56,0,0,1,.56-1.77,4.26,4.26,0,0,1,.73-1c3.1-3.18,16.43-2.59,19.67.14a.47.47,0,0,1,.1.1,5.46,5.46,0,0,1,1.16,1.86,23.46,23.46,0,0,1,1.2,3.95c.16.7.31,1.43.45,2.2.21,1.14.4,2.35.57,3.58.09.67.17,1.35.25,2,.14,1.2.26,2.41.36,3.6.06.74.12,1.46.17,2.17.08,1.12.14,2.2.18,3.23,0,.84.07,1.64.08,2.39C342,166.56,342,167.93,341.91,168.93Z"/><g class="cls-62"><path class="cls-35" d="M341.91,168.93a7,7,0,0,1-.23,1.64c-.12.29-.19.64-.31,1l-1,.24c-.47.12-.94.22-1.39.32a52.82,52.82,0,0,1-11.06,1.32,51.12,51.12,0,0,1-11.37-1.12l-1.23-.26-1.73-.39a5,5,0,0,1,.1-2.06c1.53.36,3.07.61,4.48.84a51.36,51.36,0,0,0,10.51.67,52.44,52.44,0,0,0,10.72-1.5C340.21,169.43,341.06,169.19,341.91,168.93Z"/><path class="cls-35" d="M341.94,165c-1,.32-2,.61-3,.87a47.62,47.62,0,0,1-9.78,1.51,45.48,45.48,0,0,1-14.08-1.46c.26-.58.53-1.18.78-1.8a47.63,47.63,0,0,0,13.22,1.14,46.09,46.09,0,0,0,9.75-1.62c1-.29,2.05-.65,3.05-1C341.9,163.4,341.93,164.2,341.94,165Z"/><path class="cls-35" d="M341.68,159.33c-1,.24-2,.44-3,.64a57.14,57.14,0,0,1-8.36,1,53.66,53.66,0,0,1-13.2-1.07,11.35,11.35,0,0,0,.14-1.43v-.36A56.26,56.26,0,0,0,330,159a54.5,54.5,0,0,0,8.14-1c1.13-.23,2.23-.53,3.34-.86C341.57,157.9,341.63,158.62,341.68,159.33Z"/><path class="cls-35" d="M341.15,153.56l-1.43.34a49.29,49.29,0,0,1-9.05,1.25A46.38,46.38,0,0,1,317,153.73c-.06-.63-.13-1.26-.2-1.88a47.52,47.52,0,0,0,13.55,1.36A46.73,46.73,0,0,0,339.2,152c.57-.14,1.13-.29,1.7-.45C341,152.2,341.07,152.88,341.15,153.56Z"/><path class="cls-35" d="M340.33,148a78,78,0,0,1-9.18,1,65.89,65.89,0,0,1-14.71-.83c-.06-.64-.11-1.26-.13-1.86a73.93,73.93,0,0,0,14.57.64,69.81,69.81,0,0,0,9-1.12C340,146.45,340.19,147.18,340.33,148Z"/><path class="cls-35" d="M338.68,141.8a60.42,60.42,0,0,1-8.34,1.27,57,57,0,0,1-13.88-.57,6.56,6.56,0,0,1,.56-1.77,60.31,60.31,0,0,0,13,.34,58,58,0,0,0,7.55-1.13A5.46,5.46,0,0,1,338.68,141.8Z"/></g><path class="cls-63" d="M328,139.45a5.89,5.89,0,0,1-2.65,1.1c-2,.37-1.91-.63-1.91-.63l-.33-2.4-.49-3.51,4.79-.68.41,2.95.37,2.7A.5.5,0,0,1,328,139.45Z"/><path class="cls-64" d="M327.84,136.28a9.33,9.33,0,0,1-1.57.66,15.23,15.23,0,0,1-2.1.49,6.09,6.09,0,0,1-1,.09l-.49-3.51,4.79-.68Z"/><path class="cls-25" d="M316.65,112.93c-2.36-3.3-5.74.7-4.12,3.12-2.69,2.12.32,5.36,1.54,5.45C314.29,120.17,316.79,115.76,316.65,112.93Z"/><path class="cls-48" d="M313.19,123.26c-1.55,7.92,2.1,13.82,10.78,13.06s10.59-7.52,11.86-14.39-3.05-13.42-10.32-13.44C317.09,108.46,313.91,113.59,313.19,123.26Z"/><path class="cls-30" d="M329.67,122.45s-1,1.49,0,1.53S329.67,122.45,329.67,122.45Z"/><path class="cls-30" d="M330.77,124.42s-1.4,2,0,2.09S330.77,124.42,330.77,124.42Z"/><path class="cls-25" d="M334.65,108.44c-1.65-.75-3.84-.11-5.81-.31a3.81,3.81,0,0,0-1.68-1.45,2.71,2.71,0,0,0-2.7.37,2.61,2.61,0,0,0-.34.32,7.74,7.74,0,0,0-1-2.65,4.67,4.67,0,0,0-3.35-2.25,3.34,3.34,0,0,0-3.37,1.71A3.9,3.9,0,0,0,316,106a1.62,1.62,0,0,0-.44-.07,2.5,2.5,0,0,0-2.32,1.91,4.31,4.31,0,0,0,.52,3.25,4.83,4.83,0,0,0,1,1.28,4.44,4.44,0,0,0,1.29.73.05.05,0,0,0,.07,0c2.25,1.16,4.71-.52,4.71-.52a5.42,5.42,0,0,0,3.33,2.28,6.35,6.35,0,0,0,2.46.14.58.58,0,0,0,0,.14,3.6,3.6,0,0,0,1.64,2.12,1.88,1.88,0,0,0-.39.69,2.66,2.66,0,0,0,1,2.34,7.73,7.73,0,0,0,2.8,1.24s-.29,3.9.86,4.67c.43.29.68-1.59,1.52-2.13,1.33-.88,3.25-.72,4.2-2.51C340.48,117.34,340,110.88,334.65,108.44Z"/><path class="cls-48" d="M333.53,128.07c.36,1.05,2.06,1.43,3.42.49s2.37-3.81,1.35-5.36-3.43-.87-4.35,1A5.8,5.8,0,0,0,333.53,128.07Z"/><path class="cls-25" d="M337.42,124.3a.1.1,0,0,0-.05-.17,1.34,1.34,0,0,0-.95.29,3.44,3.44,0,0,0-.8.67,3.09,3.09,0,0,0-.75,2,.12.12,0,0,0,.24,0,3.86,3.86,0,0,1,.8-1.74,1.62,1.62,0,0,1,.19-.18l.08.09.14.16a3.27,3.27,0,0,1,.25.36c.15.25.24.54.41.78,0,0,.13,0,.14,0a1.43,1.43,0,0,0-.27-.93,3.69,3.69,0,0,0-.29-.4l-.17-.17-.08-.06a2.37,2.37,0,0,1,.3-.23A4.54,4.54,0,0,0,337.42,124.3Z"/><path class="cls-25" d="M321.25,129.53a2.73,2.73,0,0,0-1.74-.65,2.15,2.15,0,0,0-2.09,1.14.36.36,0,0,0,0-.11,3.74,3.74,0,0,0-.69-1.23s-.08,0-.06,0a8.86,8.86,0,0,1,.5,1.42c.09.35,0,.76.27,1,0,.05.12,0,.14,0a.77.77,0,0,0,.08-.37c.3.23.56.15,1.19.09a3.13,3.13,0,0,1,.46,0c.93,0,1.54.88,2.39.18C322.06,130.73,321.84,130.05,321.25,129.53Z"/><path class="cls-31" d="M321.66,131.05c-.85.7-1.46-.22-2.39-.18a3.13,3.13,0,0,0-.46,0,2.54,2.54,0,0,1,.83-1,2.47,2.47,0,0,1,1.61-.39C321.84,130.05,322.06,130.73,321.66,131.05Z"/><path class="cls-25" d="M326.81,125.42a3.68,3.68,0,0,0-.4-.39,3.9,3.9,0,0,0-1-.63,1.84,1.84,0,0,0-1.11-.12.7.7,0,0,0-.55.8c0,.13.21.09.22,0,0-.37.44-.46.73-.43a2,2,0,0,1,.85.28,4.23,4.23,0,0,1,.72.54c.21.2.43.5.71.58a.11.11,0,0,0,.13-.12A1.13,1.13,0,0,0,326.81,125.42Z"/><path class="cls-25" d="M317.37,124.5a3,3,0,0,0-.33-.38,2.62,2.62,0,0,0-.85-.58,1.06,1.06,0,0,0-1,0,.66.66,0,0,0-.22.81.11.11,0,0,0,.2-.09.44.44,0,0,1,.33-.52,1.08,1.08,0,0,1,.79.19,2.48,2.48,0,0,1,.59.48,2.34,2.34,0,0,1,.24.31.9.9,0,0,0,.28.3.11.11,0,0,0,.15-.09A.67.67,0,0,0,317.37,124.5Z"/><path class="cls-65" d="M323,124.48a2.49,2.49,0,0,0,.94,3.08,3.07,3.07,0,0,0,3.83-.59S323.51,126.56,323,124.48Z"/><path class="cls-65" d="M317.73,125.26a3,3,0,0,1-1.91,2.06c-1.51.41-1.46-1.63-1.19-2.15C314.81,125.79,316.35,126.28,317.73,125.26Z"/><path class="cls-25" d="M319.72,121.45a.06.06,0,0,0-.11,0,4.6,4.6,0,0,0-.11,1.17c0,.42,0,.84,0,1.25,0,.78,0,1.56,0,2.33a1.7,1.7,0,0,0-1.84.45.88.88,0,0,0,.34,1.36c.06,0,.11-.09,0-.12a.72.72,0,0,1-.07-1.21,1.8,1.8,0,0,1,1.63-.15.15.15,0,0,0,.19-.15l.06-2.51c0-.41,0-.83,0-1.25A4.58,4.58,0,0,0,319.72,121.45Z"/><path class="cls-31" d="M318,127.89a.72.72,0,0,1-.07-1.21,1.8,1.8,0,0,1,1.63-.15.15.15,0,0,0,.19-.15l.06-2.51c0-.41,0-.83,0-1.25a21,21,0,0,1,.32,4.27C319.91,128.1,318.57,128,318,127.89Z"/><path class="cls-31" d="M317.18,137.28c.85,1.17-1.37,2.25-.41,3.3,4.94,3.19,16.28,1,18.69-2.14,1.08-1.16.68-2-1.18-2.61-.83-1.81-.57-2.66-2.88-2.18C322,137.38,316.32,134,317.18,137.28Z"/><path class="cls-49" d="M325.73,134.18a2.44,2.44,0,0,0-1.34.61,1.74,1.74,0,0,0-.28,1.51,9,9,0,0,0,.59,1.48,12.56,12.56,0,0,1,.7,6.27c-.21,2.12-.68,4.2-.87,6.32a23.55,23.55,0,0,0,.61,7.85,4.3,4.3,0,0,0,1.54,2.7,4.5,4.5,0,0,0,2.05.54l3,.29a1.41,1.41,0,0,0,.68-.05,1,1,0,0,0,.52-1,3.92,3.92,0,0,0-.44-1.18,19,19,0,0,1-1.59-8.65c0-3,.38-5.92.29-8.88A18.23,18.23,0,0,0,330,135.4c-.28-.69-.59-1.51-1.38-1.69A7.83,7.83,0,0,0,325.73,134.18Z"/><path class="cls-48" d="M317.43,148c-1-.7-1.57-.35-2.49-.29s-.85-.63.29-1.08a4.73,4.73,0,0,1,2.53,0c-1.35-.74-2.7.17-3.28-.19-.25-.15-.1-.7.55-1a5.89,5.89,0,0,1,3.37-.38c-1.09-.65-2.28.12-2.89,0-.42-.09-.12-.46.39-.76a4.73,4.73,0,0,1,3.33-.54c1.4.26,2.73,2.29,4.31,4.67.47.7.89,1,.57,2.07a3.24,3.24,0,0,1-2.14,2.14c-.91.06-2.35-1-3.47-2.26a4.24,4.24,0,0,0-3-1.64c-.9-.12-1-.58-.52-.76A4.84,4.84,0,0,1,317.43,148Z"/><path class="cls-35" d="M320.31,152.41c-.22.83.94,1.25,1.53,1.4s3.51-2.91,3.56-3.28-.72-1.93-1.17-1.89C323.38,148.72,320.43,152,320.31,152.41Z"/><path class="cls-34" d="M335.52,139.27c2.47,0,4.38,2.24,5,6.81.48,3.64,7.2,17-1.15,20.58S321,156.27,321,154.22s3.23-4.68,4.77-4.72,8.55,8.94,9,7.9c-.61-2.41-1.62-6.7-2.26-10.84C332,143,333.05,139.24,335.52,139.27Z"/><path class="cls-66" d="M292.58,136.87a10,10,0,0,1,2.17-2.09,18.33,18.33,0,0,1,2.81-1.71l.83-.38c.14-.66.18-1.12.19-1.14s-4.51,1.22-6.18,1.85-1.84,1.6-1.84,1.6a2.14,2.14,0,0,0,1.19,2.52.38.38,0,0,0,.5-.14Q292.4,137.13,292.58,136.87Z"/><path class="cls-30" d="M307.18,128.49a19.41,19.41,0,0,1,5.22,0c.85.15,1.83.52,2,1.38s-.52,1.63-1.17,2.21c-2.87,2.57-5.9,5.2-7.43,8.77-.61,1.42-.95,2.94-1.5,4.38a7.63,7.63,0,0,1-2.64,3.71,2.55,2.55,0,0,1-3.14,0c-1.14-1.16-.21-3.28-1-4.7a2.81,2.81,0,0,0-2.21-1.29,8.67,8.67,0,0,0-2.62.28,4.18,4.18,0,0,1-1.57.11,1.47,1.47,0,0,1-1.18-.95c-.22-.74.34-1.46.86-2l2.81-3a2.79,2.79,0,0,0,1.05-2.25,1.84,1.84,0,0,0-1.79-1.3,3.4,3.4,0,0,0-2.35,1.17c.11-.71,1.42-1.77,2-2.06,1.11-.59,2.24-1.13,3.4-1.61a40,40,0,0,1,7.17-2.24A40.87,40.87,0,0,1,307.18,128.49Z"/><path class="cls-66" d="M310.77,131.18c-.15-.58-6.73,1.79-10.39,3.82s-7.72,5.57-7.26,6,4-4.16,8.93-5.91c.66-.23.93.24,0,1.05s.17.64,2.5-1.12S310.87,131.55,310.77,131.18Z"/><path class="cls-48" d="M305.53,131.87a8.94,8.94,0,0,1-.27-2.33c0,.43-.07.76-.07,1.18s.14,1.25-.25,1.27-.81-.47-1.09-1.19a5.49,5.49,0,0,1-.36-1.89,1.05,1.05,0,0,1,.86-1.08,11.76,11.76,0,0,1,3.73-.27c1.35.15,1.37.69,1.65,1.33.36.8-.35,2.38-1,2.41s.05-1.15-.39-2.07c.32.68-.25,2.54-1,2.74-.39.11-.42-.3-.4-.52a4.11,4.11,0,0,0,0-1.94,5.23,5.23,0,0,1-.48,2.44A.57.57,0,0,1,305.53,131.87Z"/><path class="cls-25" d="M318.74,119.52a7.09,7.09,0,0,1-1.75,1.23c-.66.3-1.38.46-2,.75a.09.09,0,0,0,0,.17,5.52,5.52,0,0,0,4-1.93C319.15,119.56,318.89,119.38,318.74,119.52Z"/><path class="cls-25" d="M327.61,123c-.67-.29-1.39-.42-2-.75a7.19,7.19,0,0,1-1.48-1.21.14.14,0,0,0-.23.14c.34,1.42,2.4,2.13,3.66,2.19C327.7,123.36,327.79,123.07,327.61,123Z"/><path class="cls-25" d="M317.44,125.53a6,6,0,0,0-.68.22c-.23.06-.46.1-.7.14a.07.07,0,0,0,0,.14,3,3,0,0,0,1.44-.31C317.62,125.66,317.55,125.52,317.44,125.53Z"/><path class="cls-25" d="M324.18,126.41a3.07,3.07,0,0,1-.36-.27,1.15,1.15,0,0,1-.24-.4c0-.09-.17-.08-.16,0,0,.36.28.82.68.85A.12.12,0,0,0,324.18,126.41Z"/><path class="cls-25" d="M322.32,129.13c-1.13.67-.83,2.2-.36,3.18,0,.07.12,0,.11,0-.25-1.07-.55-2.16.36-3C322.5,129.21,322.4,129.08,322.32,129.13Z"/></g></g></g></g></svg>