<svg xmlns="http://www.w3.org/2000/svg" viewBox="0 0 500.36 100.27"><defs><style>.cls-1{isolation:isolate;}.cls-2{fill:#f67280;}.cls-3{fill:#f8b163;}.cls-19,.cls-4{font-size:9px;}.cls-19,.cls-20,.cls-4{fill:#fff;}.cls-4{font-family:Raleway-Bold, Raleway;font-weight:700;}.cls-5{letter-spacing:-0.07em;}.cls-6{letter-spacing:-0.03em;}.cls-7{letter-spacing:0em;}.cls-8{letter-spacing:-0.06em;}.cls-20,.cls-9{font-size:4px;}.cls-21,.cls-22,.cls-9{fill:#373b63;}.cls-9{font-family:SourceHanSansTW-Regular-B5pc-H, Source Han Sans TW;}.cls-10{letter-spacing:-0.02em;}.cls-11{letter-spacing:-0.25em;}.cls-12{letter-spacing:-0.01em;}.cls-13{letter-spacing:-0.02em;}.cls-14{letter-spacing:-0.02em;}.cls-15{letter-spacing:-0.02em;}.cls-16{letter-spacing:-0.02em;}.cls-17{letter-spacing:0.02em;}.cls-18{letter-spacing:-0.07em;}.cls-19{font-family:SourceHanSansTW-Bold-B5pc-H, Source Han Sans TW;}.cls-20{font-family:SourceHanSansTW-Light-B5pc-H, Source Han Sans TW;}.cls-22{mix-blend-mode:multiply;}.cls-23{opacity:0.38;}.cls-24{fill:#2c1e2d;}.cls-25{fill:none;stroke:#373e5e;stroke-linecap:round;stroke-linejoin:round;stroke-width:0.5px;stroke-dasharray:1 2;}</style></defs><title>資產 9</title><g class="cls-1"><g id="圖層_2" data-name="圖層 2"><g id="BACKGROUND"><rect class="cls-2" x="0.36" y="0.91" width="500" height="97.36"/><path class="cls-3" d="M500.36,0V26.66C478.64,25.4,459.1,24,439.77,23c-59.24-3-121.23-4.23-176.1,7.22-27.34,5.7-51.72,14.34-78.15,21A536.54,536.54,0,0,1,87.63,66c-25.7,1.56-53,1.21-77.35-3.63-3-.6-6.73-1.28-10.28-2.15V0Z"/></g><g id="OBJECTS"><text class="cls-4" transform="translate(79.69 18.34)">WH<tspan class="cls-5" x="16.18" y="0">A</tspan><tspan class="cls-6" x="21.6" y="0">T</tspan><tspan class="cls-7" x="26.92" y="0" xml:space="preserve"> IS 2019 nC</tspan><tspan class="cls-8" x="73.45" y="0">o</tspan><tspan class="cls-7" x="78.33" y="0">V?</tspan></text><text class="cls-9" transform="translate(79.69 29.1)">冠狀病毒(C<tspan class="cls-10" x="19.9" y="0">o</tspan><tspan x="22.24" y="0">V)為一群有外套膜之RNA病</tspan><tspan class="cls-11" x="69.75" y="0">毒，</tspan><tspan x="75.75" y="0">外表為圓</tspan><tspan class="cls-11" x="91.75" y="0">形，</tspan><tspan x="97.75" y="0">在電子顯微鏡下可看到</tspan><tspan x="0" y="4.8">類似皇冠的突起因此得</tspan><tspan class="cls-11" x="40" y="4.8">名。</tspan><tspan x="46" y="4.8">可再細分為四個屬: alpha, b</tspan><tspan class="cls-12" x="95.05" y="4.8">e</tspan><tspan class="cls-13" x="97.22" y="4.8">t</tspan><tspan x="98.63" y="4.8">a, </tspan><tspan class="cls-14" x="102.89" y="4.8">g</tspan><tspan x="105.07" y="4.8">amma, and del</tspan><tspan class="cls-15" x="132.91" y="4.8">t</tspan><tspan x="134.33" y="4.8">a</tspan><tspan class="cls-11" x="-1" y="9.6">。</tspan><tspan x="2" y="9.6">已知會感染人類的冠狀病毒包括alpha C</tspan><tspan class="cls-10" x="72.01" y="9.6">o</tspan><tspan x="74.35" y="9.6">V的HC</tspan><tspan class="cls-10" x="86.11" y="9.6">oV</tspan><tspan x="90.67" y="9.6">-229E , HC</tspan><tspan class="cls-10" x="109.43" y="9.6">oV</tspan><tspan x="113.99" y="9.6">-NL63以及</tspan><tspan x="0" y="14.4">b</tspan><tspan class="cls-12" x="2.47" y="14.4">e</tspan><tspan class="cls-13" x="4.64" y="14.4">t</tspan><tspan x="6.06" y="14.4">a C</tspan><tspan class="cls-10" x="11.76" y="14.4">o</tspan><tspan x="14.1" y="14.4">V的HC</tspan><tspan class="cls-10" x="25.86" y="14.4">oV</tspan><tspan x="30.42" y="14.4">-H</tspan><tspan class="cls-16" x="34.72" y="14.4">K</tspan><tspan x="37.24" y="14.4">U1, HC</tspan><tspan class="cls-10" x="49.82" y="14.4">oV</tspan><tspan x="54.37" y="14.4">-OC43, ME</tspan><tspan class="cls-16" x="73.33" y="14.4">R</tspan><tspan class="cls-17" x="75.81" y="14.4">S</tspan><tspan x="78.26" y="14.4">-C</tspan><tspan class="cls-10" x="82.2" y="14.4">o</tspan><tspan class="cls-18" x="84.54" y="14.4">V</tspan><tspan x="86.55" y="14.4">, SA</tspan><tspan class="cls-16" x="93.37" y="14.4">R</tspan><tspan class="cls-17" x="95.85" y="14.4">S</tspan><tspan x="98.3" y="14.4">-C</tspan><tspan class="cls-10" x="102.24" y="14.4">o</tspan><tspan class="cls-18" x="104.58" y="14.4">V</tspan><tspan x="106.59" y="14.4">, 和最新發現的</tspan><tspan x="0" y="19.2">2019-nC</tspan><tspan class="cls-10" x="15.26" y="19.2">o</tspan><tspan class="cls-11" x="17.6" y="19.2">V。</tspan><tspan x="21.9" y="19.2">冠狀病毒是造成人類與動物疾病的重要病原</tspan><tspan class="cls-11" x="97.9" y="19.2">體。</tspan></text><text class="cls-19" transform="translate(81.69 77.17)">傳播途徑?</text><text class="cls-20" transform="translate(81.69 84.4)">大部分的人類冠狀病毒以直接接觸帶有病毒的分泌物或飛沫傳染為<tspan class="cls-11" x="116" y="0">主。</tspan><tspan x="122" y="0">有部分動物的冠狀病毒會讓動物出現腹瀉症</tspan><tspan class="cls-11" x="198" y="0">狀，</tspan><tspan x="204" y="0">可</tspan><tspan x="0" y="4.8">以在糞便當中找到病</tspan><tspan class="cls-11" x="36" y="4.8">毒，</tspan><tspan x="42" y="4.8">可能藉此造成病毒傳</tspan><tspan class="cls-11" x="78" y="4.8">播。</tspan></text><path class="cls-21" d="M331.62,47.27a19.1,19.1,0,0,1-1.12,3.27l3.19,3.55-4.35-1.34h0A21.39,21.39,0,0,1,327.71,55c1.29,1.68,6.1,7.93,6.15,8s-5.91-4.21-8.2-5.86a21.74,21.74,0,0,1-3,2.26l.14,5.54-2.8-4.08a22.81,22.81,0,0,1-4.21,1.48l-.35,3.26-.37,3.55L313.55,65l-.74-2a23.74,23.74,0,0,1-2.54.13h-1l-4.59,7.08L306,62.69a22.87,22.87,0,0,1-3.44-.91l-7.21,8.35,3.52-10a22.7,22.7,0,0,1-2.46-1.62l-4.7,2.09,3-3.48a20.75,20.75,0,0,1-2.36-2.6l-11.69,3.83,9.64-7.13a18.68,18.68,0,0,1-1.2-3.06l-7.06-1,6.5-1.42a17.61,17.61,0,0,1-.22-2.52c-1.15-.88-5-3.57-5-3.57l5.32-.34a18.28,18.28,0,0,1,.76-2.84l-8.72-7.26,10.34,3.77a20.72,20.72,0,0,1,3.17-4.07l-2.56-6.19,6,3.42a22,22,0,0,1,2.73-1.53l-.9-7.38v-.11l.06.09,4.66,6a23,23,0,0,1,3.66-.68L309,17.56l1.69,4.83a22.22,22.22,0,0,1,3.28.28l4.2-6.87-1,7.59.84.27c2.23-1.82,7.43-5.83,7.43-5.83l-3.58,7.59.62.37a23,23,0,0,1,3,2.24L329,26.45l-2.07,3.06a20.94,20.94,0,0,1,2,2.58l10.59-1.64-8.92,4.76a18.87,18.87,0,0,1,.84,2.32h6.7l-6.22,2.23a19.38,19.38,0,0,1,.24,3c0,.25,0,.48,0,.72l6.75,2.88Z"/><path class="cls-21" d="M313.55,65c.66.26,1.31.5,1.94.72l-.37,3.55Z"/><ellipse class="cls-22" cx="305.03" cy="46.88" rx="2.27" ry="2.11"/><path class="cls-22" d="M324.58,43.76a2.28,2.28,0,1,1-2.27-2.11A2.19,2.19,0,0,1,324.58,43.76Z"/><path class="cls-22" d="M314.43,44.35a4.59,4.59,0,0,0-2.4,1.46c-.45.54-1.2,1.77-.41,2.32a1.9,1.9,0,0,0,1.75,0c.78-.33,1.35-1,2.21-1.17s1.46.3,2.18.18a1.14,1.14,0,0,0,.51-2.13A5.16,5.16,0,0,0,314.43,44.35Z"/><path class="cls-22" d="M318.29,43s2.81.68,3.47-2.58"/><path class="cls-22" d="M308.24,45.3s-2.33,1.62-4.27-1.17"/><g class="cls-23"><path class="cls-22" d="M325.38,17.83s-5.2,4-7.43,5.83l-.84-.27,1-7.59L314,22.67a22.22,22.22,0,0,0-3.28-.28L309,17.56l-1.13,4.94a23,23,0,0,0-3.66.68l-4.66-6,0,0,.9,7.38a22,22,0,0,0-2.73,1.53l-6-3.42,2.56,6.19a20.72,20.72,0,0,0-3.17,4.07l-10.34-3.77,8.72,7.26a18.28,18.28,0,0,0-.76,2.84l-5.32.34s3.87,2.69,5,3.57a17.61,17.61,0,0,0,.22,2.52l-6.5,1.42,7.06,1a18.68,18.68,0,0,0,1.2,3.06l-9.64,7.13,11.69-3.83a20.75,20.75,0,0,0,2.36,2.6l-3,3.48,4.7-2.09a22.7,22.7,0,0,0,2.46,1.62l-3.52,10,7.21-8.35a22.87,22.87,0,0,0,3.44.91l-1.34,7.44,4.59-7.08h.1c-7.19-3.73-13.87-10-12.26-20.19a.76.76,0,0,0,.19.12c.5.18,1.21-.39,1.58-1.28s.27-1.76-.23-1.94a1,1,0,0,0-.9.29A17.79,17.79,0,0,1,307,28.74a.68.68,0,0,0-.06.5c.18.69,1.48,1,2.89.66s2.42-1.15,2.24-1.84c-.13-.45-.73-.73-1.53-.78.76-.24,1.52-.44,2.28-.62a4,4,0,0,0,1.47.26c1.11,0,2-.38,2.25-.89a42.77,42.77,0,0,1,5.85-.24l-.62-.37Z"/><path class="cls-22" d="M304.71,31.15c-.67.27-1.08.75-.93,1.08s.82.37,1.49.09,1.08-.76.93-1.08S305.38,30.87,304.71,31.15Z"/><path class="cls-22" d="M314.93,27.59c-.33,0-.61.13-.61.3s.28.3.61.3.62-.14.62-.3S315.27,27.59,314.93,27.59Z"/><path class="cls-22" d="M308.38,30.64c-.32.1-.55.3-.49.46s.35.21.68.11.54-.29.49-.45S308.7,30.55,308.38,30.64Z"/><path class="cls-22" d="M299.94,38.84c-.21.25-.27.53-.13.63s.42,0,.63-.26.28-.53.14-.63S300.15,38.59,299.94,38.84Z"/><path class="cls-22" d="M298.53,43.49c-.14.46,0,.88.22.95s.58-.25.71-.71,0-.88-.22-.95S298.67,43,298.53,43.49Z"/></g><path class="cls-21" d="M352.81,71.72a14,14,0,0,0,.91,2.65l-2.59,2.87,3.52-1.09h0A18.2,18.2,0,0,0,356,78c-1,1.36-4.93,6.4-5,6.49s4.78-3.4,6.63-4.74A17.89,17.89,0,0,0,360,81.59l-.12,4.48,2.27-3.3a18.23,18.23,0,0,0,3.4,1.19l.28,2.64.31,2.87L367.41,86l.6-1.62a20,20,0,0,0,2.05.11h.81l3.71,5.72-1.08-6a19.56,19.56,0,0,0,2.78-.73l5.83,6.74-2.85-8.09a16.67,16.67,0,0,0,2-1.31l3.8,1.69-2.46-2.81a16.38,16.38,0,0,0,1.9-2.1L394,80.67l-7.8-5.76a15.23,15.23,0,0,0,1-2.48l5.7-.82-5.25-1.15a17.18,17.18,0,0,0,.18-2c.92-.71,4.05-2.88,4.05-2.88l-4.3-.28A14.85,14.85,0,0,0,386.9,63L394,57.1l-8.36,3A16.85,16.85,0,0,0,383,56.86l2.07-5-4.83,2.77a17.65,17.65,0,0,0-2.21-1.24l.73-6v-.08l-.06.07L375,52.26a18,18,0,0,0-3-.55l-.92-4-1.36,3.9a19.2,19.2,0,0,0-2.65.22l-3.4-5.54.84,6.13-.67.22c-1.8-1.47-6-4.72-6-4.72l2.9,6.14a5.09,5.09,0,0,0-.5.3,17.43,17.43,0,0,0-2.43,1.81l-2.88-1.28,1.67,2.47A17.33,17.33,0,0,0,355,59.46l-8.56-1.33,7.2,3.85a15,15,0,0,0-.67,1.88h-5.42l5,1.8a15.73,15.73,0,0,0-.19,2.39c0,.2,0,.39,0,.58L346.92,71Z"/><path class="cls-21" d="M367.41,86c-.53.22-1.05.41-1.57.59l.31,2.87Z"/><ellipse class="cls-22" cx="374.3" cy="71.41" rx="1.84" ry="1.71"/><path class="cls-22" d="M358.5,68.89a1.84,1.84,0,1,0,1.83-1.71A1.77,1.77,0,0,0,358.5,68.89Z"/><path class="cls-22" d="M366.7,69.37a3.62,3.62,0,0,1,1.94,1.18c.36.43,1,1.42.33,1.87a1.53,1.53,0,0,1-1.41,0c-.63-.26-1.09-.82-1.79-.94s-1.18.24-1.76.14a.91.91,0,0,1-.41-1.71A4.11,4.11,0,0,1,366.7,69.37Z"/><path class="cls-22" d="M363.58,68.29a2.31,2.31,0,0,1-2.8-2.09"/><path class="cls-22" d="M371.71,70.13s1.88,1.31,3.44-.94"/><g class="cls-23"><path class="cls-22" d="M357.85,47.93s4.21,3.25,6,4.72l.67-.22-.84-6.13,3.4,5.54a19.2,19.2,0,0,1,2.65-.22l1.36-3.9.92,4a18,18,0,0,1,3,.55l3.76-4.86h.05l-.73,6a17.65,17.65,0,0,1,2.21,1.24l4.83-2.77-2.07,5a16.85,16.85,0,0,1,2.56,3.28l8.36-3L386.9,63a14.85,14.85,0,0,1,.61,2.29l4.3.28s-3.13,2.17-4.05,2.88a17.18,17.18,0,0,1-.18,2l5.25,1.15-5.7.82a15.23,15.23,0,0,1-1,2.48l7.8,5.76-9.46-3.09a16.38,16.38,0,0,1-1.9,2.1l2.46,2.81-3.8-1.69a16.67,16.67,0,0,1-2,1.31l2.85,8.09-5.83-6.74a19.56,19.56,0,0,1-2.78.73l1.08,6-3.71-5.72h-.08c5.81-3,11.21-8.08,9.91-16.32a.65.65,0,0,1-.15.1c-.41.14-1-.32-1.28-1s-.22-1.42.19-1.57a.76.76,0,0,1,.72.24,14.39,14.39,0,0,0-7.49-9.15.59.59,0,0,1,0,.41c-.14.55-1.19.79-2.34.53s-1.95-.93-1.8-1.49c.1-.36.58-.59,1.23-.63-.61-.19-1.23-.36-1.84-.5a3.29,3.29,0,0,1-1.19.21,2,2,0,0,1-1.82-.72,33.89,33.89,0,0,0-4.72-.19,5.09,5.09,0,0,1,.5-.3Z"/><path class="cls-22" d="M374.56,58.69c.54.23.87.62.75.88s-.66.3-1.2.08-.88-.62-.76-.88S374,58.47,374.56,58.69Z"/><path class="cls-22" d="M366.29,55.82c.28,0,.5.11.5.24s-.22.24-.5.24-.49-.1-.49-.24S366,55.82,366.29,55.82Z"/><path class="cls-22" d="M371.59,58.29c.26.07.44.24.4.36s-.29.18-.55.1-.44-.24-.4-.37S371.33,58.21,371.59,58.29Z"/><path class="cls-22" d="M378.41,64.91c.17.2.22.43.11.52s-.34,0-.52-.21-.21-.43-.1-.52S378.24,64.71,378.41,64.91Z"/><path class="cls-22" d="M379.55,68.67c.11.37,0,.72-.18.77s-.46-.2-.57-.57,0-.72.18-.77S379.44,68.3,379.55,68.67Z"/></g><path class="cls-24" d="M284.87,11.8s-.15,2.68,1.75,2.46a1.79,1.79,0,0,0,0,2.75c-.32-.12-1.52.67-2.17,1.91a2.54,2.54,0,0,0-.1,2.27s-1-.56-1.43-.19a1.43,1.43,0,0,0-.31,1.11s-.66-.78-.86-.57,0,1.07,0,1.07-.65-.77-1.17-.48-.5,1.35-.5,1.35A2.83,2.83,0,0,0,278,22.35,6.61,6.61,0,0,0,275,23.6s0-1.14-.79-1.5a3.14,3.14,0,0,0-1.75-.12s-.1-2.31-2.28-2.31c.45-.82,4.67-.54,5.9.21s3.11.91,3.84.44a3.22,3.22,0,0,1-.89-1.43l.82.44.48-.18,0-1.1s.71,1.27.95,1.27a2.14,2.14,0,0,0,1.16-1.79C282.55,16.7,283.16,13.36,284.87,11.8Z"/><path class="cls-24" d="M256.93,50.93s1.44.4,1.6,1.27-.75,1.56-.75,1.56.5-.18,1.09.57-.12,1.74-.12,1.74a3.12,3.12,0,0,1,2.35.75,3.84,3.84,0,0,1,1,2.86,1.2,1.2,0,0,1,1.11.35c.56.52.3,1.81.3,1.81s.93-1.38,1.45-1.32.94.71.94.71A5.33,5.33,0,0,1,268,59.45a6.18,6.18,0,0,1,3.07.49,1.26,1.26,0,0,1,.32-1.46c.72-.57,2.3,0,2.3,0s-.31-1.18.23-1.62,1.8-.14,1.8-.14-1.91-1.8-3.92-1.63-4.51,2.47-5.4,2.5a12.27,12.27,0,0,0,.44-1.24L265,57.49l-.59-1.94-.4,1.07s-.57-.2-.73-1.52a5,5,0,0,0-2.71-3.89A5.9,5.9,0,0,0,256.93,50.93Z"/><ellipse class="cls-24" cx="288.99" cy="16.5" rx="0.69" ry="0.64"/><path class="cls-24" d="M353.85,17.78a.69.69,0,1,1-.69-.64A.67.67,0,0,1,353.85,17.78Z"/><path class="cls-25" d="M290.38,15.89c9.14-3.32,19-5.35,28.47-4.09,4,.53,8.12,3.06,10.88,5.85a2.27,2.27,0,0,1,.82,1.5,1,1,0,0,1-1.18,1c-.7-.2-.7-1.15-.36-1.76.77-1.41,2.43-2.19,4-2.72a26.18,26.18,0,0,1,19.14,1.21"/><ellipse class="cls-24" cx="352.57" cy="42.77" rx="0.69" ry="0.64"/><ellipse class="cls-24" cx="345.01" cy="84.77" rx="0.69" ry="0.64"/><path class="cls-25" d="M351.35,43.18A29.86,29.86,0,0,0,339,62.38a28.53,28.53,0,0,0,5.49,21.75"/><path class="cls-24" d="M359.23,44.3s.17,0,.27.54h1.16a4.42,4.42,0,0,0-.82-.8S359,40,360,38.48a5.3,5.3,0,0,0,.33-.57.29.29,0,0,0,0,.09c-.26.81.15,2.94.51,4.5l0,.16h0c.22.94.42,1.65.42,1.65s.17,0,.27.54h1.16A4.42,4.42,0,0,0,362,44a16.86,16.86,0,0,1-.35-3.15c0-.15.09-.32.11-.43.18-.91,1.19-1.75,1.85-2.41.27-.28.47-.61.72-.92a.72.72,0,0,1,.2-.14.8.8,0,0,1,.13.19A9.91,9.91,0,0,1,365.1,40a6.09,6.09,0,0,0,.17,1.62h0c0,.16.05.33.08.52h0c.1.87.15,2,.15,2a2,2,0,0,1,.23.7h.77a1.4,1.4,0,0,0-.39-.76c0-.25-.1-1.37-.13-1.9s-.13-1.34.22-2c.23-.41,0-.83,0-1.24a4.58,4.58,0,0,1-.11-1,19.63,19.63,0,0,1,.16-2,.85.85,0,0,1,1-.61,1.27,1.27,0,0,1,1.33,1.08c0,.22.05.44.05.66,0,1,0,2,0,3.06,0,.44.2.87.26,1.31l0,.15h0a21,21,0,0,1,.28,2.49,1.89,1.89,0,0,1,.26.7h.86c0-.36-.44-.76-.44-.76-.06-.26-.12-1.4-.14-1.92,0-.16,0-.33,0-.5a2.76,2.76,0,0,1,.06-.4c0-.26.09-.52.11-.78,0-.79,0-1.59.12-2.37a12.69,12.69,0,0,1,.48-1.64,3.3,3.3,0,0,0,.2-1,1.86,1.86,0,0,1,.64-1.55,2.55,2.55,0,0,0,.73-1.56,9.28,9.28,0,0,0,.16-1.29c0-.8,0-1.6.07-2.4,0-.56.1-1.13.14-1.69a1.4,1.4,0,0,0,0-.41c-.18-.79-.36-1.58-.56-2.37-.1-.41-.24-.81-.36-1.21s-.29-.93-.42-1.39a.25.25,0,0,1,0-.24,1.81,1.81,0,0,0,.15-1.57c-.12-.52-.06-.62.5-.68a8.65,8.65,0,0,0,5-2.23c.46-.41,1-.77,1.43-1.17a4.81,4.81,0,0,0,.42-.48,1.43,1.43,0,0,1,.28-.27,3.17,3.17,0,0,0,1.35-1.66,2.73,2.73,0,0,0,.08-1.11c-.51.55-.43,1.6-1.36,2,.07-.29.09-.89.13-1.18a14.17,14.17,0,0,0,.12-1.45,2.26,2.26,0,0,0-.14-.6.3.3,0,0,0-.18.24c0,.32,0,.56,0,.88,0,.65-.49.93-1.06,1.12a.36.36,0,0,1-.28-.15c-.16-.3-.28-.62-.41-.93s-.27-.59-.4-.89l-.13,0,.12.65c.1.68.24,1.37.3,2.06a3.19,3.19,0,0,1-1.19,2.57h-.11c0-.44-.09-1-.14-1.4-.05,0-.1,0-.15.11a2.93,2.93,0,0,0,0,.41,3.08,3.08,0,0,1-.45,1.61.51.51,0,0,1-.21.2,6.34,6.34,0,0,1-3.13.95c-.29,0-.33-.12-.24-.34s.15-.43.22-.64-.1-.21-.14-.22c-.14.27-.29.71-.4,1a.34.34,0,0,1-.33.25,2.9,2.9,0,0,0-.65.14,1.24,1.24,0,0,1-.89,0,1.89,1.89,0,0,1-1.19-2,.17.17,0,0,0,0-.15,1.18,1.18,0,0,0-.24,1,2.56,2.56,0,0,0,.79,1.44c.09.07.19.26.16.31a.54.54,0,0,1-.36.18,2.85,2.85,0,0,1-1.56-.46,6.33,6.33,0,0,0-1.23-.77,2.77,2.77,0,0,1-1.77-2.54c0-.35.05-.43.41-.4a1.45,1.45,0,0,0,1-.29,10.53,10.53,0,0,0,2.37-2.29.42.42,0,0,0,.11-.29,19.26,19.26,0,0,1-2.46,1.94,4.19,4.19,0,0,1-.46.16c-.38.13-.65-.08-.62-.45,0-.08,0-.21-.07-.23-.31-.13-.3-.37-.29-.62l.06-1.3a.37.37,0,0,0-.1-.28,1.26,1.26,0,0,0-.2.27c-.24.58-.49,1.16-.69,1.75-.1.27-.22.26-.42.14a1,1,0,0,1-.5-.89c0-.39.05-.78.07-1.17a.51.51,0,0,0-.16-.49,1.29,1.29,0,0,1-.06.21,2.46,2.46,0,0,0,.36,3,4.24,4.24,0,0,1,.7,1.18c.25.54.43,1.11.64,1.67.08.19.05.33-.21.28a2.9,2.9,0,0,1-2.58-2,2.15,2.15,0,0,1,0-.62,1.13,1.13,0,0,0-.05-.4,1.69,1.69,0,0,0-.19,1.61,1.11,1.11,0,0,0,.18.34c.55.65,1.09,1.31,1.65,2a.84.84,0,0,0,.34.25,1.69,1.69,0,0,1,.93.77,6.31,6.31,0,0,0,1.05,1.08,3.09,3.09,0,0,0,.84.39l.35.09c-.3.16-.35.34-.22.58,0,.06,0,.2,0,.23-.41.24-.57.72-1.13.85s-.54.66-.2,1.1a1.52,1.52,0,0,0,1.09.51,2.24,2.24,0,0,1,.86.53c.09.07.06.29.05.44a1,1,0,0,1-.13.45.51.51,0,0,1-.31.23c-.9,0-1.81.11-2.71.08a4,4,0,0,0-2.66.79c-.56.46-1.11.64-1.38,1.4a5.54,5.54,0,0,0-.33,2.16,21.49,21.49,0,0,1,.62,2.42h0c.06.27.13.56.2.84a5,5,0,0,1-1,4.19C357.63,38.61,359.23,44.3,359.23,44.3Zm4.56-26c-.54.23-1.54,0-1.66-.48Zm2.28,1.27L364.28,19A1.55,1.55,0,0,1,366.07,19.56Z"/></g></g></g></svg>